<svg width="299" height="126" viewBox="0 0 299 126" fill="none" xmlns="http://www.w3.org/2000/svg">
<path fill-rule="evenodd" clip-rule="evenodd" d="M172.561 2.08449C170.068 2.57221 165.962 2.83057 163.437 2.65863C158.855 2.34589 158.845 2.35171 157.778 5.65639L156.711 8.96657L150.615 9.14749C147.263 9.24631 143.53 8.82267 142.319 8.20508C140.372 7.21342 138.953 7.5377 130.095 10.994C124.582 13.1442 117.63 15.5428 114.646 16.3242C111.661 17.1047 110.098 17.7535 111.174 17.767C112.249 17.7797 117.067 16.6184 121.882 15.1862C126.697 13.754 131.728 12.4776 133.064 12.3488C134.398 12.2201 135.965 11.7327 136.544 11.2671C137.888 10.1852 142.832 10.7719 145.018 12.2718C145.941 12.9049 150.65 16.2197 155.48 19.6378C160.311 23.0551 168.441 27.8576 173.546 30.3097C178.652 32.7618 184.97 36.244 187.586 38.0474C190.203 39.8507 194.604 42.4141 197.367 43.7433C200.129 45.0733 202.538 46.4641 202.719 46.8338C202.901 47.2035 203.744 47.4826 204.593 47.4529C207.105 47.3652 210.41 49.9751 209.945 51.6789C209.449 53.4969 211.01 56.1504 211.97 55.1202C213.943 53.005 212.936 50.0639 209.292 47.2998C207.222 45.7292 205.471 43.9869 205.401 43.4271C205.332 42.8673 202.25 39.8873 198.553 36.8037C194.856 33.721 186.914 26.811 180.902 21.448C169.007 10.8344 167.365 9.50723 166.174 9.5488C165.336 9.57805 161.283 5.8361 161.254 5.00747C161.245 4.73856 165.43 4.05483 170.556 3.48702C175.682 2.91921 183.146 2.0443 187.145 1.54234L194.414 0.631338L185.754 0.913701C180.99 1.07 175.053 1.59676 172.561 2.08449ZM197.631 1.26651C197.646 1.70315 198.624 2.02678 199.805 1.98556C203.065 1.87169 227.072 8.2409 231.02 10.2679C235.122 12.3726 235.082 13.4063 230.974 11.4606C229.421 10.7244 227.662 10.1397 227.065 10.1605C226.147 10.1926 236.269 15.2705 237.249 15.2692C237.436 15.269 237.002 14.6015 236.284 13.786C235.15 12.4958 235.313 12.5038 237.544 13.8469C240.409 15.5723 240.887 16.2958 238.653 15.5277C237.36 15.0818 237.337 15.257 238.466 16.9316C239.175 17.9838 239.978 18.8365 240.252 18.8269C240.779 18.8085 240.879 19.4448 241.438 26.3755C241.726 29.9504 241.442 31.0218 239.899 32.1856C238.858 32.9703 238.041 34.5988 238.083 35.8048C238.332 42.9443 227.187 63.211 218.789 70.8879C217.807 71.7847 216.409 73.1314 215.682 73.8796C214.956 74.6269 213.149 75.8108 211.667 76.5087C208.127 78.1776 200.31 84.1977 200.932 84.7766C201.624 85.4232 206.871 82.9081 206.837 81.9464C206.822 81.5052 207.12 81.2301 207.5 81.3336C208.151 81.5099 218.716 74.2254 222.295 71.1324C223.197 70.3534 223.652 69.2925 223.306 68.7752C222.951 68.2436 223.201 68.0113 223.881 68.2413C224.542 68.4655 226.871 66.9111 229.055 64.7868C231.24 62.6624 232.385 61.1438 231.6 61.4131C230.784 61.6917 230.153 61.3697 230.128 60.6614C230.104 59.9786 230.481 59.6469 230.965 59.923C231.449 60.1991 232.191 59.8473 232.614 59.1407C233.177 58.1983 233.329 58.3701 233.183 59.7835C232.964 61.8967 230.982 65.4907 228.665 67.9757C227.847 68.8521 227.404 69.7775 227.679 70.0335C228.182 70.5024 235.307 60.8693 235.269 59.7709C235.258 59.4463 236.957 56.7548 239.045 53.7896C241.133 50.8252 243.831 46.3109 245.041 43.7587C247.59 38.3816 248.136 40.2289 245.922 46.7334C240.234 63.4353 220.167 83.3455 197.396 94.8794C192.631 97.2929 186.919 100.274 184.703 101.504C178.844 104.755 173.152 106.625 159.711 109.714C153.139 111.224 143.578 113.809 138.463 115.456C115.165 122.963 69.4547 125.283 51.1794 119.885L44.2628 117.842L50.2111 118.295C61.922 119.187 77.4324 118.147 97.5601 115.118C101.428 114.537 104.033 114.557 105.12 115.178C106.255 115.827 106.974 115.821 107.401 115.159C107.966 114.282 114.476 112.244 120.238 111.14C131.566 108.969 134.415 108.1 135.735 106.417C137.473 104.202 138.552 104.06 140.132 105.834C140.916 106.715 142.734 107.059 145.527 106.855L149.741 106.549L145.805 106.335C143.486 106.208 141.642 105.588 141.319 104.826C140.523 102.948 136.948 103.367 135.103 105.554C133.566 107.375 130.487 108.347 131.417 106.717C131.671 106.273 129.952 106.358 127.599 106.905C125.245 107.453 122.223 108.097 120.883 108.337C119.542 108.576 116.694 109.336 114.553 110.025C109.452 111.666 69.6483 113.004 67.8248 111.595C67.1354 111.063 64.0748 110.556 61.0224 110.467C57.9691 110.379 55.1426 110.12 54.7412 109.891C54.339 109.663 51.9488 109.249 49.4293 108.973C46.9097 108.696 43.7266 107.948 42.3554 107.311C40.9851 106.675 39.128 106.421 38.2286 106.747C36.8649 107.242 36.815 107.17 37.9276 106.309C38.8909 105.564 38.9332 105.285 38.0805 105.305C37.4322 105.32 36.9972 104.625 37.1139 103.76C37.2417 102.819 36.6296 102.072 35.5867 101.896C34.3482 101.688 34.0101 101.99 34.4139 102.941C35.1697 104.722 32.5744 104.236 25.7092 101.31C19.6112 98.713 18.7713 97.271 23.7151 97.8897C26.0737 98.1843 26.7137 98.0606 25.7548 97.4954C24.986 97.0422 23.6585 96.6897 22.8041 96.7113C21.9497 96.7338 20.2066 96.3192 18.9295 95.7906C15.6215 94.4203 14.481 88.1826 16.8548 84.4416C17.7804 82.9819 19.5639 80.1085 20.8183 78.0568C22.0728 76.005 23.7372 73.3804 24.5164 72.2233C25.2965 71.0662 25.7082 70.1281 25.4329 70.1378C24.5924 70.1671 16.9752 81.3315 15.0607 85.3385C13.5154 88.575 13.1603 88.8612 12.522 87.3876C10.455 82.6134 12.6549 76.4015 19.463 67.7861C24.4627 61.4609 37.7982 50.5394 40.6441 50.4401C43.1701 50.3518 42.824 50.8431 38.371 53.6655C33.3992 56.8172 33.0374 57.9853 37.9617 54.9867C41.4184 52.8818 41.6467 52.8574 44.8227 54.2379C46.6299 55.0236 51.9041 56.1144 56.5433 56.6634C66.5484 57.8455 71.6074 59.3582 77.7539 63.0061C80.2545 64.4904 86.1914 66.8916 90.9479 68.3428C100.571 71.2796 106.569 74.2327 111.724 78.5732C113.621 80.1708 116.397 81.7277 117.891 82.0332C121.658 82.8034 127.615 85.5735 130.141 87.7314C131.303 88.724 132.454 89.3227 132.698 89.0614C133.32 88.3944 126.586 83.4865 122.125 81.356C120.077 80.377 115.436 76.5151 111.812 72.7736C108.188 69.0313 104.017 65.4048 102.543 64.7142C101.069 64.0237 97.7607 62.0565 95.1909 60.3418C88.1572 55.6489 75.2124 48.7966 65.2981 44.5192C58.0054 41.3722 56.6331 40.47 57.4749 39.3801C59.0092 37.3943 82.572 28.8967 86.9685 28.7432C90.3295 28.6258 91.1216 29.0152 93.468 31.9388C97.1493 36.5243 98.1336 37.1133 104.662 38.6386C110.151 39.9209 121.24 45.5209 125.342 49.0823C126.423 50.022 129.887 51.4463 133.039 52.248C136.613 53.1563 142.332 55.89 148.24 59.5124C153.45 62.7065 160.566 66.5396 164.054 68.0296C167.541 69.5206 171.538 71.294 172.936 71.9708C174.961 72.9515 175.374 72.958 174.969 72.0038C174.69 71.3455 173.47 70.2381 172.26 69.5438C171.049 68.8495 165.252 64.2823 159.377 59.3946C153.503 54.5069 145.947 48.2368 142.588 45.4618C139.228 42.6859 131.111 37.1637 124.55 33.189C117.989 29.2142 112.37 25.3709 112.062 24.6469C111.755 23.9238 109.833 22.4677 107.791 21.4127C104.232 19.5729 104.166 19.462 106.197 18.744C107.362 18.3318 105.682 18.3129 102.465 18.7018C97.3616 19.3181 95.9774 19.9287 91.632 23.4793C88.6264 25.9353 85.2309 27.8346 83.0719 28.2659C77.361 29.4082 58.2533 36.738 55.7316 38.7537C54.041 40.1042 53.3912 41.5689 53.2838 44.2679C53.1525 47.5636 52.7705 48.1246 49.5916 49.6932C46.2916 51.3226 45.9282 51.3435 44.3295 49.9947C41.8046 47.865 39.5906 48.2891 33.9059 51.9887C26.8193 56.6007 22.8787 60.4009 15.1283 70.1024C5.8511 81.7145 5.43916 82.8305 7.20128 91.5518C9.11367 101.022 10.7953 103.935 16.9375 108.423C24.7955 114.166 33.2401 117.865 45.5008 120.936C64.1393 125.602 73.0426 126.202 99.2588 124.557C118.973 123.32 123.116 122.801 130.155 120.687C134.626 119.345 144.228 116.613 151.493 114.618C189.265 104.242 211.177 92.4998 229.891 72.6067C243.94 57.6719 249.218 47.2225 249.614 33.5594C249.895 23.8577 248.353 19.0451 243.614 14.8388C238.633 10.4164 237.127 9.80733 220.459 5.48459C204.458 1.33478 197.589 0.0659556 197.631 1.26651ZM195.052 5.82784C197.322 6.13009 200.828 6.56804 202.844 6.79974C206.15 7.17987 206.058 7.10551 201.905 6.03394C199.372 5.38036 195.866 4.94333 194.113 5.06204C191.117 5.26431 191.174 5.31068 195.052 5.82784ZM165.288 12.7742C167.057 14.2183 170.88 16.8877 173.784 18.7057C178.255 21.5058 185.858 28.4268 194.654 37.7038C199.729 43.0566 192.58 37.4084 179.443 25.6882C175.486 22.1565 170.785 18.5475 168.998 17.6681C164.373 15.3927 157.477 9.20723 158.183 7.96961C158.586 7.26556 159.306 7.44851 160.424 8.5403C161.331 9.42496 163.519 11.33 165.288 12.7742ZM167.587 8.29744C168.254 8.53794 169.039 8.47765 169.331 8.16443C169.623 7.85122 169.078 7.65487 168.118 7.72763C167.058 7.80847 166.849 8.03205 167.587 8.29744ZM207.555 6.96289C207.335 7.34658 208.923 7.59963 211.084 7.52418C213.244 7.44874 214.527 7.10183 213.936 6.75374C212.525 5.92411 208.064 6.06984 207.555 6.96289ZM163.86 16.0184C164.273 16.004 166.25 17.3725 168.254 19.0594C170.257 20.7464 172.305 22.1124 172.806 22.0949C173.305 22.0775 173.731 22.5208 173.75 23.0796C173.787 24.147 170.35 22.3586 167.288 19.7165C166.347 18.9043 163.848 17.1442 161.736 15.8051C159.624 14.466 157.879 12.9097 157.86 12.3472C157.84 11.7848 159.013 12.3864 160.466 13.6846C161.919 14.9828 163.446 16.0329 163.86 16.0184ZM42.5374 22.6938C39.6328 23.9617 43.2226 32.0962 46.6346 31.977C48.6601 31.9063 50.9395 28.4653 50.2474 26.5226C49.2031 23.5919 45.1229 21.5658 42.5374 22.6938ZM108.601 26.1797C111.194 28.5525 115.195 31.4119 117.493 32.5345C129.665 38.4783 134.27 41.208 139.395 45.5139C146.587 51.5576 136.307 46.3492 124.718 38.0788C122.764 36.684 120.91 35.8159 120.599 36.1499C120.287 36.4839 120.884 37.31 121.923 37.9856C122.963 38.6612 125.582 40.5886 127.743 42.2701C129.903 43.9507 132.595 45.5826 133.725 45.8963C134.854 46.2101 136.461 47.1981 137.296 48.0917C138.131 48.9853 139.136 49.4047 139.529 49.0241C139.921 48.6425 139.925 48.9253 139.536 49.6517C139.013 50.6301 139.21 50.8104 140.298 50.3498C141.884 49.6765 143.345 50.9598 142.008 51.8517C141.09 52.4652 130.804 46.3753 126.518 42.6807C124.966 41.3421 123.183 40.2626 122.556 40.2827C121.929 40.3018 121.402 39.9077 121.384 39.4063C121.367 38.905 121.047 38.5538 120.672 38.6262C118.943 38.9622 118.624 38.4486 119.48 36.7055C120.309 35.0164 120.187 34.882 118.317 35.4209C116.755 35.8716 115.434 35.3016 113.091 33.1647C111.366 31.5922 109.395 30.2435 108.713 30.1679C107.183 29.9977 102.879 27.2749 104.074 27.2331C104.548 27.2166 103.956 26.5664 102.759 25.7886C101.426 24.9234 100.367 24.7313 100.028 25.2935C99.709 25.824 98.5042 25.3531 97.1782 24.1791L94.8812 22.1465L97.0755 21.2393C100.221 19.9393 103.157 21.1985 108.601 26.1797ZM113.722 22.0526C114.617 22.2531 115.847 22.1947 116.456 21.9233C117.064 21.652 116.332 21.4887 114.829 21.5594C113.325 21.6302 112.827 21.852 113.722 22.0526ZM295.834 16.8859C295.87 17.8987 296.506 18.6879 297.265 18.6614C298.8 18.6078 298.856 18.4388 298.003 16.4287C297.15 14.4186 295.759 14.7127 295.834 16.8859ZM46.955 25.9932C48.2479 27.4449 47.6148 29.2047 45.777 29.2689C44.6275 29.3091 43.3887 27.4703 43.3244 25.629C43.2788 24.3227 45.6812 24.5628 46.955 25.9932ZM245.152 19.1596C245.491 19.9601 245.351 20.331 244.823 20.0299C244.317 19.741 243.889 19.1188 243.873 18.6467C243.827 17.3358 244.49 17.6019 245.152 19.1596ZM244.458 22.3308C245.4 23.3019 245.796 24.1095 245.338 24.1255C244.879 24.1415 243.963 23.3521 243.302 22.3712C242.64 21.3903 242.244 20.5827 242.422 20.5765C242.599 20.5704 243.515 21.3598 244.458 22.3308ZM107.784 28.929C108.112 29.4195 108.56 29.8146 108.782 29.8068C109.003 29.7991 109.169 29.3826 109.152 28.8812C109.134 28.3798 108.685 27.9848 108.154 28.0033C107.624 28.0219 107.457 28.4384 107.784 28.929ZM177.976 26.4778C178.303 26.9684 178.136 27.3849 177.606 27.4034C177.075 27.422 176.626 27.0269 176.609 26.5256C176.591 26.0242 176.757 25.6077 176.979 25.5999C177.2 25.5922 177.648 25.9873 177.976 26.4778ZM137.691 29.4015C135.709 30.283 136.568 32.2326 139.408 33.2944C140.925 33.8611 142.78 34.0647 143.531 33.7455C145.023 33.112 145.292 28.5318 143.834 28.5827C143.339 28.6001 143.063 29.5169 143.221 30.6203C143.542 32.8634 141.594 33.7538 139.392 32.3704C138.179 31.6077 138.222 31.3014 139.715 30.0783C141.435 28.6684 140.24 28.2683 137.691 29.4015ZM246.846 25.388C246.854 25.6095 246.459 26.0577 245.968 26.3852C245.478 26.7126 245.061 26.5456 245.043 26.015C245.024 25.4845 245.419 25.0353 245.92 25.0178C246.422 25.0003 246.838 25.1665 246.846 25.388ZM181.75 29.9968C182.692 30.9679 183.257 31.7695 183.006 31.7783C182.754 31.7871 181.573 31.0069 180.382 30.0445C179.191 29.0822 178.626 28.2805 179.126 28.263C179.627 28.2455 180.808 29.0257 181.75 29.9968ZM111.522 34.5119C113.024 35.5538 113.064 35.7422 111.795 35.7865C110.977 35.8151 110.296 35.524 110.283 35.1402C110.27 34.7555 109.429 34.2098 108.415 33.9267C107.401 33.6436 106.558 33.015 106.541 32.5291C106.508 31.5884 108.39 32.3368 111.522 34.5119ZM267.336 26.9898C264.827 28.1069 264.174 30.2782 265.529 32.9973C267.002 35.9531 269.357 36.4705 272.723 34.5769C276.457 32.4787 276.888 30.6794 274.277 28.0881C271.998 25.8258 270.487 25.5865 267.336 26.9898ZM272.485 27.772C273.692 28.5202 273.64 28.8296 272.107 30.0222C271.129 30.7828 269.79 31.9047 269.131 32.5164C268.205 33.3747 267.741 33.3462 267.088 32.3906C265.787 30.4884 265.986 29.0622 267.7 27.981C269.681 26.7327 270.734 26.6868 272.485 27.772ZM2.41587 41.2873C-1.47463 45.7913 0.196057 50.3256 6.89955 53.4557C13.2236 56.4083 18.5869 54.9551 20.873 49.6702C22.4877 45.9356 21.6601 42.3895 18.7631 40.6334C17.6143 39.9369 13.9756 39.2097 10.6768 39.0173C4.9599 38.684 4.57299 38.7906 2.41587 41.2873ZM60.228 39.2365C60.2495 39.8527 64.9236 41.9493 67.6458 42.5643C68.9107 42.8506 68.0641 42.129 65.7644 40.9616C61.6045 38.8498 60.1992 38.4124 60.228 39.2365ZM7.40314 42.4201C7.41963 42.8923 7.03173 43.5456 6.54119 43.8731C6.05064 44.2005 5.68509 45.4938 5.72887 46.7472C5.77381 48.0344 5.40335 48.7948 4.8772 48.4946C3.59021 47.7601 3.57806 44.1189 4.85897 42.7453C6.12229 41.3906 7.36166 41.2323 7.40314 42.4201ZM228.915 34.6409C228.931 35.0885 229.567 35.6696 230.329 35.9323C231.174 36.2222 231.697 35.8854 231.668 35.0705C231.643 34.3339 231.006 33.7529 230.254 33.7791C229.502 33.8054 228.9 34.1933 228.915 34.6409ZM17.3201 44.1356C19.0314 45.7314 18.764 47.4019 16.3878 49.95C13.3571 53.2001 9.60408 51.8151 9.41535 47.3778C9.30869 44.8461 10.9628 43.2623 13.8179 43.1626C15.1215 43.1171 16.6974 43.5549 17.3201 44.1356ZM245.154 38.0504C244.924 38.6864 244.699 38.1804 244.655 36.927C244.611 35.6736 244.8 35.154 245.075 35.7715C245.35 36.3898 245.386 37.4153 245.154 38.0504ZM63.122 46.7601C65.8593 47.7551 68.8019 48.5441 69.6606 48.5141C71.1511 48.462 85.3826 56.747 88.2783 59.352C91.1203 61.9087 87.5635 60.5224 81.3128 56.6372C77.7536 54.425 72.978 52.1649 70.6999 51.6147C64.5816 50.1371 56.5395 46.8841 55.2756 45.3757C53.7195 43.5189 54.7281 42.2661 56.5965 43.7342C57.4486 44.4035 60.3857 45.7649 63.122 46.7601ZM75.1194 44.1744C77.4617 44.7333 79.8491 45.4585 80.4237 45.7871C80.9992 46.1157 81.455 45.9693 81.4373 45.4615C81.4016 44.4387 75.5278 42.8002 72.6814 43.0192C71.6802 43.0961 72.7771 43.6164 75.1194 44.1744ZM229.287 45.2973C229.344 46.9071 231.297 46.5587 231.801 44.849C231.979 44.2459 231.474 43.7761 230.68 43.8038C229.886 43.8316 229.26 44.5042 229.287 45.2973ZM240.24 45.2954C240.257 45.7968 239.837 46.2222 239.306 46.2407C238.776 46.2592 238.58 45.8553 238.872 45.3432C239.165 44.831 239.584 44.4056 239.806 44.3979C240.027 44.3901 240.222 44.794 240.24 45.2954ZM242.974 45.1999C242.992 45.7013 242.571 46.1267 242.041 46.1452C241.51 46.1637 241.315 45.7598 241.607 45.2477C241.899 44.7355 242.319 44.3101 242.541 44.3024C242.762 44.2946 242.957 44.6985 242.974 45.1999ZM64.0375 53.0859C63.1137 53.3162 61.9459 53.1197 61.443 52.6508C60.8524 52.1001 61.4469 51.9515 63.1224 52.2334C65.0439 52.5552 65.2816 52.7769 64.0375 53.0859ZM159.141 49.0401C159.158 49.5415 159.583 49.9374 160.084 49.9199C160.586 49.9024 160.982 49.4778 160.964 48.9765C160.947 48.4751 160.522 48.0792 160.021 48.0967C159.519 48.1142 159.123 48.5388 159.141 49.0401ZM69.3583 53.9159C69.6558 54.36 69.0697 54.5384 68.0568 54.3109C65.9089 53.8283 65.6183 53.2187 67.5053 53.1528C68.2282 53.1276 69.0616 53.4708 69.3583 53.9159ZM167.433 51.0213C166.562 52.1497 166.632 52.5123 167.8 52.9151C169.608 53.5374 171.129 52.5762 171.069 50.8515C171.009 49.1377 168.809 49.241 167.433 51.0213ZM30.1701 64.791L27.2111 68.7066L30.6041 65.1957C32.4698 63.265 33.801 61.5035 33.5624 61.281C33.3237 61.0584 31.7971 62.6377 30.1701 64.791ZM154.477 59.2426C154.805 59.7331 154.638 60.1497 154.107 60.1682C153.577 60.1867 153.128 59.7917 153.11 59.2903C153.093 58.789 153.259 58.3724 153.48 58.3647C153.702 58.357 154.15 58.752 154.477 59.2426ZM62.3805 63.4736C61.695 64.674 63.6371 66.0309 65.9532 65.971C68.0797 65.915 67.9305 64.3869 65.6916 63.2877C63.4332 62.1791 63.1089 62.1969 62.3805 63.4736ZM73.847 63.3296C73.8539 63.5265 74.5044 63.91 75.2933 64.1818C76.1154 64.4643 76.4756 64.2984 76.1386 63.7936C75.5732 62.9454 73.8213 62.5913 73.847 63.3296ZM54.2992 65.479C54.0068 65.9911 54.4076 66.3879 55.1888 66.3606C55.9701 66.3333 56.5957 65.9007 56.5782 65.3994C56.5607 64.898 56.1608 64.5013 55.6886 64.5178C55.2164 64.5342 54.5917 64.9668 54.2992 65.479ZM66.3459 64.6969C66.0538 65.0101 65.2683 65.0704 64.6018 64.8299C63.8642 64.5645 64.0727 64.3409 65.1332 64.26C66.0926 64.1873 66.638 64.3836 66.3459 64.6969ZM94.8092 64.6494C96.0093 65.6132 94.0785 65.572 91.6883 64.5831L88.91 63.4325L91.6639 63.8839C93.1785 64.1322 94.5942 64.4762 94.8092 64.6494ZM34.266 67.1095C34.0458 67.4941 34.9039 67.9698 36.1722 68.1673C37.4395 68.364 38.6571 68.2102 38.8764 67.8247C39.0966 67.44 38.2385 66.9644 36.9702 66.7668C35.7029 66.5701 34.4853 66.724 34.266 67.1095ZM77.5603 65.1184C77.5794 65.6654 84.2971 68.4454 88.4731 69.634C90.1389 70.1079 91.2732 70.155 90.9958 69.7384C90.7175 69.3219 89.3757 68.7427 88.0147 68.4507C86.6528 68.1587 83.8679 67.1836 81.8267 66.2837C77.8102 64.5137 77.5365 64.4384 77.5603 65.1184ZM19.7954 70.3255C18.412 71.8743 17.4901 73.3376 17.7468 73.5778C18.0043 73.817 19.5504 72.5355 21.1831 70.7288C22.8149 68.9222 23.7367 67.4589 23.2307 67.4766C22.7248 67.4943 21.1788 68.7758 19.7954 70.3255ZM100.948 67.2944C100.385 67.9402 97.7523 66.4167 98.1695 65.6856C98.4284 65.2321 99.2101 65.3509 99.9064 65.949C100.603 66.5471 101.072 67.1523 100.948 67.2944ZM215.287 63.0735C214.679 63.8595 214.445 64.7485 214.765 65.0476C215.451 65.6862 218.06 63.5535 218.019 62.3885C217.975 61.1323 216.501 61.5023 215.287 63.0735ZM106.938 70.0296C106.955 70.531 106.535 70.9564 106.004 70.9749C105.474 70.9934 105.278 70.5896 105.57 70.0774C105.863 69.5652 106.283 69.1398 106.504 69.1321C106.726 69.1243 106.92 69.5282 106.938 70.0296ZM212.374 67.0596C212.083 67.5681 212.418 68.4271 213.118 68.9676C214.077 69.7081 214.645 69.6216 215.422 68.6152C216.126 67.7044 216.143 67.1032 215.477 66.7231C214.94 66.4169 214.513 66.7029 214.528 67.3595C214.55 68.3107 214.388 68.3072 213.729 67.3436C213.226 66.6091 212.695 66.4971 212.374 67.0596ZM200.032 70.027C200.06 70.8082 200.483 71.1804 200.974 70.8529C201.464 70.5255 201.852 69.8721 201.836 69.3999C201.819 68.9277 201.396 68.5565 200.894 68.574C200.393 68.5915 200.005 69.2457 200.032 70.027ZM205.696 72.9159C204.809 73.5082 204.796 73.8472 205.64 74.3298C206.252 74.679 207.148 74.54 207.632 74.0211C208.778 72.7918 207.218 71.9008 205.696 72.9159ZM217.229 78.9558C216.936 79.468 217.132 79.8719 217.663 79.8534C218.193 79.8349 218.614 79.4095 218.596 78.9081C218.579 78.4067 218.384 78.0028 218.162 78.0106C217.941 78.0183 217.521 78.4437 217.229 78.9558ZM11.4802 89.0504C11.2148 89.7871 10.9912 89.5786 10.9104 88.5181C10.8376 87.5587 11.034 87.0133 11.3472 87.3054C11.6604 87.5975 11.7207 88.383 11.4802 89.0504ZM90.4548 94.0011C88.4216 95.8373 87.7814 97.1329 88.0449 98.8769C88.3649 100.984 88.7869 101.228 91.7865 101.033C95.3753 100.8 99.4726 98.455 100.253 96.1871C100.9 94.3072 97.8076 91.3403 95.2926 91.4282C94.1549 91.4679 91.9785 92.6254 90.4548 94.0011ZM34.3284 95.4226C33.4159 97.0216 35.8855 98.9789 38.6923 98.8808C41.6312 98.7782 41.9765 97.7677 39.7745 95.7134C38.083 94.137 35.1515 93.9801 34.3284 95.4226ZM97.7993 93.9482L99.9495 95.568L97.6684 97.1791C96.4142 98.0644 94.0994 99.2085 92.5229 99.7209C88.2741 101.101 87.5831 98.5882 91.2463 95.0779C94.5634 91.899 94.9835 91.8269 97.7993 93.9482ZM38.4579 96.1154C39.2116 96.5563 39.56 97.204 39.2319 97.5559C38.4269 98.4192 35.7928 97.4488 35.7518 96.2738C35.7114 95.116 36.6541 95.0612 38.4579 96.1154ZM66.8241 97.4421C66.8503 98.1942 67.282 98.7952 67.7834 98.7777C68.2847 98.7601 68.6735 98.1305 68.6472 97.3784C68.6209 96.6264 68.1892 96.0254 67.6879 96.0429C67.1865 96.0604 66.7978 96.6901 66.8241 97.4421ZM47.7492 100.066C47.7659 100.545 48.289 101.412 48.9117 101.992C49.7919 102.813 49.598 103.063 48.0383 103.118C46.8633 103.159 46.0131 102.622 45.9851 101.821C45.9588 101.069 45.497 100.469 44.9592 100.487C44.4205 100.506 44.142 101.234 44.3385 102.106C44.5889 103.214 45.7263 103.74 48.117 103.854C51.9475 104.038 52.385 103.131 49.5996 100.782C48.5652 99.9097 47.7325 99.5874 47.7492 100.066ZM78.0203 104.428C78.0765 106.038 80.0294 105.69 80.5337 103.98C80.7116 103.377 80.2069 102.907 79.4129 102.935C78.619 102.963 77.9926 103.635 78.0203 104.428ZM27.2341 107.187C26.6167 107.462 25.5912 107.498 24.9552 107.266C24.3201 107.036 24.8252 106.811 26.0786 106.767C27.332 106.723 27.8525 106.912 27.2341 107.187ZM31.1442 108.261C31.4813 108.766 31.1211 108.932 30.2989 108.65C28.6989 108.098 28.3871 107.455 29.6979 107.409C30.1701 107.393 30.8206 107.776 31.1442 108.261ZM32.8166 111.615C31.9436 111.968 32.0759 112.412 33.3335 113.351C34.6362 114.325 34.3335 114.309 32.0104 113.282C30.353 112.549 28.9945 111.858 28.9914 111.745C28.9875 111.633 30.1111 111.451 31.4872 111.342C32.8634 111.231 33.4619 111.355 32.8166 111.615ZM43.0493 115.761C42.4319 116.037 41.4064 116.072 40.7704 115.841C40.1353 115.61 40.6404 115.385 41.8938 115.342C43.1472 115.298 43.6677 115.487 43.0493 115.761ZM64.9443 114.991C64.3359 115.263 63.1058 115.321 62.2107 115.12C61.3157 114.92 61.8136 114.698 63.3171 114.627C64.8205 114.557 65.5527 114.72 64.9443 114.991ZM78.6327 115.431C78.0153 115.707 76.9898 115.743 76.3538 115.511C75.7187 115.28 76.2238 115.056 77.4772 115.012C78.7306 114.968 79.2511 115.157 78.6327 115.431ZM109.571 115.884C109.037 116.577 108.878 117.404 109.219 117.722C110.162 118.601 115.285 118.201 116.797 117.132C117.984 116.291 117.977 116.092 116.734 115.336C114.716 114.11 110.705 114.417 109.571 115.884ZM114.942 116.297C114.96 116.799 114.129 117.238 113.097 117.274C112.065 117.31 111.459 116.921 111.752 116.409C112.044 115.897 112.874 115.457 113.597 115.432C114.32 115.406 114.925 115.796 114.942 116.297ZM201.763 113.774C200.676 114.593 199.808 115.865 199.833 116.598C199.886 118.124 204.605 125.031 205.572 124.997C207.098 124.944 207.115 123.711 205.619 121.293C203.72 118.224 204.631 115.817 208.071 114.807C213.213 113.297 215.7 118.488 211.318 121.582C209.771 122.675 209.311 123.516 209.939 124.102C211.135 125.217 214.67 123.301 214.61 121.57C214.586 120.898 214.768 119.124 215.013 117.63C215.652 113.731 213.384 111.947 208.029 112.134C205.622 112.218 202.872 112.937 201.763 113.774ZM83.1008 119.235C83.1183 119.736 83.5675 120.131 84.098 120.113C84.6286 120.094 84.7956 119.677 84.4682 119.187C84.1407 118.696 83.6925 118.301 83.471 118.309C83.2494 118.317 83.0833 118.733 83.1008 119.235ZM94.4955 118.837C94.823 119.327 95.6577 119.709 96.3505 119.685C97.0433 119.66 97.8494 119.222 98.1419 118.709C98.4446 118.18 97.646 117.814 96.2869 117.861C94.9277 117.909 94.1566 118.329 94.4955 118.837ZM202.581 116.888C202.599 117.389 202.203 117.814 201.702 117.831C201.2 117.849 200.776 117.453 200.758 116.951C200.741 116.45 201.137 116.025 201.638 116.008C202.139 115.99 202.564 116.386 202.581 116.888Z" fill="#fff"/>
</svg>
