<svg width="192" height="183" viewBox="0 0 192 183" fill="none" xmlns="http://www.w3.org/2000/svg">
<path fill-rule="evenodd" clip-rule="evenodd" d="M119.508 1.62246C116.781 2.3848 113.02 3.85827 111.15 4.89593C107.06 7.16573 99.7724 15.0125 97.664 19.4159C95.5736 23.783 93.0101 35.9567 93.1766 40.7263C93.3116 44.5919 93.232 44.7097 88.2379 47.987C79.7783 53.5392 72.2377 64.5333 72.4415 71.0188C72.4911 72.6147 72.0583 73.4303 71.1446 73.4622C69.0202 73.5364 58.8198 81.0828 54.8107 85.5466C50.5757 90.2615 46.8402 99.6384 45.7057 108.405C44.9459 114.267 44.8908 114.363 41.3981 115.834C35.8755 118.161 29.4515 119.352 21.0476 119.605C7.1597 120.025 0.242889 125.756 0.600644 136.55C0.710433 139.869 4.32353 144.867 8.12464 146.958C13.9477 150.162 31.0635 151.427 37.3673 149.12C39.0636 148.499 35.2104 152.608 26.9688 160.208C22.1742 164.629 21.8285 165.218 21.4314 169.654C20.7761 176.962 21.5834 178.578 27.1255 181.053C37.0971 185.508 47.1789 181.584 59.8473 168.319C68.0029 159.779 70.6195 155.245 74.5179 142.892L76.674 136.058L80.4907 135.925C89.4316 135.613 100.858 125.563 104.993 114.374L107.271 108.21L114.987 103.9C119.23 101.53 124.336 97.9534 126.333 95.9512C130.955 91.3196 134.438 83.1697 135.467 74.584L136.267 67.8943L140.25 67.3611C148.804 66.2164 157.422 57.7721 161.591 46.451C164.903 37.4551 165.097 30.286 162.277 21.0865C159.582 12.2951 156.793 8.85276 149.194 4.94527C139.552 -0.0140889 129.415 -1.14871 119.508 1.62246ZM144.215 5.26215C162.705 13.3685 167.822 35.3613 155.712 54.6802C152.577 59.6811 149.59 61.8147 141.24 65.0172C138.658 66.0074 136.411 66.8227 136.247 66.8285C136.083 66.8342 135.903 65.5655 135.849 64.0082C135.795 62.4508 135.055 58.1259 134.205 54.3961C131.927 44.3971 131.871 37.0048 134.042 32.805C136.21 28.6105 135.191 27.1549 132.466 30.5552C129.344 34.449 129.241 38.274 131.897 51.6991C133.502 59.817 134.28 66.326 134.242 71.3277C134.188 78.5495 134.064 78.9837 130.728 83.7387C128.827 86.4484 126.643 89.3388 125.875 90.1618C125.109 90.9839 124.87 91.6437 125.347 91.627C125.822 91.6104 127.611 89.8797 129.322 87.7819L132.433 83.967L130.483 87.8434C127.363 94.0437 116.79 102.793 112.169 102.998C111.587 103.024 110.53 103.846 109.821 104.824C108.583 106.532 108.55 106.505 108.997 104.161C109.689 100.533 109.68 100.226 108.643 91.967C108.117 87.7751 107.066 82.7668 106.308 80.8372C105.551 78.9076 105.133 76.9758 105.38 76.5442C105.976 75.4996 102.576 60.1557 101.754 60.1844C101.403 60.1967 101.939 63.415 102.946 67.3373C104.811 74.5949 105.252 77.2568 104.47 76.5272C104.229 76.3027 103.287 73.0331 102.377 69.2601C101.466 65.4879 99.6156 59.496 98.2646 55.9459C95.4197 48.4713 94.8033 39.6867 96.6777 33.3275C97.3201 31.1467 98.3792 27.1855 99.031 24.5247C100.744 17.5319 106.797 9.80331 113.294 6.31576C122.341 1.45987 134.589 1.04261 144.215 5.26215ZM104.877 15.1359C103.972 15.8722 103.673 16.4713 104.214 16.4672C104.755 16.464 105.664 15.8558 106.235 15.1164C107.555 13.409 106.991 13.4174 104.877 15.1359ZM137.251 14.1066C136.956 14.9654 137.164 15.3575 137.793 15.1228C139.08 14.6435 139.728 12.6387 138.582 12.6787C138.115 12.695 137.516 13.3377 137.251 14.1066ZM112.971 21.4653C112.19 22.8338 113.353 23.6583 114.433 22.5009C115.036 21.8536 115.034 21.3662 114.426 21.0194C113.928 20.7351 113.273 20.9359 112.971 21.4653ZM124.38 22.7674C124.101 23.2568 124.288 23.6427 124.794 23.625C125.301 23.6073 125.703 23.2008 125.686 22.7218C125.67 22.2427 125.484 21.8568 125.272 21.8642C125.06 21.8716 124.659 22.278 124.38 22.7674ZM141.8 22.1591C142.113 22.6278 142.737 22.9984 143.188 22.9827C143.64 22.9669 143.994 22.5621 143.978 22.0831C143.961 21.604 143.336 21.2334 142.589 21.2595C141.843 21.2855 141.487 21.6904 141.8 22.1591ZM140.554 23.9467C140.571 24.4258 140.977 24.804 141.456 24.7873C141.935 24.7706 142.313 24.3649 142.296 23.8859C142.28 23.4068 141.874 23.0286 141.395 23.0453C140.916 23.062 140.538 23.4677 140.554 23.9467ZM108.013 28.5714C107.734 29.0608 107.921 29.4467 108.428 29.429C108.935 29.4112 109.337 29.0048 109.32 28.5257C109.303 28.0467 109.117 27.6607 108.905 27.6681C108.694 27.6755 108.293 28.082 108.013 28.5714ZM181.391 27.4077C176.114 30.5117 181.065 35.0584 187.639 33.1449C192.093 31.8487 193.266 29.4898 190.503 27.3799C187.987 25.4577 184.69 25.4682 181.391 27.4077ZM187.83 27.5588C189.541 28.3998 190.205 30.5019 188.991 31.2402C186.848 32.5429 183.694 32.7289 182.17 31.6424C180.507 30.4577 180.518 30.3736 182.577 28.6143C185.031 26.5167 185.51 26.4206 187.83 27.5588ZM153.521 30.0684C152.757 32.2875 153.024 32.8441 153.99 31.0427C154.468 30.1505 154.669 29.2435 154.436 29.0275C154.205 28.8106 153.792 29.2794 153.521 30.0684ZM119.911 32.1316C119.937 32.8781 120.342 33.2337 120.81 32.9209C121.279 32.608 121.65 31.9837 121.634 31.5326C121.618 31.0814 121.213 30.7266 120.734 30.7433C120.255 30.7601 119.885 31.3852 119.911 32.1316ZM98.4082 36.7554C98.45 37.953 98.6648 38.4365 98.8852 37.8288C99.1064 37.222 99.0722 36.2421 98.8091 35.6513C98.5469 35.0614 98.3664 35.5578 98.4082 36.7554ZM137.527 37.1335C137.543 37.6125 137.973 37.99 138.479 37.9723C138.986 37.9546 139.146 37.5566 138.833 37.0879C138.52 36.6191 138.092 36.2417 137.88 36.2491C137.669 36.2564 137.51 36.6544 137.527 37.1335ZM99.6346 39.3872C99.3363 39.9086 99.3365 40.5627 99.6339 40.8401C99.9314 41.1175 100.158 40.8645 100.138 40.2775C100.117 39.6904 100.563 39.4734 101.128 39.7955C101.764 40.1596 101.905 40.0082 101.498 39.3989C100.684 38.1794 100.325 38.1771 99.6346 39.3872ZM97.1729 57.5712C99.9805 64.7741 105.301 85.3531 104.651 86.492C104.342 87.0331 103.927 90.2507 103.729 93.6412C103.53 97.0327 103.109 100.601 102.793 101.571C102.429 102.691 102.679 102.522 103.478 101.111C104.225 99.7938 104.678 96.7867 104.59 93.7324C104.356 85.6748 105.7 88.8902 106.107 97.3621C106.445 104.413 106.26 105.421 103.407 112.075C100.324 119.266 92.7305 129.04 87.4209 132.648C84.4641 134.657 83.3683 133.969 86.2662 131.923C89.2237 129.834 91.1808 127.44 93.3275 123.288C95.9187 118.276 94.963 118.851 91.9336 124.126C90.5476 126.54 87.9449 129.549 86.15 130.816C82.5524 133.354 77.5197 135.155 78.4171 133.582C78.7138 133.064 78.4572 132.482 77.8479 132.291C77.0014 132.025 77.0654 131.234 78.1206 128.937C82.0568 120.36 82.2157 106.156 78.539 91.6456C75.4481 79.4496 75.0768 70.6163 77.3676 63.7716C79.3844 57.7441 83.8318 52.2212 88.9588 49.3754C90.8631 48.3191 92.7119 46.9482 93.0679 46.3288C93.474 45.6222 94.0033 46.5944 94.4909 48.9442C94.9186 51.0021 96.1251 54.8843 97.1729 57.5712ZM142.23 45.1798C141.607 45.9846 141.366 46.893 141.693 47.1973C142.534 47.9824 144.207 45.9845 143.745 44.7457C143.48 44.0329 143.012 44.167 142.23 45.1798ZM99.8668 55.5263C99.9441 56.5396 100.158 56.7388 100.411 56.0349C100.641 55.3972 100.583 54.6466 100.284 54.3676C99.9849 54.0885 99.7973 54.6096 99.8668 55.5263ZM136.759 55.8923C136.091 57.8342 136.92 58.4017 138.133 56.8324C138.815 55.9496 138.832 55.3787 138.187 55.0105C137.671 54.7154 137.028 55.112 136.759 55.8923ZM83.0222 57.9319C82.7137 58.2619 82.4815 59.1028 82.5058 59.8005C82.5418 60.8291 82.7895 60.8554 83.8188 59.9386C84.5165 59.3169 85.0754 58.4645 85.0607 58.0447C85.0292 57.1424 83.8199 57.0756 83.0222 57.9319ZM90.2905 57.9685C90.3072 58.4475 90.7128 58.8258 91.1919 58.8091C91.6709 58.7924 92.0492 58.3867 92.0325 57.9077C92.0158 57.4286 91.6101 57.0503 91.1311 57.0671C90.652 57.0838 90.2737 57.4894 90.2905 57.9685ZM146.47 56.0067C146.191 56.496 146.354 56.8828 146.833 56.866C147.313 56.8493 147.933 56.4352 148.212 55.9458C148.492 55.4564 148.328 55.0697 147.849 55.0864C147.37 55.1032 146.75 55.5173 146.47 56.0067ZM105.699 58.0121C105.39 58.342 105.152 59.0175 105.17 59.5131C105.189 60.0583 105.593 59.9928 106.195 59.3465C106.743 58.7596 106.981 58.0842 106.725 57.8455C106.469 57.6067 106.006 57.6813 105.699 58.0121ZM129.09 57.4996C129.408 57.976 130.025 58.128 130.461 57.8363C131.643 57.0477 131.4 56.5329 129.87 56.5864C129.123 56.6124 128.772 57.0232 129.09 57.4996ZM77.5904 68.8768C77.6071 69.3559 78.0127 69.7341 78.4918 69.7174C78.9709 69.7007 79.3491 69.295 79.3324 68.816C79.3157 68.3369 78.91 67.9587 78.431 67.9754C77.9519 67.9921 77.5736 68.3978 77.5904 68.8768ZM91.7261 69.3119C90.5584 71.3358 91.2278 71.5505 92.9493 69.7044C93.6134 68.9923 93.8334 68.225 93.4383 67.999C93.0433 67.7738 92.2721 68.3641 91.7261 69.3119ZM121.789 73.4378C122.102 73.9065 122.53 74.284 122.742 74.2766C122.954 74.2692 123.112 73.8713 123.096 73.3922C123.079 72.9132 122.65 72.5357 122.143 72.5534C121.636 72.5711 121.476 72.9691 121.789 73.4378ZM72.5975 75.8097C72.6092 76.1695 74.1165 83.3986 75.9473 91.8748C78.578 104.051 79.0974 107.786 78.4226 109.666C76.5954 114.754 76.3779 115.665 77.3342 114.233C78.0668 113.137 78.2395 113.289 78.287 115.072C78.3735 118.297 76.3876 127.456 75.3637 128.554C74.1903 129.813 73.9266 123.237 75.0143 119.821C75.7514 117.506 75.72 117.456 74.5522 119.075C73.1115 121.073 73.0997 132.297 74.5391 131.336C76.1924 130.233 75.4937 134.575 73.1061 140.245C71.7773 143.4 70.7003 146.271 70.7127 146.625C70.725 146.979 69.465 149.556 67.9127 152.35C66.3594 155.144 65.4498 157.19 65.8912 156.896C68.2059 155.352 65.1175 161.558 62.1217 164.472C59.5888 166.935 59.9771 165.792 63.3037 160.986C64.4776 159.291 64.9266 158.239 64.3017 158.65C63.6768 159.06 61.8881 161.556 60.3259 164.195C58.7647 166.835 57.0098 169.025 56.426 169.063C55.1765 169.143 49.9073 173.609 51.1043 173.573C51.5521 173.56 52.7967 172.666 53.8691 171.585C54.9406 170.505 55.8189 169.983 55.8196 170.427C55.8234 172.984 41.05 181.709 36.3587 181.92C32.7575 182.084 26.5432 180.361 26.5023 179.189C26.4803 178.559 25.6697 177.823 24.701 177.552C23.2039 177.133 22.9207 176.318 22.8156 172.109L22.6915 167.157L24.553 171.017C25.5777 173.139 26.1268 173.905 25.7731 172.718C23.5719 165.322 23.7414 164.708 29.0574 160.808C35.4235 156.137 41.019 150.654 42.4054 147.726C44.431 143.45 45.7756 135.006 45.968 125.357C46.0723 120.078 46.5067 113.587 46.9321 110.935C47.8587 105.155 51.5005 93.8168 53.672 89.9484C57.2425 83.5875 72.4854 72.1998 72.5975 75.8097ZM79.6977 77.3059C79.7717 78.2242 79.9797 78.3879 80.2223 77.7184C80.4443 77.108 80.9914 76.8177 81.439 77.0733C81.8866 77.3289 82.2386 77.1221 82.2209 76.6152C82.2032 76.1082 81.6008 75.7133 80.8822 75.7384C80.1636 75.7635 79.631 76.4693 79.6977 77.3059ZM97.1345 79.1466C97.1606 79.8931 97.5654 80.2487 98.0341 79.9358C98.5028 79.6229 98.8735 78.9987 98.8577 78.5475C98.842 78.0963 98.4371 77.7416 97.9581 77.7583C97.479 77.775 97.1084 78.4002 97.1345 79.1466ZM113.784 79.4582C113.861 80.4715 114.074 80.6707 114.328 79.9668C114.558 79.3291 114.5 78.5786 114.201 78.2995C113.902 78.0204 113.714 78.5415 113.784 79.4582ZM85.0147 81.6986C85.0314 82.1776 85.633 82.549 86.3516 82.5239C87.0702 82.4989 87.6444 82.0864 87.6277 81.6073C87.611 81.1283 87.0093 80.7568 86.2908 80.7819C85.5722 80.807 84.9979 81.2195 85.0147 81.6986ZM129.44 81.1623C128.511 83.1421 128.535 83.1648 129.99 81.675C130.827 80.8173 131.264 79.8855 130.961 79.604C130.659 79.3224 129.975 80.0239 129.44 81.1623ZM66.7862 84.1307C66.8039 84.6376 67.2019 84.7973 67.6706 84.4844C68.1393 84.1715 68.5168 83.7433 68.5094 83.5316C68.502 83.3199 68.104 83.1612 67.625 83.1779C67.1459 83.1946 66.7685 83.6238 66.7862 84.1307ZM110.573 87.4189C110.651 88.4322 110.864 88.6314 111.118 87.9275C111.348 87.2899 111.29 86.5393 110.991 86.2602C110.691 85.9811 110.504 86.5022 110.573 87.4189ZM114.001 87.6629C114.035 88.621 114.454 89.3912 114.933 89.3745C115.412 89.3577 115.777 88.5602 115.743 87.602C115.71 86.6439 115.29 85.8737 114.811 85.8904C114.332 85.9072 113.968 86.7048 114.001 87.6629ZM89.9194 88.5474C90.2091 89.8777 91.7268 89.6852 92.0474 88.2769C92.2569 87.3574 92.1465 87.3682 91.5225 88.3284C90.9655 89.1859 90.5817 89.2577 90.2219 88.57C89.8921 87.9397 89.7854 87.9321 89.9194 88.5474ZM8.71004 93.2487C6.46154 95.837 6.5968 101.059 8.96351 103.054C10.4587 104.315 11.1388 104.362 13.7785 103.387C19.0666 101.435 19.8584 97.4901 15.7335 93.6435C12.5848 90.7073 10.9946 90.6181 8.71004 93.2487ZM58.4553 91.3467C58.4971 92.5444 58.7119 93.0278 58.9323 92.4201C59.1535 91.8133 59.1193 90.8334 58.8562 90.2426C58.5941 89.6527 58.4135 90.1491 58.4553 91.3467ZM15.7294 96.5224C17.0157 98.6445 17.0102 98.9874 15.661 100.434C13.5285 102.721 11.2048 101.109 10.7125 97.0002C10.3605 94.0631 10.5095 93.7832 12.3224 93.9798C13.4201 94.0984 14.9539 95.2431 15.7294 96.5224ZM61.8625 92.9719C61.8792 93.4509 62.2849 93.8292 62.7639 93.8125C63.243 93.7957 63.6212 93.3901 63.6045 92.911C63.5878 92.432 63.1821 92.0537 62.7031 92.0705C62.224 92.0872 61.8458 92.4928 61.8625 92.9719ZM95.923 94.3987C95.9397 94.8777 96.3453 95.256 96.8244 95.2392C97.3035 95.2225 97.6817 94.8169 97.665 94.3378C97.6483 93.8588 97.2426 93.4805 96.7636 93.4972C96.2845 93.514 95.9062 93.9196 95.923 94.3987ZM9.79619 100.728C9.82831 101.997 9.71069 102.025 8.94407 100.924C7.78182 99.2574 7.74155 98.1042 8.86803 98.7468C9.35742 99.0262 9.77487 99.9177 9.79619 100.728ZM68.2029 99.727C68.2196 100.206 68.6252 100.584 69.1043 100.568C69.5833 100.551 69.9616 100.145 69.9449 99.6662C69.9282 99.1871 69.5225 98.8089 69.0435 98.8256C68.5644 98.8423 68.1861 99.248 68.2029 99.727ZM81.2698 99.3221C81.2875 99.8291 81.6855 99.9887 82.1542 99.6758C82.6229 99.363 83.0004 98.9347 82.993 98.723C82.9856 98.5114 82.5876 98.3526 82.1085 98.3693C81.6295 98.3861 81.2521 98.8152 81.2698 99.3221ZM86.5548 100.83C86.5716 101.309 86.9537 101.688 87.4048 101.673C87.856 101.657 88.4529 101.244 88.7323 100.754C89.0118 100.265 88.6288 99.8858 87.8823 99.9119C87.1359 99.9379 86.5381 100.351 86.5548 100.83ZM103.639 104.376C103.301 105.227 103.116 106.264 103.226 106.68C103.337 107.095 102.769 108.292 101.964 109.34L100.5 111.244L102.261 109.439C103.23 108.445 104.235 106.546 104.497 105.218C105.031 102.496 104.565 102.04 103.639 104.376ZM71.2066 108.851C71.2838 109.864 71.4975 110.064 71.7511 109.36C71.9808 108.722 71.9232 107.972 71.624 107.692C71.3247 107.413 71.1371 107.934 71.2066 108.851ZM60.3983 110.028C60.1482 110.757 60.3229 111.339 60.7862 111.323C61.2505 111.307 61.6097 110.705 61.5846 109.987C61.5595 109.268 61.3848 108.686 61.1967 108.692C61.0085 108.699 60.6493 109.3 60.3983 110.028ZM96.8723 110.121C96.5739 110.643 96.5237 111.25 96.7598 111.471C96.996 111.691 97.4003 111.258 97.6585 110.509C98.1937 108.954 97.6826 108.701 96.8723 110.121ZM88.6636 111.273C88.6813 111.78 89.0793 111.939 89.5481 111.627C90.0168 111.314 90.3942 110.885 90.3868 110.674C90.3795 110.462 89.9815 110.303 89.5024 110.32C89.0234 110.337 88.6459 110.766 88.6636 111.273ZM83.4814 112.711C83.5065 113.429 83.919 114.003 84.3981 113.987C84.8771 113.97 85.2485 113.368 85.2234 112.65C85.1983 111.931 84.7859 111.357 84.3068 111.374C83.8278 111.39 83.4563 111.992 83.4814 112.711ZM98.2885 112.193C97.6986 112.957 97.4192 113.77 97.6671 114.001C97.915 114.232 98.6001 113.798 99.1899 113.034C99.7798 112.27 100.059 111.458 99.8114 111.226C99.5635 110.995 98.8784 111.43 98.2885 112.193ZM94.0728 113.986C92.5025 116.018 89.0915 123.799 90.3758 122.419C91.4458 121.269 95.7439 112.718 95.243 112.736C95.1281 112.74 94.6009 113.302 94.0728 113.986ZM49.7867 117.811C49.8285 119.009 50.0433 119.493 50.2637 118.885C50.4849 118.278 50.4507 117.298 50.1876 116.707C49.9255 116.117 49.7449 116.614 49.7867 117.811ZM44.1949 120.405C43.9606 122.212 43.8559 126.306 43.9623 129.503C44.129 134.502 43.8485 135.708 41.9583 138.12C40.7503 139.662 38.5586 141.53 37.089 142.272C35.0194 143.316 34.9041 143.486 36.5764 143.027C37.7641 142.701 39.5978 141.847 40.6524 141.129C42.9166 139.589 43.2695 140.731 41.144 142.72C38.4704 145.222 35.6124 146.415 31.9891 146.541C28.5904 146.661 28.5438 146.698 31.0177 147.319C32.4465 147.677 34.6066 147.728 35.818 147.431C37.6078 146.991 37.7563 147.073 36.6101 147.864C35.0041 148.973 33.1728 149.025 22.8913 148.254C17.8445 147.876 14.8433 147.19 13.3031 146.063C12.0699 145.162 10.4436 144.639 9.68886 144.903C8.93413 145.166 7.81347 145.09 7.20014 144.732C5.02823 143.471 1.52913 138.316 1.45778 136.273C1.39116 134.365 1.49995 134.309 2.84487 135.563C3.64804 136.312 4.54227 136.647 4.83307 136.309C5.12384 135.97 4.86623 135.535 4.25953 135.343C3.62017 135.139 3.10468 133.488 3.03226 131.414C2.91384 128.023 2.9818 127.922 4.33731 129.479C5.12406 130.382 5.50009 130.636 5.17332 130.044C4.04223 127.996 5.58052 125.423 9.13889 123.41C12.1842 121.687 14.3145 121.309 23.5928 120.846C30.6461 120.494 35.8373 119.789 38.3479 118.84C44.3738 116.562 44.6819 116.645 44.1949 120.405ZM58.0198 119.208C57.7593 119.664 57.9539 120.268 58.4514 120.552C58.9487 120.836 59.334 120.457 59.308 119.711C59.2545 118.18 58.7241 117.974 58.0198 119.208ZM33.8533 123.31C33.5448 123.64 33.3067 124.315 33.324 124.811C33.3431 125.356 33.7472 125.291 34.3499 124.644C34.8971 124.057 35.1351 123.382 34.8791 123.143C34.6231 122.905 34.1609 122.979 33.8533 123.31ZM37.6983 125.21C37.7151 125.689 38.1207 126.067 38.5997 126.051C39.0788 126.034 39.4571 125.628 39.4403 125.149C39.4236 124.67 39.018 124.292 38.5389 124.309C38.0599 124.325 37.6816 124.731 37.6983 125.21ZM65.694 127.772C65.7117 128.279 66.1097 128.439 66.5784 128.126C67.0471 127.813 67.4246 127.385 67.4172 127.173C67.4098 126.961 67.0118 126.803 66.5328 126.819C66.0537 126.836 65.6763 127.265 65.694 127.772ZM86.1912 127.877C85.358 128.865 84.1712 129.692 83.5554 129.713C82.9396 129.735 82.2069 130.153 81.9274 130.642C81.648 131.132 81.8281 131.518 82.328 131.5C83.2809 131.467 89.1282 126.1 88.2261 126.087C87.9408 126.083 87.0244 126.889 86.1912 127.877ZM127.85 125.755C127.151 126.98 129.327 128.085 132.269 127.999C133.834 127.952 134.594 127.539 134.346 126.872C133.839 125.513 128.511 124.597 127.85 125.755ZM22.9369 133.279C23.5446 133.501 24.5245 133.466 25.1145 133.203C25.7053 132.941 25.208 132.761 24.0104 132.802C22.8127 132.844 22.3301 133.059 22.9369 133.279ZM38.8431 133.019C38.8598 133.498 39.2889 133.875 39.7959 133.858C40.3028 133.84 40.4625 133.442 40.1496 132.973C39.8367 132.504 39.4084 132.127 39.1968 132.134C38.9851 132.142 38.8263 132.54 38.8431 133.019ZM72.5149 134.204C72.0862 135.461 72.1889 135.558 73.0197 134.674C73.5948 134.062 73.8376 133.35 73.56 133.092C73.2824 132.833 72.8124 133.333 72.5149 134.204ZM6.45971 140.336C7.92216 142.009 9.28927 143.224 9.49811 143.036C9.70696 142.848 8.50978 141.48 6.83848 139.995L3.80008 137.295L6.45971 140.336ZM70.5427 138.985C70.0599 140.543 69.8226 141.965 70.0155 142.145C70.2084 142.325 70.7612 141.197 71.244 139.639C71.7267 138.081 71.964 136.659 71.7711 136.48C71.5782 136.3 71.0255 137.427 70.5427 138.985ZM12.8429 141.35C14.9697 142.468 17.156 143.369 17.7021 143.35C18.2482 143.331 16.8204 142.399 14.5288 141.28C9.13107 138.644 7.8057 138.699 12.8429 141.35ZM52.5293 141.735C52.2712 142.484 52.304 143.324 52.6006 143.601C53.2433 144.2 55.731 142.142 55.6926 141.045C55.6467 139.729 53.0226 140.303 52.5293 141.735ZM54.8388 141.565C54.8461 141.777 54.4687 142.205 54 142.518C53.5312 142.831 53.1332 142.671 53.1155 142.165C53.0978 141.658 53.4753 141.228 53.9543 141.212C54.4334 141.195 54.8314 141.354 54.8388 141.565ZM22.2245 144.094C25.6993 144.707 34.6498 144.796 33.9291 144.211C33.7236 144.044 30.2158 143.811 26.1348 143.692C20.9556 143.542 19.7747 143.664 22.2245 144.094ZM59.243 142.823C59.2607 143.33 59.6587 143.489 60.1274 143.176C60.5961 142.863 60.9736 142.435 60.9662 142.224C60.9588 142.012 60.5608 141.853 60.0818 141.87C59.6027 141.887 59.2253 142.316 59.243 142.823ZM118.254 140.78C116.392 141.954 116.423 145.638 118.3 146.284C119.068 146.548 121.036 146.718 122.673 146.661C125.035 146.578 125.638 146.209 125.592 144.874C125.559 143.949 124.366 142.421 122.941 141.478C119.965 139.512 120.209 139.549 118.254 140.78ZM12.9515 147.532C12.3631 148.162 9.68165 147.019 9.65039 146.123C9.63484 145.678 10.4544 145.724 11.473 146.224C12.4907 146.724 13.1557 147.312 12.9515 147.532ZM123.27 143.065C125.142 144.994 124.044 146.032 120.852 145.348C118.713 144.89 117.908 143.414 119.101 142.135C120.094 141.069 121.675 141.422 123.27 143.065ZM138.194 143.638C133.839 146.221 133.13 151.635 136.733 154.79C141.551 159.01 153.064 157.267 152.883 152.344C152.803 150.154 149.703 144.965 147.535 143.394C145.78 142.122 140.517 142.259 138.194 143.638ZM147.056 146.746C147.804 148.076 148.443 149.967 148.478 150.948C148.532 152.5 147.993 152.753 144.379 152.879C137.648 153.114 133.98 149.354 137.62 145.951C140.915 142.874 145.076 143.224 147.056 146.746ZM44.2083 150.331C43.3651 151.808 44.1743 151.981 45.3768 150.58C45.9718 149.889 46.0737 149.336 45.6034 149.352C45.1339 149.368 44.5057 149.809 44.2083 150.331ZM45.3563 157.209C45.0769 157.699 45.2639 158.085 45.7708 158.067C46.2777 158.049 46.6795 157.643 46.6628 157.164C46.646 156.685 46.4599 156.299 46.2482 156.306C46.0366 156.313 45.6357 156.72 45.3563 157.209ZM32.0856 164.265C32.1117 165.011 32.5165 165.367 32.9852 165.054C33.4539 164.741 33.8246 164.117 33.8088 163.666C33.793 163.214 33.3882 162.86 32.9092 162.876C32.4301 162.893 32.0595 163.518 32.0856 164.265ZM57.2391 163.553C56.2047 164.972 56.2362 165.001 57.5798 163.871C58.9912 162.681 59.427 161.95 58.7101 161.975C58.5298 161.982 57.8674 162.692 57.2391 163.553ZM53.8767 167.158C52.8423 168.578 52.8738 168.607 54.2175 167.476C55.6288 166.287 56.0646 165.556 55.3478 165.581C55.1675 165.587 54.5051 166.298 53.8767 167.158ZM39.8836 175.303C37.9915 176.06 34.878 176.803 32.9647 176.954C29.5052 177.226 29.5026 177.229 32.4932 177.487C35.6588 177.76 42.6752 175.905 43.4214 174.599C43.9622 173.651 44.0592 173.632 39.8836 175.303ZM26.3789 175.656C26.3855 175.844 27.007 176.211 27.7608 176.47C28.5464 176.74 28.8905 176.582 28.5685 176.099C28.0283 175.289 26.3543 174.951 26.3789 175.656ZM40.6739 178.405C40.0906 179.031 37.4092 179.362 33.5945 179.28C30.2179 179.207 27.9366 179.431 28.526 179.777C30.4536 180.91 40.0468 180.15 41.7988 178.727C42.7036 177.991 43.0323 177.391 42.5292 177.393C42.0261 177.395 41.1909 177.851 40.6739 178.405Z" fill="#fff"/>
</svg>
