<svg width="209" height="180" viewBox="0 0 209 180" fill="none" xmlns="http://www.w3.org/2000/svg">
<path fill-rule="evenodd" clip-rule="evenodd" d="M125.968 1.22762C122.157 2.00343 115.246 4.68029 110.813 7.09917C105.532 9.98025 96.5266 19.0512 92.9719 25.0724C89.4322 31.0685 85.2089 42.5944 85.3258 45.9402C85.4362 49.1034 85.5804 49.0773 78.9153 47.1031C71.6692 44.9567 54.2013 43.2745 48.3553 44.1592C37.6525 45.7797 18.4521 56.2714 11.4264 64.3386C1.00149 76.3087 -2.77217 97.0308 2.77839 111.832C5.80238 119.896 8.63257 124.174 15.2336 130.659C18.0852 133.461 23.1235 138.627 26.4298 142.138C33.1741 149.302 39.3301 153.11 48.7096 155.922C52.207 156.971 56.7668 159.112 58.842 160.68C66.5217 166.482 71.3686 168.107 81.6067 168.311C86.7319 168.414 91.7725 168.938 92.8085 169.475C93.8454 170.013 97.4267 170.594 100.767 170.768C104.404 170.957 108.633 171.866 111.306 173.032C117.737 175.84 135.509 179.654 141.233 179.454C145.431 179.307 146.366 178.956 147.808 176.985C148.732 175.721 149.714 173.412 149.988 171.853C150.263 170.294 150.964 168.409 151.548 167.663C153.868 164.694 160.151 149.206 160.063 146.673C159.996 144.752 160.807 143.103 162.882 140.946C164.484 139.281 166.582 135.866 167.543 133.358C168.506 130.849 170.189 127.771 171.286 126.516C173.471 124.015 175.755 117.668 175.642 114.409C175.602 113.27 176.734 110.288 178.157 107.782C181.893 101.208 183.707 93.6797 183.454 85.7998C183.298 80.9237 183.696 77.9661 184.898 75.0569C189.254 64.5226 190.512 46.3916 187.558 36.7166C184.774 27.5976 176.412 15.7173 168.756 10.0005C163.722 6.24248 155.056 2.43634 148.615 1.15337C143.504 0.134325 131.138 0.175738 125.968 1.22762ZM147.768 2.06221C154.77 3.45659 163.215 7.33021 167.503 11.1134C175.637 18.2906 176.893 19.5735 179.88 23.7494C185.584 31.7246 187.42 37.8531 187.845 50.335C188.177 60.1244 187.984 61.9978 186.062 67.642C182.699 77.5156 178.309 85.328 171.99 92.6855C168.795 96.4055 165.794 99.4637 165.323 99.4802C164.852 99.4966 164.676 99.1431 164.932 98.6937C165.537 97.6351 164.465 95.1139 163.426 95.1502C162.985 95.1656 162.189 96.2256 161.659 97.5067C160.844 99.4721 160.938 99.9991 162.253 100.892C163.89 102.004 164.363 101.618 148.449 112.155C146.718 113.301 144.128 114.634 142.695 115.118C141.261 115.602 139.434 116.292 138.636 116.653C137.485 117.171 137.27 116.926 137.598 115.465C137.834 114.411 137.592 113.637 137.031 113.657C136.081 113.69 135.749 114.818 136.077 116.903C136.241 117.947 123.347 123.807 120.681 123.9C119.853 123.929 118.812 124.322 118.369 124.774C117.925 125.227 116.78 125.847 115.823 126.153C114.867 126.459 115.701 126.473 117.677 126.183C119.653 125.894 124.928 123.995 129.399 121.963C133.871 119.933 139.53 117.539 141.975 116.646C144.421 115.753 148.696 113.535 151.475 111.718C159.435 106.517 162.976 104.722 164.061 105.342C164.673 105.691 164.807 105.527 164.403 104.924C164.025 104.356 164.262 103.913 164.958 103.889C165.626 103.866 167.096 102.788 168.223 101.493C169.35 100.199 171.352 98.5302 172.672 97.7833C174.05 97.0046 174.8 96.0209 174.433 95.4718C174.037 94.8772 174.206 94.75 174.881 95.1353C175.536 95.5098 176.778 94.7384 178.024 93.1826C179.992 90.7267 180.087 90.6988 180.153 92.557C180.319 97.2323 175.309 110.005 172.102 113.085C167.248 117.746 164.973 118.686 155.611 119.901C140.173 121.902 113.396 129.964 91.6582 139.154L87.326 140.987L91.2155 140.324C93.3552 139.96 95.5084 139.306 96.0005 138.87C97.6184 137.436 108.005 134.761 110.162 135.223C111.495 135.509 112.763 135.15 113.603 134.249C114.81 132.954 115.036 132.956 116.071 134.271C116.697 135.068 117.655 135.422 118.199 135.06C119.663 134.083 119.347 132.739 117.667 132.797C116.862 132.825 116.375 132.665 116.584 132.44C116.898 132.104 129.269 128.794 135.824 127.293C136.763 127.078 138.341 126.614 139.33 126.262C140.746 125.757 141.023 125.927 140.635 127.058C140.261 128.142 140.673 128.477 142.307 128.42C143.89 128.365 144.459 127.87 144.414 126.588C144.38 125.618 144.938 124.811 145.659 124.786C146.474 124.757 146.913 125.45 146.823 126.627C146.744 127.664 147.187 128.608 147.808 128.725C148.428 128.841 148.524 128.749 148.02 128.521C146.483 127.824 146.949 126.516 148.54 127.064C149.669 127.452 149.88 127.225 149.414 126.127C148.967 125.073 149.272 124.66 150.527 124.616C151.479 124.583 152.277 125.148 152.302 125.873C152.328 126.597 152.743 127.176 153.226 127.159C153.709 127.142 154.076 126.296 154.04 125.278C153.999 124.11 154.407 123.577 155.145 123.83C156.692 124.364 165.672 122.383 166.242 121.383C166.79 120.423 170.603 121.18 170.64 122.258C170.655 122.684 170.272 123.047 169.789 123.064C169.306 123.081 168.929 123.602 168.95 124.222C168.996 125.539 165.298 128.007 161.862 128.953C160.049 129.452 159.455 129.288 159.42 128.279C159.395 127.545 159.821 127.028 160.369 127.13C160.917 127.232 161.529 126.815 161.729 126.203C162.277 124.531 160.031 124.977 157.618 127.019C155.914 128.461 155.733 128.977 156.723 129.572C157.601 130.1 156.846 130.538 154.138 131.076C152.033 131.493 146.038 134.08 140.815 136.825C131.511 141.714 123.5 144.903 120.236 145.017C119.334 145.049 116.965 145.941 114.97 147.001C112.975 148.061 106.943 150.25 101.565 151.865C93.864 154.179 89.9183 154.868 82.9938 155.11C75.7638 155.363 74.1934 155.183 74.1556 154.1C74.0946 152.353 72.6705 152.463 72.051 154.262C71.6375 155.464 70.5611 155.632 65.1805 155.341C61.6709 155.151 56.809 154.634 54.3756 154.19C48.7416 153.164 40.0189 149.195 38.5251 146.978C37.8926 146.04 37.052 145.284 36.6559 145.298C36.2608 145.312 36.2215 145.748 36.5685 146.268C37.0241 146.951 36.6877 146.962 35.3512 146.306C34.3359 145.807 33.2092 144.916 32.8493 144.328C32.3317 143.48 32.4494 143.477 33.4149 144.312C34.949 145.64 36.3666 145.648 35.4833 144.323C35.0678 143.702 35.2156 143.557 35.8786 143.936C36.46 144.267 38.1555 144.227 39.6456 143.844C41.6552 143.329 42.0336 142.958 41.1122 142.407C39.5363 141.466 51.4145 141.857 57.5943 142.951C60.1272 143.399 66.9623 143.419 73.148 142.997C83.4072 142.296 84.2174 142.359 84.6754 143.891C85.2875 145.936 87.0244 144.939 86.9424 142.591C86.8842 140.926 86.4201 140.903 73.5917 141.931C64.2232 142.682 60.4628 142.713 60.8488 142.035C61.1504 141.507 64.8446 140.687 69.0581 140.213C74.7631 139.571 78.1204 138.648 82.2156 136.597C85.24 135.082 88.3103 133.823 89.04 133.797C90.1351 133.759 90.162 133.522 89.1947 132.436C88.242 131.366 88.2298 130.915 89.1323 130.02C90.0204 129.138 90.1408 129.237 89.7381 130.521C89.439 131.473 89.5793 131.893 90.0837 131.556C90.5511 131.245 90.9126 130.391 90.8871 129.66C90.8169 127.65 87.8207 128.716 87.5912 130.833C87.1931 134.515 82.1169 136.267 63.9562 138.991C58.7301 139.775 53.3799 139.901 45.9465 139.416C36.1257 138.774 34.8826 138.478 28.5153 135.26C16.2621 129.068 7.29295 119.829 4.54558 110.572C2.6192 104.077 2.03626 89.6486 3.45081 83.4752C6.14961 71.7028 12.9451 62.935 25.4949 55.0372C38.4163 46.904 48.0898 44.0814 59.2996 45.1715C77.6591 46.9571 83.6786 49.1297 83.8498 54.0308C83.8992 55.4446 83.7358 56.6083 83.4873 56.617C83.2388 56.6257 80.8035 55.4745 78.0767 54.0583C73.9933 51.9386 72.1569 51.5191 67.6758 51.6817C62.688 51.8638 54.1929 53.7827 55.0081 54.5429C55.1981 54.7201 56.91 54.4457 58.8124 53.9344C64.2592 52.4693 67.7526 52.6225 71.8119 54.5048C77.8892 57.3233 83.3204 61.2565 82.8837 62.5229C82.6634 63.1628 82.8667 63.6727 83.3339 63.6563C83.802 63.64 84.1711 63.2314 84.1542 62.7484C84.1374 62.2654 84.5187 61.8565 85.0017 61.8396C85.4847 61.8227 85.901 62.414 85.9269 63.1534C85.9527 63.8937 86.5763 64.7064 87.3132 64.9594C88.0492 65.2133 89.2307 66.643 89.938 68.1376C92.4849 73.5176 93.3869 75.2007 94.5268 76.6987C95.4207 77.8747 95.4507 78.3809 94.6569 78.916C93.9783 79.3731 93.9224 80.0398 94.4915 80.8746C95.217 81.9377 95.3492 81.8944 95.3155 80.6031C95.293 79.758 95.622 79.0537 96.0461 79.0389C97.2949 78.9953 99.0728 81.4171 98.6992 82.6532C98.5092 83.2806 99.294 85.1805 100.442 86.8743C101.589 88.5681 103.716 92.9595 105.166 96.6342C107.279 101.984 107.631 103.732 106.936 105.41C106.077 107.483 106.023 107.492 101.87 106.284C98.7854 105.387 95.8827 103.394 90.9186 98.7637C87.2033 95.2999 83.5691 92.3987 82.8436 92.3185C82.1172 92.2375 78.8842 89.972 75.6594 87.2842C72.4345 84.5964 69.6371 82.5681 69.4422 82.7763C68.9574 83.297 83.2904 96.526 87.184 99.1517C91.3116 101.935 102.589 112.264 102.625 113.294C102.663 114.388 99.1913 113.337 96.4214 111.416C95.1734 110.549 92.0976 107.672 89.587 105.021C77.8342 92.6113 75.7489 90.5792 72.5585 88.4265C69.5735 86.4118 68.6193 84.844 68.9048 82.4214C68.947 82.0664 67.8736 81.1411 66.5198 80.3663C65.1659 79.5906 63.0402 78.1402 61.7964 77.1417C57.581 73.7596 51.2971 72.276 42.7353 72.64C31.9323 73.1008 27.3876 73.7607 27.4262 74.8645C27.4441 75.3774 25.922 77.5645 24.0437 79.7253C19.7217 84.6972 18.359 87.5971 17.4373 93.7831C16.567 99.628 18.8541 110.107 21.7478 113.533C23.1153 115.152 23.2714 115.846 22.4734 116.763C21.6585 117.7 21.8431 117.824 23.3975 117.392C24.9336 116.965 26.5185 117.986 30.9991 122.29C39.9148 130.853 41.4065 131.272 59.5268 130.287L74.7275 129.461L74.4179 131.45C74.0488 133.822 75.3978 134.003 77.0064 131.799C78.0493 130.368 78.0175 130.339 76.6628 131.479C75.8403 132.172 75.1543 132.343 75.1374 131.86C75.0778 130.153 77.319 129.17 84.2302 127.87C88.0736 127.147 92.6926 126.073 94.4956 125.483C97.3661 124.544 97.933 124.614 99.0654 126.049C100.31 127.626 100.388 127.6 101.155 125.36C102.387 121.764 106.392 120.461 106.503 123.623C106.557 125.187 106.775 125.302 107.857 124.339C108.708 123.581 108.85 122.857 108.275 122.21C107.654 121.513 109.936 119.988 116.212 116.91C121.363 114.383 125.266 112.935 125.611 113.424C126.413 114.56 128.147 113.302 127.603 111.98C127.356 111.377 129.385 109.606 132.334 107.852C135.174 106.162 137.511 105.157 137.527 105.618C137.543 106.08 137.158 106.673 136.672 106.936C136.185 107.198 136.288 107.294 136.899 107.148C137.51 107.002 138.13 106.124 138.276 105.197C138.423 104.27 139.277 102.957 140.175 102.281C141.073 101.605 143.571 99.4124 145.727 97.4107C148.043 95.2601 150.188 93.9568 150.968 94.225C151.901 94.5468 152.116 94.2746 151.7 93.2947C151.322 92.4014 152.431 90.2481 154.82 87.2403C162.48 77.5965 169.922 63.0233 171.324 54.9213C172.34 49.0493 170.981 33.6458 169.202 30.8688C168.578 29.8953 168.516 30.3951 168.996 32.529C171.519 43.7383 168.126 62.6904 162.263 70.1322C160.863 71.9106 160.846 71.9032 161.264 69.7275C163.614 57.4687 164.008 52.8336 163.359 45.0432C162.485 34.5245 159.549 28.7229 153.224 25.0109C149.598 22.8822 148.503 22.6936 141.235 22.9474C134.379 23.1868 132.593 23.5763 128.728 25.6729C124.219 28.1208 120.743 32.0335 119.745 35.7876C118.991 38.6213 119.937 38.2313 121.421 35.0977C123.089 31.5761 126.661 28.0399 130.25 26.3565C134.195 24.5051 147.129 24.0728 150.517 25.6778C154.677 27.648 159.382 33.4591 160.717 38.2747C163.659 48.8918 160.481 71.3832 154.974 78.9075C153.634 80.7401 152.55 82.6085 152.566 83.0608C152.581 83.5131 151.922 84.4496 151.1 85.1422C149.799 86.2374 149.732 86.2248 150.579 85.0478C151.114 84.3038 151.768 82.1048 152.033 80.1612L152.514 76.6274L150.294 81.3667C148.003 86.2553 146.695 87.2479 148.143 82.9998C149.695 78.4439 148.859 71.7503 146.302 68.2558C143.663 64.6507 143.814 64.7008 140.103 66.1915C134.443 68.4642 132.119 75.6673 132.124 90.9273C132.126 98.3894 131.925 99.4049 130.157 100.867C128.047 102.611 125.523 103.098 124.733 101.913C124.467 101.514 124.985 99.0257 125.885 96.3829C126.978 93.1751 127.316 90.5343 126.905 88.4358C126.2 84.8344 122.844 77.5527 121.549 76.8136C120.277 76.0878 120.496 76.9735 122.479 80.569C125.296 85.6775 125.927 90.5353 124.433 95.6194C123.713 98.0695 122.859 100.067 122.535 100.057C121.691 100.032 115.314 90.7283 114.032 87.6526C113.439 86.2278 112.042 83.7136 110.928 82.0644C108.724 78.8002 104.366 68.6853 102.073 61.5107C100.012 55.064 100.965 44.1113 104.288 36.0451C105.657 32.7212 106.901 28.3835 107.05 26.407C107.199 24.4297 107.115 23.6114 106.865 24.5873C106.615 25.5632 105.495 27.5287 104.377 28.9561C102.287 31.6237 99.6007 36.7108 100.295 36.6866C100.51 36.6791 101.504 35.2384 102.505 33.4854C105.005 29.1038 105.751 30.3501 103.533 35.2063C100.127 42.6678 98.8411 54.74 100.755 61.2895C102.657 67.7946 107.633 79.5927 110.348 84.0357C111.915 86.5976 113.213 89.1724 113.233 89.7582C113.293 91.4671 120.226 100.903 122.813 102.795C126.427 105.44 125.686 106.458 121.867 104.094C117.856 101.61 116.264 99.8358 111.903 92.9928C105.426 82.8315 101.177 74.5391 100.319 70.39C99.8386 68.0697 98.9549 65.1991 98.3542 64.0111L97.2624 61.8511L97.8757 64.0278C98.2138 65.2249 98.9356 68.2982 99.4813 70.8571C100.027 73.416 101.757 77.8468 103.326 80.7032C107.152 87.666 106.262 88.1139 102.172 81.2851C100.385 78.3018 97.837 74.0789 96.5107 71.9008C89.4781 60.3574 89.3331 59.9826 89.081 52.7622C88.7926 44.503 90.6037 36.2671 94.6061 27.632C98.0067 20.2946 101.127 16.6801 107.892 12.2401C122.762 2.48085 134.645 -0.552512 147.768 2.06221ZM128.842 7.99331C128.868 8.7178 129.481 9.28987 130.206 9.26457C130.93 9.23927 131.502 8.6258 131.477 7.90131C131.452 7.17681 130.838 6.60474 130.114 6.63004C129.389 6.65534 128.817 7.26881 128.842 7.99331ZM191.2 7.94617C188.11 11.2598 188.111 14.4884 191.201 17.3699C193.995 19.976 197.206 19.4735 200.12 15.9735C202.649 12.9353 202.415 9.78957 199.467 7.24332C196.322 4.52724 194.222 4.70522 191.2 7.94617ZM197.507 8.70365C201.085 10.4612 198.971 16.535 194.728 16.6832C191.969 16.7795 189.989 12.8981 191.805 10.9514C192.508 10.1979 193.07 9.21377 193.054 8.7659C193.017 7.68047 195.356 7.64803 197.507 8.70365ZM162.84 12.2029C170.877 18.6274 173.58 21.4082 175.36 25.0793C177.942 30.4079 178.832 39.194 177.42 45.4394C176.812 48.1291 176.622 51.1032 176.996 52.0486C177.522 53.3789 177.755 52.9699 178.023 50.2384C178.214 48.2974 178.708 44.0527 179.122 40.8061C180.65 28.8345 176.533 20.0732 166.009 12.8994C160.976 9.4676 158.829 8.99656 162.84 12.2029ZM121.138 13.9775C121.155 14.4605 121.564 14.8418 122.047 14.825C122.53 14.8081 122.911 14.3991 122.894 13.9161C122.878 13.4331 122.469 13.0518 121.986 13.0686C121.503 13.0855 121.121 13.4945 121.138 13.9775ZM151.036 14.065C151.043 14.2652 153.141 15.6304 155.698 17.0983C158.255 18.567 159.884 19.2487 159.318 18.6126C158.239 17.4017 151.014 13.4336 151.036 14.065ZM128.286 17.2448C128.303 17.7278 128.712 18.1092 129.195 18.0924C129.678 18.0755 130.059 17.6665 130.042 17.1835C130.026 16.7005 129.617 16.3191 129.134 16.336C128.651 16.3529 128.269 16.7618 128.286 17.2448ZM109.814 20.2323C108.758 21.6073 108.844 21.6316 110.815 20.5173C113.706 18.8847 113.919 18.6258 112.324 18.6815C111.579 18.7075 110.449 19.4056 109.814 20.2323ZM147.259 19.2201C146.977 19.7135 147.166 20.1026 147.677 20.0847C148.188 20.0669 148.593 19.6571 148.576 19.1741C148.559 18.6911 148.372 18.302 148.158 18.3094C147.945 18.3169 147.541 18.7266 147.259 19.2201ZM117.746 23.838C115.579 25.2035 115.936 27.3602 118.303 27.2037C120.186 27.079 120.194 27.0409 118.494 26.3793C116.97 25.7863 116.934 25.6688 118.246 25.5703C119.09 25.5074 119.76 24.8624 119.734 24.1379C119.681 22.6011 119.703 22.6047 117.746 23.838ZM163.67 23.3756C163.677 23.5573 164.392 24.2252 165.261 24.8587C166.692 25.9016 166.721 25.8698 165.581 24.5152C164.382 23.0922 163.645 22.6528 163.67 23.3756ZM159.373 26.2188C159.399 26.9714 159.816 27.574 160.299 27.5572C160.782 27.5403 161.164 27.155 161.149 26.7001C161.133 26.2452 160.716 25.6434 160.223 25.3617C159.729 25.08 159.347 25.4662 159.373 26.2188ZM114.093 38.8425C114.11 39.3255 114.519 39.7068 115.002 39.69C115.485 39.6731 115.866 39.2641 115.849 38.7811C115.833 38.2981 115.424 37.9168 114.941 37.9336C114.458 37.9505 114.076 38.3595 114.093 38.8425ZM137.365 38.0298C137.68 38.5024 138.112 38.883 138.325 38.8755C138.539 38.8681 138.699 38.4668 138.682 37.9838C138.665 37.5008 138.233 37.1203 137.721 37.1381C137.21 37.156 137.049 37.5572 137.365 38.0298ZM131.214 39.1827C130.913 39.7085 130.886 40.3425 131.153 40.5917C131.804 41.1985 133.478 40.0304 133.442 38.9942C133.403 37.8719 131.89 37.9994 131.214 39.1827ZM117.08 43.3542C116.174 47.8138 116.243 60.5288 117.169 59.5355C117.522 59.1565 117.924 55.2025 118.061 50.7488C118.198 46.2958 118.596 41.949 118.946 41.0909C119.314 40.1856 119.216 39.5428 118.713 39.5604C118.235 39.5771 117.501 41.2847 117.08 43.3542ZM107.819 47.8444C107.529 48.3522 107.887 48.4874 108.658 48.1606C110.158 47.5235 110.415 46.8842 109.152 46.9283C108.697 46.9442 108.098 47.3564 107.819 47.8444ZM46.9287 52.2515C47.0065 53.2731 47.2219 53.474 47.4776 52.7643C47.7093 52.1214 47.6512 51.3646 47.3495 51.0832C47.0478 50.8019 46.8586 51.3272 46.9287 52.2515ZM138.172 48.5526C138.189 49.0356 138.574 49.4178 139.029 49.4019C139.484 49.3861 140.086 48.9694 140.367 48.476C140.649 47.9825 140.263 47.6003 139.51 47.6266C138.758 47.6529 138.155 48.0696 138.172 48.5526ZM90.8576 53.2822C90.8829 54.0067 91.2988 54.5857 91.7818 54.5688C92.2648 54.552 92.6393 53.9454 92.614 53.2209C92.5887 52.4964 92.1728 51.9174 91.6898 51.9343C91.2068 51.9512 90.8323 52.5577 90.8576 53.2822ZM143.533 51.0032C143.55 51.4861 143.983 51.8667 144.494 51.8489C145.005 51.831 145.166 51.4297 144.85 50.9572C144.535 50.4846 144.103 50.104 143.89 50.1114C143.676 50.1189 143.516 50.5202 143.533 51.0032ZM101.973 56.8507C102.288 57.3233 102.72 57.7039 102.933 57.6964C103.147 57.689 103.307 57.2877 103.29 56.8047C103.273 56.3217 102.841 55.9412 102.33 55.959C101.818 55.9769 101.657 56.3781 101.973 56.8507ZM108.48 57.4183C109.212 57.8464 109.456 58.6398 109.078 59.3617C108.584 60.3057 108.682 60.3418 109.51 59.5216C110.69 58.3532 109.932 56.5649 108.288 56.6434C107.601 56.6762 107.667 56.942 108.48 57.4183ZM176.127 60.1908C174.978 63.4983 173.637 68.1963 173.147 70.6314C172.03 76.1789 171.226 77.9804 168.441 81.1831C166.858 83.0013 166.662 83.5471 167.758 83.0824C169.989 82.1358 173.069 75.8762 174.49 69.4019C175.168 66.3105 176.438 61.7635 177.312 59.2975C178.185 56.8323 178.747 54.6718 178.559 54.4963C178.37 54.3209 177.276 56.8834 176.127 60.1908ZM34.6498 63.2972C34.0336 63.9588 35.7305 66.1979 36.8195 66.1599C37.198 66.1467 37.2731 65.3527 36.9873 64.3955C36.4548 62.6161 35.6413 62.2339 34.6498 63.2972ZM45.4837 63.2196C45.5006 63.7026 45.9096 64.084 46.3926 64.0671C46.8756 64.0502 47.257 63.6413 47.2401 63.1583C47.2232 62.6753 46.8143 62.2939 46.3313 62.3108C45.8483 62.3276 45.4669 62.7366 45.4837 63.2196ZM133.302 60.1529C133.318 60.6359 133.727 61.0173 134.21 61.0004C134.693 60.9836 135.075 60.5746 135.058 60.0916C135.041 59.6086 134.632 59.2272 134.149 59.2441C133.666 59.261 133.285 59.6699 133.302 60.1529ZM19.6388 65.8806C19.3571 66.374 19.7195 66.7571 20.444 66.7318C21.1685 66.7065 21.9917 66.282 22.2734 65.7886C22.5551 65.2952 22.1927 64.9122 21.4682 64.9375C20.7437 64.9628 19.9205 65.3872 19.6388 65.8806ZM42.0324 65.0986C42.0492 65.5816 42.4582 65.963 42.9412 65.9461C43.4242 65.9293 43.8056 65.5203 43.7887 65.0373C43.7719 64.5543 43.3629 64.1729 42.8799 64.1898C42.3969 64.2066 42.0155 64.6156 42.0324 65.0986ZM56.9431 64.0521C56.9498 64.2462 58.2551 64.7889 59.8427 65.2574C62.4839 66.0374 62.5812 66.0041 60.9799 64.8643C59.3668 63.716 56.9141 63.2231 56.9431 64.0521ZM27.5591 67.439C27.2533 67.9755 27.5163 68.857 28.1444 69.3969C29.0274 70.1574 29.1226 70.1145 28.5642 69.2073C28.1364 68.5135 28.3244 67.7051 29.0252 67.2269C29.8032 66.6951 29.8501 66.4253 29.1622 66.4405C28.5867 66.4536 27.8656 66.9025 27.5591 67.439ZM151.64 65.2276C152.002 67.1494 152.45 68.8817 152.634 69.0766C153.325 69.8077 152.663 65.1216 151.84 63.4622C151.243 62.2573 151.183 62.7923 151.64 65.2276ZM40.3833 68.2336C40.4086 68.9581 40.8245 69.537 41.3075 69.5202C41.7905 69.5033 42.165 68.8967 42.1397 68.1722C42.1144 67.4478 41.6985 66.8688 41.2155 66.8856C40.7325 66.9025 40.358 67.5091 40.3833 68.2336ZM20.7882 71.9539C19.5501 72.4535 19.4101 72.7995 20.2525 73.2801C20.8787 73.638 21.8105 73.4824 22.3207 72.9353C23.5717 71.5938 22.8414 71.1269 20.7882 71.9539ZM35.0477 71.2186C35.6897 71.4502 36.4465 71.3922 36.7278 71.0904C37.0092 70.7887 36.4838 70.5995 35.5596 70.6696C34.538 70.7475 34.3371 70.9629 35.0477 71.2186ZM76.1933 69.7676C75.1432 70.8928 75.655 71.3972 77.8962 71.4482C79.7124 71.4903 79.93 71.2778 79.0671 70.3083C77.9021 69.0002 77.0569 68.8415 76.1933 69.7676ZM145.018 68.3604C145.049 69.2298 145.548 70.3835 146.128 70.9243C149.227 73.8143 144.894 92.2803 141.085 92.4133C140.092 92.448 140.518 88.3772 142.05 83.2047C143.642 77.8279 143.287 76.5601 140.207 76.6307C138.439 76.6722 136.4 82.819 136.376 88.1815C136.365 90.8417 136.353 93.908 136.351 94.9966C136.348 96.1362 135.787 96.9946 135.029 97.0211C132.155 97.1214 133.263 75.7205 136.34 71.6775C137.997 69.5007 142.035 66.896 143.866 66.8233C144.47 66.7996 144.988 67.491 145.018 68.3604ZM88.4981 71.9757C88.2171 72.7918 88.4685 73.8715 89.0567 74.3741C89.8515 75.0533 89.9851 74.9255 89.5765 73.8768C89.2742 73.0995 89.4549 72.0056 89.9778 71.4448C90.6507 70.7232 90.6486 70.4349 89.9689 70.4586C89.4411 70.4771 88.7791 71.1596 88.4981 71.9757ZM123.101 70.1809C123.118 70.6639 123.55 71.0444 124.061 71.0266C124.572 71.0088 124.733 70.6075 124.418 70.1349C124.103 69.6623 123.671 69.2817 123.457 69.2892C123.244 69.2966 123.084 69.6979 123.101 70.1809ZM67.8021 72.8743C67.8151 73.2475 68.8437 74.3775 70.0879 75.3847C71.3321 76.3928 72.3413 76.9687 72.3307 76.6648C72.3201 76.361 71.2915 75.2319 70.0449 74.1544C68.7984 73.0777 67.7891 72.5019 67.8021 72.8743ZM110.837 71.4884C110.156 71.943 109.9 72.5965 110.269 72.9405C110.637 73.2847 111.383 73.0889 111.927 72.5054C113.208 71.1322 112.442 70.4177 110.837 71.4884ZM54.4192 75.0931C56.9567 75.8723 60.3781 77.543 62.0225 78.8062C63.6669 80.0703 64.4094 80.8401 63.6728 80.5194C62.1094 79.8363 64.7075 82.502 76.0988 93.2715C80.6633 97.5857 84.6939 101.947 85.0556 102.962C85.4172 103.977 86.4559 105.015 87.3642 105.269C88.2716 105.523 89.6919 106.688 90.5188 107.859C91.3457 109.03 93.6886 111.109 95.7262 112.479C102.601 117.102 96.5332 115.347 85.7674 109.599C72.9983 102.781 64.0385 100.079 57.6128 101.107C50.8417 102.191 50.2078 102.97 51.1396 109.059L51.9209 114.16L58.7476 118.27C67.0598 123.272 68.583 123.638 74.8071 122.124C77.4967 121.469 81.4535 120.92 83.6001 120.902C87.036 120.873 87.1899 120.95 84.8883 121.536C83.2943 121.941 82.6821 122.439 83.3203 122.811C83.8956 123.147 85.4283 122.975 86.7264 122.429C88.0235 121.884 89.2913 121.629 89.5439 121.864C89.7957 122.099 89.3602 122.522 88.5751 122.802C87.7901 123.082 86.5335 123.53 85.7831 123.796C85.0318 124.062 83.635 123.896 82.6805 123.428C80.5782 122.395 74.6194 123.549 75.4702 124.823C75.8534 125.398 75.2588 125.541 73.791 125.228C72.3257 124.913 71.4014 125.134 71.1907 125.849C70.9502 126.665 67.6302 127.071 58.6421 127.385C41.7354 127.975 39.8751 127.377 29.7147 118.091C22.4624 111.463 21.4835 110.196 20.1461 105.711C18.2758 99.4373 18.1678 96.3936 19.6168 90.8802C20.9681 85.7404 26.3548 79.03 31.4282 76.1659C36.0033 73.5829 47.7179 73.0367 54.4192 75.0931ZM152.42 73.9929C152.489 75.4413 152.702 75.9209 152.896 75.0587C153.089 74.1964 153.032 73.0114 152.771 72.4253C152.51 71.8391 152.352 72.5445 152.42 73.9929ZM16.5554 78.2978C16.8709 78.7704 17.5003 79.144 17.9552 79.1282C18.4101 79.1123 18.7678 78.7041 18.7509 78.2211C18.734 77.7381 18.1038 77.3645 17.3512 77.3907C16.5986 77.417 16.24 77.8252 16.5554 78.2978ZM81.6752 76.4581C81.9779 77.1703 82.5705 77.5224 82.9941 77.2394C84.2073 76.4303 83.8362 75.069 82.4153 75.1187C81.632 75.146 81.3418 75.6723 81.6752 76.4581ZM115.79 74.8325C115.508 75.3259 115.696 75.715 116.208 75.6971C116.719 75.6793 117.124 75.2695 117.107 74.7865C117.09 74.3035 116.902 73.9143 116.689 73.9218C116.475 73.9293 116.071 74.339 115.79 74.8325ZM72.4033 78.6186C72.4214 79.0611 73.4959 80.5737 74.7918 81.9792L77.1469 84.5348L75.0557 81.5304C72.3739 77.6762 72.3648 77.6669 72.4033 78.6186ZM163.432 75.5207C162.335 76.6976 162.979 78.2631 164.721 78.6542C165.814 78.8992 166.479 78.6192 166.454 77.9246C166.405 76.4984 164.174 74.7255 163.432 75.5207ZM140.24 82.7843C139.344 84.7042 138.629 87.1805 138.654 88.2866C138.691 89.9955 138.562 90.0853 137.802 88.8817C136.469 86.7706 139.341 77.8497 141.042 78.8199C141.5 79.0817 141.143 80.8501 140.24 82.7843ZM32.2131 86.052C32.2394 86.8046 32.6561 87.4073 33.1391 87.3904C33.6221 87.3735 34.0043 86.9883 33.9884 86.5334C33.9725 86.0785 33.5558 85.4767 33.0624 85.195C32.569 84.9133 32.1868 85.2994 32.2131 86.052ZM79.4519 88.4285C80.8045 90.3261 82.0849 91.6917 82.2968 91.4645C82.6773 91.0564 78.0131 84.9441 77.3395 84.9676C77.149 84.9743 78.0993 86.5317 79.4519 88.4285ZM7.76391 90.9143C7.78078 91.3973 8.18976 91.7787 8.67276 91.7618C9.15575 91.7449 9.53713 91.3359 9.52027 90.8529C9.5034 90.3699 9.09442 89.9886 8.61142 90.0054C8.12843 90.0223 7.74704 90.4313 7.76391 90.9143ZM27.962 90.2089C27.9789 90.6919 28.3879 91.0733 28.8709 91.0565C29.3539 91.0396 29.7352 90.6306 29.7184 90.1476C29.7015 89.6646 29.2925 89.2832 28.8095 89.3001C28.3265 89.317 27.9451 89.7259 27.962 90.2089ZM21.8608 91.7409C21.8861 92.4654 22.4872 93.0379 23.1968 93.0131C23.9819 92.9857 24.2705 92.4604 23.9351 91.6684C23.6314 90.9537 23.0301 90.3812 22.5989 90.3962C22.1677 90.4113 21.8355 91.0164 21.8608 91.7409ZM92.9778 88.8178C91.8929 89.574 91.9468 89.7084 93.3216 89.6718C94.4082 89.6427 94.7995 90.0739 94.4929 90.963C94.2407 91.6972 94.4169 92.2845 94.8841 92.2682C95.3521 92.2519 95.7005 91.2506 95.6584 90.0431C95.5758 87.6781 94.995 87.4127 92.9778 88.8178ZM167.715 88.8457C167.732 89.3287 168.141 89.71 168.624 89.6932C169.107 89.6763 169.488 89.2673 169.471 88.7843C169.454 88.3013 169.045 87.9199 168.562 87.9368C168.079 87.9537 167.698 88.3627 167.715 88.8457ZM7.74329 95.0325C8.38532 95.2642 9.1421 95.2061 9.42347 94.9044C9.70485 94.6027 9.17948 94.4135 8.25519 94.4836C7.23359 94.5615 7.03273 94.7769 7.74329 95.0325ZM113.23 97.7823C114.036 99.4467 115.156 101.075 115.717 101.399C116.278 101.724 116.81 102.783 116.898 103.753C116.986 104.723 116.704 105.313 116.27 105.066C115.837 104.818 115.696 104.24 115.959 103.781C116.221 103.322 115.862 102.966 115.162 102.99C114.461 103.015 113.206 101.575 112.371 99.7906C111.537 98.0067 110.205 95.1843 109.412 93.5194L107.969 90.4924L109.866 92.6243C110.909 93.7968 112.422 96.118 113.23 97.7823ZM154.932 90.538C154.664 91.3131 154.738 92.6294 155.095 93.4628C155.699 94.8731 155.83 94.8554 156.952 93.2133C157.615 92.2432 158.015 91.0669 157.842 90.5999C157.289 89.1157 155.435 89.0758 154.932 90.538ZM45.2705 94.88C45.5859 95.3526 46.0177 95.7332 46.2311 95.7257C46.4445 95.7183 46.6046 95.317 46.5877 94.834C46.5709 94.351 46.1382 93.9705 45.6271 93.9883C45.116 94.0062 44.955 94.4074 45.2705 94.88ZM99.2784 92.994C99.2953 93.477 99.7042 93.8584 100.187 93.8415C100.67 93.8247 101.052 93.4157 101.035 92.9327C101.018 92.4497 100.609 92.0683 100.126 92.0852C99.6429 92.102 99.2615 92.511 99.2784 92.994ZM138.853 94.5628C138.034 95.3722 137.913 95.2401 138.31 93.9768C138.592 93.0816 138.852 91.8855 138.888 91.3189C138.925 90.7532 139.169 91.0163 139.431 91.9049C139.693 92.7934 139.432 93.9895 138.853 94.5628ZM157.236 90.9182C157.252 91.3731 156.879 92.0025 156.406 92.318C155.933 92.6334 155.525 92.2748 155.499 91.5222C155.473 90.7696 155.846 90.1394 156.329 90.1225C156.812 90.1056 157.22 90.4633 157.236 90.9182ZM160.749 90.7955C160.765 91.2504 161.182 91.8522 161.675 92.134C162.168 92.4157 162.551 92.0295 162.524 91.2769C162.498 90.5243 162.081 89.9216 161.598 89.9385C161.115 89.9554 160.733 90.3407 160.749 90.7955ZM31.3124 96.1403C31.0555 96.5898 31.444 97.1636 32.1756 97.4159C32.9071 97.6673 33.4926 97.5141 33.4773 97.075C33.4357 95.8842 31.8493 95.1992 31.3124 96.1403ZM85.6106 94.8359C85.9373 95.607 85.8021 95.9643 85.2944 95.6743C84.8063 95.3959 84.3941 94.7966 84.3782 94.3417C84.3341 93.0789 84.9735 93.3353 85.6106 94.8359ZM23.6726 97.4473C26.1525 98.3419 25.8339 100.422 23.2181 100.421C22.2025 100.42 21.585 100.739 21.8448 101.128C22.5926 102.249 24.5369 101.879 25.6801 100.4C26.9487 98.7572 25.3188 96.4217 23.022 96.5916C22.0898 96.6611 22.3155 96.9583 23.6726 97.4473ZM42.2907 97.6737C42.3085 98.1848 42.7098 98.3458 43.1824 98.0303C43.6549 97.7149 44.0639 98.0962 44.0912 98.8778C44.1185 99.6594 43.7371 100.068 43.2437 99.7867C42.7503 99.5049 42.3623 99.726 42.3816 100.277C42.4438 102.058 44.5794 100.545 44.8012 98.5646C44.9431 97.2909 44.5519 96.6636 43.6369 96.6956C42.8781 96.7221 42.2728 97.1626 42.2907 97.6737ZM30.9032 98.8987C30.9201 99.3817 31.3527 99.7623 31.8638 99.7444C32.3749 99.7266 32.5359 99.3253 32.2205 98.8527C31.905 98.3802 31.4733 97.9996 31.2599 98.007C31.0465 98.0145 30.8863 98.4157 30.9032 98.8987ZM52.8595 98.1839C52.8773 98.695 53.2786 98.8559 53.7512 98.5405C54.2237 98.225 54.6043 97.7932 54.5969 97.5798C54.5894 97.3664 54.1882 97.2064 53.7052 97.2232C53.2222 97.2401 52.8416 97.6728 52.8595 98.1839ZM66.4694 97.6567C66.1877 98.1502 66.3763 98.5392 66.8874 98.5214C67.3985 98.5035 67.8035 98.0937 67.7867 97.6107C67.7698 97.1277 67.5821 96.7386 67.3687 96.7461C67.1553 96.7535 66.7511 97.1633 66.4694 97.6567ZM149.488 95.6369C149.505 96.1199 149.937 96.5005 150.448 96.4826C150.96 96.4648 151.121 96.0635 150.805 95.5909C150.49 95.1183 150.058 94.7378 149.845 94.7452C149.631 94.7527 149.471 95.1539 149.488 95.6369ZM163.661 98.659C163.678 99.142 163.273 99.5518 162.762 99.5696C162.251 99.5875 162.062 99.1984 162.344 98.705C162.626 98.2115 163.03 97.8018 163.243 97.7943C163.457 97.7869 163.645 98.176 163.661 98.659ZM70.2203 104.355C74.1305 105.542 80.0675 107.995 83.4137 109.804C88.8239 112.729 89.3336 113.221 88.0166 114.256C86.6422 115.337 86.6617 115.416 88.2933 115.359C90.3079 115.289 94.2894 117.714 92.3449 117.827C91.3745 117.884 91.3616 118.145 92.2785 119.175C93.2861 120.307 93.0116 120.325 89.8708 119.34C86.8331 118.385 85.3401 118.435 79.4454 119.688C69.4155 121.818 67.8256 121.712 62.7923 118.575C60.3268 117.038 57.4539 115.542 56.408 115.251C54.0329 114.59 52.2015 110.716 52.4396 106.858C52.5787 104.598 53.1195 103.768 54.7946 103.242C59.0153 101.918 63.1882 102.219 70.2203 104.355ZM14.4144 105.11C14.4202 105.276 15.0349 105.885 15.7804 106.461C16.5621 107.065 17.1227 107.131 17.1047 106.616C17.0876 106.126 16.4729 105.518 15.7387 105.265C15.0045 105.013 14.4085 104.943 14.4144 105.11ZM145.009 101.655C144.698 101.988 144.458 102.669 144.475 103.169C144.495 103.718 144.902 103.652 145.51 103.001C146.061 102.409 146.301 101.728 146.043 101.487C145.785 101.247 145.319 101.322 145.009 101.655ZM14.3812 108.869C15.0232 109.1 15.78 109.042 16.0614 108.741C16.3428 108.439 15.8174 108.25 14.8931 108.32C13.8715 108.398 13.6706 108.613 14.3812 108.869ZM33.436 108.482C33.7514 108.955 34.3808 109.328 34.8357 109.312C35.2906 109.297 35.6483 108.888 35.6314 108.405C35.6146 107.922 34.9843 107.549 34.2317 107.575C33.4791 107.601 33.1205 108.009 33.436 108.482ZM61.6741 107.203C60.8639 108.071 61.0238 109.277 61.9441 109.245C62.3753 109.23 62.9352 108.617 63.1882 107.883C63.6552 106.526 62.703 106.099 61.6741 107.203ZM105.704 110.095C105.006 110.844 102.502 109.771 102.465 108.706C102.442 108.057 103.004 108.05 104.298 108.686C105.324 109.19 105.957 109.824 105.704 110.095ZM164.457 107.003C163.55 107.739 163.02 108.54 163.278 108.78C163.537 109.021 164.438 108.4 165.28 107.4C167.076 105.272 166.768 105.124 164.457 107.003ZM67.3685 110.814C67.3854 111.297 67.7944 111.678 68.2773 111.662C68.7603 111.645 69.1417 111.236 69.1249 110.753C69.108 110.27 68.699 109.888 68.216 109.905C67.733 109.922 67.3516 110.331 67.3685 110.814ZM38.0438 113.559C36.2471 115.69 37.2836 117.522 39.9387 116.91C41.9762 116.441 42.3087 115.06 40.8347 113.185C39.702 111.744 39.5584 111.763 38.0438 113.559ZM69.4125 112.695C67.3153 113.798 66.8837 115.741 68.6223 116.254C69.2131 116.428 71.7068 116.029 74.1632 115.367C77.7667 114.395 79.0471 114.375 80.79 115.263C81.977 115.868 83.5413 116.326 84.2651 116.28C84.9889 116.235 83.1697 115.127 80.2225 113.817C74.5066 111.278 72.5017 111.07 69.4125 112.695ZM142.257 110.133C140.726 111.775 141.106 113.515 142.982 113.449C144.709 113.389 146.005 111.14 145.097 109.779C144.388 108.716 143.471 108.831 142.257 110.133ZM74.8601 113.09C75.4075 113.911 72.5665 115.015 69.7159 115.089C67.9827 115.133 67.9812 115.116 69.6185 113.785C71.4738 112.277 74.0863 111.931 74.8601 113.09ZM143.877 111.22C143.903 111.944 143.54 112.55 143.072 112.567C142.605 112.583 142.429 111.996 142.681 111.261C142.934 110.527 143.297 109.921 143.486 109.914C143.676 109.908 143.852 110.495 143.877 111.22ZM41.1458 115.247C41.1627 115.73 40.5837 116.146 39.8592 116.171C39.1347 116.196 38.5282 115.822 38.5113 115.339C38.4944 114.856 39.0734 114.44 39.7979 114.415C40.5224 114.389 41.129 114.764 41.1458 115.247ZM130.446 111.805C129.578 112.735 129.857 116.545 130.791 116.513C131.229 116.497 131.366 115.746 131.096 114.843C130.484 112.799 132.349 111.406 133.554 113.006C134.285 113.977 134.371 113.955 134.038 112.882C133.594 111.454 131.39 110.792 130.446 111.805ZM208.602 110.854C209.479 113.894 208.198 115.938 205.121 116.41C201.045 117.035 199.442 113.547 202.104 109.846C202.55 109.226 204.044 108.679 205.425 108.631C207.41 108.561 208.076 109.027 208.602 110.854ZM157.096 112.077C156.388 112.57 156.204 112.96 156.687 112.943C157.17 112.926 158.144 112.509 158.852 112.016C159.56 111.522 159.745 111.132 159.262 111.149C158.779 111.166 157.804 111.584 157.096 112.077ZM147.606 117.296C147.633 118.049 148.041 118.407 148.514 118.092C148.986 117.776 149.36 117.147 149.344 116.692C149.328 116.237 148.92 115.879 148.437 115.896C147.954 115.913 147.58 116.543 147.606 117.296ZM156.068 116.216C155.08 117.276 155.508 118.287 156.923 118.238C157.676 118.211 158.057 117.836 157.768 117.404C157.48 116.972 157.733 116.401 158.331 116.135C159.048 115.817 158.943 115.645 158.026 115.631C157.26 115.62 156.379 115.883 156.068 116.216ZM161.201 116.33C160.919 116.823 161.328 117.205 162.11 117.177C162.892 117.15 163.273 116.741 162.957 116.269C162.642 115.796 162.233 115.415 162.049 115.421C161.864 115.427 161.483 115.836 161.201 116.33ZM123.909 118.511C123.926 118.994 124.335 119.376 124.818 119.359C125.301 119.342 125.682 118.933 125.666 118.45C125.649 117.967 125.24 117.586 124.757 117.603C124.274 117.619 123.892 118.028 123.909 118.511ZM44.041 122.619C44.0692 123.425 44.5122 123.926 45.0251 123.735C45.5381 123.544 45.9451 123.012 45.9291 122.553C45.9131 122.095 45.47 121.593 44.9449 121.438C44.4199 121.283 44.0129 121.814 44.041 122.619ZM116.96 120.952C116.986 121.677 117.359 122.257 117.791 122.242C118.222 122.227 118.782 121.614 119.035 120.88C119.314 120.066 118.99 119.562 118.204 119.59C117.495 119.615 116.935 120.228 116.96 120.952ZM21.6753 125.683C21.3663 126.224 21.776 127.283 22.5848 128.037C23.5364 128.926 24.0423 129.033 24.0182 128.343C23.9977 127.756 23.5621 127.291 23.051 127.309C22.5399 127.327 22.3555 126.931 22.6413 126.43C22.928 125.928 23.6003 125.768 24.1359 126.073C24.7164 126.406 24.8421 126.23 24.4469 125.638C23.6127 124.387 22.4036 124.407 21.6753 125.683ZM79.7146 124.451C80.03 124.924 79.869 125.325 79.3579 125.343C78.8468 125.36 78.4142 124.98 78.3973 124.497C78.3804 124.014 78.5405 123.613 78.7539 123.605C78.9673 123.598 79.3991 123.978 79.7146 124.451ZM35.5163 130.287C35.5332 130.77 35.9507 131.395 36.4441 131.677C36.9375 131.959 37.3274 131.794 37.3106 131.311C37.2937 130.828 36.8762 130.202 36.3828 129.921C35.8893 129.639 35.4994 129.804 35.5163 130.287ZM93.928 128.365C94.249 128.845 94.8707 128.998 95.3106 128.704C96.5023 127.909 96.2574 127.39 94.7145 127.444C93.9619 127.47 93.6079 127.885 93.928 128.365ZM79.9292 130.598C79.6475 131.092 79.8361 131.481 80.3472 131.463C80.8583 131.445 81.2634 131.035 81.2465 130.552C81.2296 130.069 81.0419 129.68 80.8285 129.688C80.6151 129.695 80.2109 130.105 79.9292 130.598ZM97.458 130.474C95.8669 131.843 95.878 131.859 97.7436 130.873C98.8115 130.308 99.6796 129.662 99.6718 129.438C99.6484 128.767 99.1994 128.977 97.458 130.474ZM92.9753 132.808C91.9043 133.283 91.0332 133.844 91.0406 134.056C91.0634 134.709 94.5343 133.44 95.0124 132.603C95.5393 131.68 95.5157 131.682 92.9753 132.808ZM62.9292 134.761C62.9471 135.272 63.3484 135.433 63.8209 135.117C64.2935 134.802 64.6741 134.37 64.6667 134.157C64.6592 133.943 64.2579 133.783 63.7749 133.8C63.2919 133.817 62.9114 134.25 62.9292 134.761ZM134.938 132.194C134.955 132.677 135.585 133.051 136.338 133.025C137.09 132.998 137.449 132.59 137.133 132.118C136.818 131.645 136.189 131.271 135.734 131.287C135.279 131.303 134.921 131.711 134.938 132.194ZM164.131 134.501C162.362 138.29 159.482 140.331 155.503 140.612C154.031 140.717 152.843 141.253 152.86 141.805C152.892 142.772 151.019 143.942 149.346 144.001C148.903 144.016 148.519 143.436 148.494 142.711C148.431 140.916 146.877 141.091 146.587 142.927C146.419 143.996 143.485 145.303 135.918 147.676C129.952 149.547 125.343 150.586 125.159 150.101C124.647 148.756 122.665 149.188 121.454 150.91C120.51 152.252 120.523 152.316 121.537 151.346C122.895 150.048 124.123 149.82 124.16 150.862C124.173 151.25 121.351 152.581 117.888 153.82C114.426 155.06 107.751 157.745 103.056 159.787C94.4327 163.538 91.5448 164.331 92.4802 162.692C92.7619 162.199 92.1299 161.825 91.077 161.862C89.5454 161.915 89.3712 162.165 90.2113 163.108C91.5556 164.617 90.4744 165.101 83.4269 166.149C76.682 167.151 71.1968 165.908 64.989 161.969C62.3985 160.326 60.2634 158.681 60.2453 158.315C60.2264 157.949 68.6131 157.459 78.8807 157.225C97.0369 156.812 97.7208 156.732 103.772 154.308C109.652 151.954 110.022 151.905 110.473 153.415C110.99 155.144 113.314 155.5 114.181 153.982C114.475 153.467 114.165 152.415 113.492 151.644C112.423 150.419 112.481 150.313 113.951 150.807C114.959 151.146 116.462 150.787 117.706 149.909C118.846 149.103 122.71 147.372 126.294 146.063C132.101 143.94 132.959 143.82 134.18 144.959C136.141 146.788 139.211 144.959 138.33 142.486C137.803 141.005 137.995 140.799 139.509 141.222C140.783 141.578 141.571 141.212 142.174 139.986C142.644 139.029 145.86 136.954 149.32 135.377C155.937 132.361 158.154 131.699 162.842 131.339L165.71 131.12L164.131 134.501ZM86.9061 137.096C87.0906 137.896 87.7962 138.713 88.4749 138.914C89.2238 139.135 89.4546 138.895 89.0612 138.307C88.6817 137.738 89.002 137.315 89.8345 137.286C90.6161 137.259 90.9975 136.85 90.682 136.377C89.6856 134.885 86.5342 135.484 86.9061 137.096ZM124.931 135.181C124.649 135.675 125.035 136.057 125.788 136.031C126.541 136.004 127.143 135.588 127.126 135.105C127.11 134.622 126.724 134.24 126.269 134.255C125.814 134.271 125.213 134.688 124.931 135.181ZM107.17 136.433C105.459 137.115 105.961 138.482 107.898 138.414C108.864 138.38 109.642 137.981 109.626 137.526C109.587 136.402 108.482 135.911 107.17 136.433ZM100.465 139.553C100.183 140.046 100.372 140.435 100.883 140.417C101.394 140.4 101.799 139.99 101.782 139.507C101.765 139.024 101.577 138.635 101.364 138.642C101.151 138.65 100.746 139.059 100.465 139.553ZM126.068 138.366C125.061 139.446 125.582 142.193 126.786 142.151C128.505 142.091 128.966 141.307 128.398 139.406C127.877 137.668 127.06 137.303 126.068 138.366ZM157.985 137.544C158.002 138.027 158.435 138.408 158.946 138.39C159.457 138.372 159.618 137.971 159.303 137.498C158.987 137.026 158.555 136.645 158.342 136.652C158.129 136.66 157.968 137.061 157.985 137.544ZM113.242 140.374C113.269 141.126 113.685 141.729 114.168 141.712C114.651 141.695 115.034 141.31 115.018 140.855C115.002 140.4 114.585 139.798 114.092 139.517C113.598 139.235 113.216 139.621 113.242 140.374ZM130.353 139.388C130.669 139.861 131.101 140.241 131.314 140.234C131.527 140.227 131.687 139.825 131.671 139.342C131.654 138.859 131.221 138.479 130.71 138.497C130.199 138.514 130.038 138.916 130.353 139.388ZM94.8485 142.387C94.888 143.519 95.3541 144.126 95.9999 143.885C96.597 143.663 97.0664 142.954 97.0439 142.31C97.0215 141.666 96.5038 140.992 95.8925 140.812C95.2316 140.617 94.809 141.255 94.8485 142.387ZM103.646 142.519C103.671 143.244 104.087 143.823 104.57 143.806C105.053 143.789 105.427 143.182 105.402 142.458C105.377 141.733 104.961 141.154 104.478 141.171C103.995 141.188 103.62 141.795 103.646 142.519ZM107.174 142.836C107.191 143.319 107.599 143.7 108.082 143.683C108.565 143.666 108.947 143.257 108.93 142.774C108.913 142.291 108.504 141.91 108.021 141.927C107.538 141.944 107.157 142.353 107.174 142.836ZM117.317 142.407C117.05 142.874 117.214 143.474 117.682 143.741C118.149 144.008 118.749 143.843 119.016 143.376C119.283 142.909 119.118 142.309 118.651 142.042C118.183 141.775 117.583 141.939 117.317 142.407ZM53.3923 146.149C52.0584 147.58 52.9375 149.24 54.8504 148.901C55.9313 148.708 56.7959 147.963 56.7709 147.246C56.7221 145.85 54.3797 145.09 53.3923 146.149ZM137.532 143.534C137.25 144.027 136.451 144.451 135.755 144.475C135.058 144.5 134.475 144.124 134.458 143.641C134.442 143.158 135.242 142.735 136.236 142.7C137.23 142.665 137.814 143.04 137.532 143.534ZM157.287 142.734C157.334 144.069 138.501 155.961 136.863 155.631C135.627 155.383 135.798 155.096 137.686 154.24C138.996 153.646 140.06 152.965 140.051 152.727C140.033 152.19 137.326 153.23 136.08 154.253C135.292 154.901 128.098 157.552 122.258 159.347C121.301 159.641 122.486 159.599 124.892 159.253C127.298 158.908 129.63 158.249 130.073 157.79C131.236 156.585 134.243 156.65 133.882 157.874C133.588 158.87 121.444 162.656 120.716 161.978C120.236 161.53 113.304 164.574 110.668 166.39C108.219 168.077 100.182 168.683 100.71 167.139C100.897 166.594 102.001 165.674 103.163 165.095C104.326 164.515 105.264 163.686 105.249 163.251C105.234 162.817 106.488 161.91 108.036 161.237C109.584 160.565 112.505 159.218 114.526 158.244C116.548 157.271 119.477 156.178 121.035 155.816C122.595 155.455 124.643 154.636 125.588 153.996C128.082 152.31 141.762 147.756 142.71 148.298C143.156 148.552 143.076 149.326 142.53 150.032C140.926 152.108 142.136 151.525 149.596 146.63C157.272 141.592 157.248 141.605 157.287 142.734ZM56.3313 147.249C56.3482 147.732 55.7692 148.148 55.0447 148.173C54.3203 148.198 53.7137 147.824 53.6968 147.341C53.6799 146.858 54.2589 146.442 54.9834 146.417C55.7079 146.391 56.3145 146.766 56.3313 147.249ZM97.6236 146.319C97.6503 147.084 98.1356 147.538 98.7033 147.326C100.312 146.727 100.516 144.827 98.9652 144.881C98.2012 144.907 97.5969 145.554 97.6236 146.319ZM109.615 145.077C108.509 146.262 109.089 147.165 110.913 147.101C111.935 147.066 112.573 146.582 112.359 146.007C111.886 144.738 110.4 144.234 109.615 145.077ZM65.6517 147.685C65.2945 148.31 65.2483 149.05 65.5482 149.33C66.3616 150.088 67.1784 148.903 66.7089 147.644C66.3809 146.762 66.1736 146.77 65.6517 147.685ZM81.043 149.903C81.0598 150.386 81.4688 150.767 81.9518 150.75C82.4348 150.733 82.8162 150.324 82.7993 149.841C82.7825 149.358 82.3735 148.977 81.8905 148.994C81.4075 149.011 81.0261 149.42 81.043 149.903ZM157.571 150.738C155.599 156.013 140.723 168.599 134.776 170.025C132.947 170.464 130.176 171.155 128.619 171.561C126.39 172.142 125.778 172.016 125.741 170.967C125.715 170.233 125.094 169.427 124.36 169.174C123.625 168.922 123.046 168.009 123.072 167.146C123.113 165.779 123.175 165.764 123.556 167.024C123.942 168.298 124.264 168.318 126.256 167.195C127.499 166.494 128.802 166.083 129.152 166.283C129.501 166.482 130.23 166.072 130.772 165.371C131.572 164.335 131.44 164.191 130.065 164.603C129.134 164.881 128.09 164.686 127.745 164.169C126.754 162.683 129.69 161.936 133.008 162.83C135.629 163.535 137.25 162.849 135.314 161.853C134.945 161.664 135.146 161.613 135.761 161.741C136.375 161.869 137.883 161.473 139.111 160.861C141.135 159.852 141.189 159.687 139.698 159.093C138.451 158.597 138.632 158.497 140.448 158.679C141.765 158.811 143.008 158.476 143.21 157.936C143.412 157.394 143.633 157.642 143.7 158.486C143.767 159.329 144.442 159.998 145.199 159.972C146.115 159.94 146.393 159.411 146.03 158.392C145.275 156.272 148.516 154.056 150.326 155.454C152.006 156.752 152.056 154.482 150.385 152.803C149.759 152.175 149.674 151.878 150.197 152.144C150.72 152.411 152.649 151.196 154.485 149.445C158.033 146.059 159.146 146.526 157.571 150.738ZM113.689 153.159C113.706 153.642 113.348 154.05 112.893 154.066C112.438 154.082 111.809 153.708 111.493 153.236C111.178 152.763 111.537 152.355 112.289 152.329C113.042 152.302 113.672 152.676 113.689 153.159ZM183.494 163.031C181.729 166.624 185.589 169.782 190.141 168.47C193.121 167.611 193.509 165.867 191.303 163.254C188.992 160.519 184.787 160.399 183.494 163.031ZM149.244 164.688C148.658 165.445 147.943 165.844 147.653 165.575C147.364 165.305 147.697 164.697 148.391 164.222C150.21 162.982 150.458 163.117 149.244 164.688ZM189.503 163.876C191.169 165.43 190.855 166.291 188.594 166.37C186.098 166.457 185.32 165.828 185.887 164.18C186.414 162.65 188.041 162.513 189.503 163.876ZM146.514 168.37C146.233 168.672 145.476 168.73 144.834 168.498C144.123 168.243 144.324 168.027 145.346 167.949C146.27 167.879 146.795 168.069 146.514 168.37ZM118.474 171.108C118.192 171.41 117.436 171.468 116.793 171.236C116.083 170.98 116.284 170.765 117.305 170.687C118.23 170.617 118.755 170.806 118.474 171.108ZM124.902 172.111C124.919 172.594 124.042 172.992 122.954 172.997C121.067 173.004 121.056 172.966 122.706 172.188C123.658 171.738 124.534 171.34 124.654 171.302C124.774 171.264 124.885 171.628 124.902 172.111ZM146.227 176.068C145.25 177.116 144.435 177.533 144.416 176.994C144.397 176.456 144.966 175.767 145.681 175.463C146.396 175.16 146.966 174.481 146.947 173.954C146.929 173.428 146.527 173.255 146.055 173.57C145.582 173.886 145.182 173.758 145.165 173.287C145.149 172.816 145.624 172.243 146.22 172.014C148.086 171.3 148.09 174.07 146.227 176.068ZM143.698 176.071C143.29 177.904 141.959 178.058 139.783 176.522C137.484 174.9 137.804 174.404 141.107 174.465C143.43 174.509 143.97 174.843 143.698 176.071ZM139.59 177.876C140.078 178.301 139.186 178.249 137.608 177.76C136.03 177.271 134.733 176.685 134.725 176.459C134.704 175.852 138.558 176.975 139.59 177.876Z" fill="#fff"/>
</svg>
