<svg width="244" height="126" viewBox="0 0 244 126" fill="none" xmlns="http://www.w3.org/2000/svg">
<path fill-rule="evenodd" clip-rule="evenodd" d="M94.9453 2.20466C93.6324 3.29504 90.8129 3.74554 83.3939 4.05108C68.4729 4.66596 51.8845 6.6588 46.4674 8.4867C43.796 9.38863 39.8065 10.2883 37.6019 10.485C35.3973 10.6827 32.6081 11.4109 31.4037 12.1026C28.4114 13.8217 20.0445 20.784 17.945 23.3011C17.0017 24.4322 13.1771 27.2651 9.44586 29.5971C-0.890973 36.0564 -1.89327 38.8274 3.26117 46.699C5.89739 50.7252 6.9138 51.4805 12.2097 53.348C17.3102 55.1464 19.5963 56.7696 27.8601 64.4584C33.1815 69.4113 37.6898 73.8743 37.8771 74.378C38.0645 74.8807 42.0022 78.052 46.627 81.4253C51.2526 84.7976 57.1533 89.3228 59.7412 91.4797C62.3283 93.6366 68.5259 97.7323 73.5121 100.582C89.406 109.662 97.7376 113.022 114.834 117.246C145.609 124.85 173.658 125.001 200.841 117.711C205.223 116.535 210.966 115.543 213.604 115.506C221.888 115.39 223.545 112.673 219.63 105.619C218.581 103.729 217.662 100.436 217.587 98.2992C217.491 95.5603 216.865 93.8299 215.463 92.426C214.369 91.3303 212.26 87.182 210.777 83.2058C209.293 79.2305 207.21 74.4246 206.147 72.5263C200.986 63.3111 189.044 50.1902 177.247 40.7752C174.518 38.5973 171.174 34.9479 169.815 32.6668C167.298 28.4371 166.982 28.1819 161.447 25.8984C159.702 25.1784 157.418 23.329 156.371 21.7893C154.73 19.3734 153.804 18.9303 149.63 18.5668C145.173 18.1782 144.365 17.7284 139.414 12.8922C134.38 7.97311 133.781 7.64825 129.993 7.78051C127.768 7.8582 125.233 8.40423 124.359 8.9932C122.08 10.5292 111.186 7.25962 107.367 3.89301C103.821 0.767094 97.6806 -0.0674959 94.9453 2.20466ZM108.484 7.06802C111.049 9.61347 114.091 12.1476 115.246 12.6997C117.794 13.9179 122.186 12.9416 125.066 10.517C129.146 7.08187 133.576 8.51942 140.059 15.3805C143.173 18.677 147.398 20.5756 151.311 20.439C153.338 20.3682 154.353 21.0127 155.812 23.2993C157.097 25.314 159.011 26.7009 161.843 27.6707C167.011 29.4399 170.601 34.489 170.721 40.1524C170.817 44.6953 173.032 48.0617 176.327 48.6713C186.292 50.5142 188.727 52.9051 189.972 62.0713C190.77 67.946 191.135 68.7464 194.365 71.6975C196.561 73.7054 198.328 76.3654 199.058 78.7677C200.463 83.3891 201.856 84.9443 207.944 88.6892C210.497 90.2602 212.673 92.2509 212.779 93.1139C212.886 93.976 213.044 95.7933 213.129 97.1503C213.219 98.5795 213.657 99.3692 214.17 99.027C214.657 98.7017 214.782 97.4839 214.446 96.3207C214.101 95.1264 214.232 94.1917 214.745 94.1738C215.245 94.1563 215.704 95.5476 215.764 97.2656C215.841 99.4788 215.474 100.403 214.503 100.437C213.359 100.477 213.321 100.811 214.275 102.455C214.904 103.539 216.593 105.451 218.029 106.703C221.23 109.496 221.43 111.59 218.606 112.778C216.733 113.566 212.014 113.484 211.118 112.646C210.941 112.483 211.386 111.107 212.105 109.59C212.988 107.726 213.097 106.652 212.442 106.278C211.909 105.974 211.404 105.868 211.32 106.043C211.236 106.218 210.42 107.991 209.507 109.983C208.593 111.975 207.148 113.763 206.295 113.959C204.021 114.477 204.332 112.419 206.975 109.461C208.246 108.038 208.826 106.89 208.264 106.91C207.702 106.929 206.172 108.429 204.863 110.243C203.554 112.056 200.747 114.376 198.627 115.396C193.454 117.885 174.978 121.487 166.134 121.731C159.061 121.925 140.021 120.666 139.42 119.964C139.249 119.764 138.359 118.621 137.444 117.424L135.781 115.249L136.427 117.683C136.943 119.633 136.758 120.127 135.493 120.162C133.674 120.214 122.516 117.829 115.895 115.974C113.414 115.279 109.889 114.363 108.063 113.939C105.435 113.328 104.647 112.663 104.28 110.745C103.833 108.403 103.797 108.39 103.211 110.355C102.878 111.472 102.095 112.404 101.472 112.426C100.849 112.448 95.6107 110.251 89.8315 107.544C78.1887 102.091 62.9714 92.734 55.8994 86.678C53.3664 84.5094 49.003 81.0474 46.2031 78.9847C43.4031 76.9219 38.0389 72.0759 34.2826 68.2157C28.2048 61.9704 27.5669 61.0009 28.4844 59.4096C29.0523 58.4266 30.3057 55.9149 31.2703 53.8288C32.2348 51.7418 33.6129 49.2936 34.3318 48.3875C35.4377 46.9952 35.4406 46.8244 34.3506 47.2869C33.6409 47.5878 31.377 50.5136 29.3201 53.7888L25.5787 59.7425L23.278 57.598C21.2534 55.7101 21.0943 55.1706 21.9513 53.1016C23.348 49.728 23.0136 48.134 21.5323 51.1067C20.1646 53.8529 17.9823 54.6904 18.97 52.0897C19.3006 51.2186 19.722 49.4945 19.905 48.2596C20.2002 46.2737 20.0293 46.3708 18.4198 49.1013C17.0642 51.4012 16.3342 51.9387 15.5547 51.2118C14.9784 50.6744 13.4248 50.2729 12.1013 50.3191C10.4779 50.3758 8.78591 49.4386 6.90313 47.4394C3.35564 43.6729 2.25675 39.685 3.98197 36.8396C5.18426 34.8578 5.76025 34.7197 12.9001 34.7108C17.0977 34.7045 21.2902 34.9119 22.216 35.1708C23.3087 35.4758 25.0555 34.6544 27.1917 32.8321C29.0017 31.2874 32.1204 29.5308 34.1224 28.9293C36.3179 28.2691 39.301 26.2608 41.6434 23.8684C45.9752 19.4425 51.7194 17.2091 55.4786 18.4905C58.3035 19.4525 58.7027 19.4189 57.9446 18.2828C55.3584 14.4086 45.5408 16.7243 40.5099 22.3961C38.2601 24.9319 36.1213 26.3737 33.8944 26.8553C32.0844 27.2473 30.1427 27.9594 29.5795 28.4383C28.8879 29.0263 28.2247 28.7403 27.5383 27.558C26.1066 25.0936 26.191 24.928 28.944 24.8265C30.2942 24.7767 32.9821 24.0395 34.9181 23.1874L38.4382 21.6393L35.3331 22.2758C27.7077 23.8377 25.4024 24.0942 23.2085 23.6249C20.9633 23.1439 20.9278 23.0496 22.3512 21.3611C23.168 20.3926 24.0917 19.6437 24.4036 19.6963C24.7155 19.7497 27.9311 18.2078 31.5492 16.2694C37.8654 12.8866 38.3952 12.7591 44.8402 13.063C48.532 13.237 53.4796 13.8532 55.8337 14.4331C58.1878 15.0121 60.1043 15.1864 60.0915 14.8205C60.0518 13.6827 54.2552 12.2151 50.1111 12.2946C47.9359 12.3357 45.3746 12.0945 44.4193 11.7579C43.0216 11.2653 43.4436 10.9128 46.5899 9.94692C48.739 9.28661 53.4435 8.2413 57.0453 7.62408C63.5674 6.50548 63.6015 6.51053 65.8005 8.89273C67.0143 10.2085 67.9913 10.807 67.9718 10.2224C67.9514 9.63788 67.5253 8.92544 67.0239 8.63915C64.255 7.05868 67.178 6.39994 78.7503 5.99583L91.4479 5.55242L89.1397 8.02677C86.9478 10.3782 86.6173 10.4604 82.536 9.67542C77.9913 8.8012 75.1013 9.65985 75.1781 11.8606C75.2013 12.5255 74.5295 13.9857 73.6858 15.1062C72.182 17.1012 72.0628 17.1161 67.8375 15.8439C63.2204 14.4539 62.3967 14.639 61.0578 17.3655C60.3646 18.7782 60.4574 19.0038 61.5413 18.5442C62.2791 18.2307 62.8697 17.6159 62.8544 17.1777C62.8108 15.9283 65.8695 16.1377 67.8334 17.5176C71.5845 20.1538 75.3523 17.9475 77.2787 11.9856C77.5907 11.0186 78.3624 10.4976 79.104 10.7531C83.6676 12.3237 86.4863 12.0304 90.5639 9.56038C92.8713 8.16274 95.3535 6.03883 96.0801 4.84115C97.067 3.21442 98.2128 2.63559 100.611 2.55185C103.337 2.45665 104.523 3.13633 108.484 7.06802ZM72.2352 9.79746C72.5026 11.2624 72.8766 12.4556 73.0658 12.449C73.2559 12.4424 73.3691 11.2322 73.3177 9.75965C73.2663 8.28713 72.8922 7.09393 72.4861 7.10811C72.0801 7.12229 71.9678 8.33247 72.2352 9.79746ZM94.8277 10.7366C94.3531 11.7039 94.0342 14.4957 94.1196 16.9401C94.2519 20.7285 94.685 21.7463 97.0503 23.8216L99.8258 26.2578L96.4942 27.0863C94.6614 27.5416 92.1021 28.1743 90.8059 28.4912C89.5106 28.808 87.6952 28.6347 86.7716 28.1049C85.3573 27.2929 85.5295 27.2083 87.8661 27.569C89.8587 27.8764 91.2264 27.4847 92.7318 26.174C93.8835 25.1724 94.5481 24.093 94.2091 23.776C93.871 23.459 92.7662 24.0864 91.755 25.1707C89.8404 27.2239 89.0062 27.2084 83.0411 25.0086C79.9291 23.8619 78.549 21.0615 79.158 17.1346C79.3484 15.9083 79.1583 14.9169 78.7353 14.9316C77.9544 14.9589 77.6428 17.5753 78.0473 20.7162C78.3138 22.7942 80.7881 25.509 83.2829 26.4602C84.654 26.9833 84.2673 27.1433 81.6868 27.1173C79.8125 27.0996 78.0163 27.4787 77.6954 27.9607C77.3745 28.4437 75.4433 30.2277 73.4056 31.9268C69.6087 35.0912 66.8557 35.3964 65.7437 32.7752C65.4429 32.0673 64.6441 31.5072 63.9686 31.5308C62.3818 31.5862 59.3948 28.5149 59.7766 27.2194C59.938 26.6714 61.7847 27.5889 63.8794 29.2581C65.9732 30.9283 68.2647 32.2743 68.9706 32.2497C70.6672 32.1904 73.9914 29.0515 73.9392 27.5585C73.914 26.8347 73.222 27.1573 72.1466 28.3958C71.1837 29.5052 69.7526 30.4353 68.9681 30.4627C68.1828 30.4901 64.5796 28.4045 60.9611 25.8279C57.3417 23.2514 53.7867 21.164 53.0593 21.1894C51.0612 21.2592 49.6612 23.1845 49.7505 25.7405C49.8101 27.4468 48.9433 28.6208 46.3377 30.3595C44.4167 31.6417 42.8533 32.9303 42.8636 33.223C42.8738 33.5166 41.1062 33.8187 38.9367 33.8945C36.4834 33.9801 34.0991 34.7112 32.6342 35.8266C27.9951 39.3608 24.7601 40.8569 21.4149 41.0157C19.4444 41.1095 18.2557 41.5353 18.5847 42.0286C19.3993 43.2475 26.9613 41.7647 30.1145 39.7683C32.8438 38.0397 46.875 36.2281 46.0271 37.7142C45.7888 38.1309 47.467 37.1904 49.757 35.6236C52.0469 34.0568 54.6969 32.7481 55.6465 32.715C56.5961 32.6818 59.3787 33.9919 61.8304 35.6264C66.6415 38.8341 69.0662 39.156 72.4833 37.0414C75.2122 35.3521 76.2946 35.2348 75.4983 36.7128C75.161 37.3393 75.7309 37.0558 76.7638 36.0833C77.7977 35.1108 78.6251 33.8077 78.6034 33.1857C78.5423 31.4356 83.1919 30.6612 87.805 31.6536C91.3432 32.4138 92.304 32.3195 94.13 31.0298C97.0975 28.9336 98.1633 29.084 101.274 32.0402C104.304 34.9197 107.565 35.2409 110.592 32.9595C114.255 30.1983 117.556 29.6265 119.849 31.3567C120.994 32.2201 121.619 33.2624 121.238 33.6724C120.857 34.0825 120.114 33.8413 119.587 33.1368C118.751 32.0178 118.681 32.0229 119.042 33.1817C119.268 33.911 120.023 34.4878 120.718 34.4635C121.413 34.4392 122.531 34.9032 123.2 35.4937C124.431 36.5784 127.939 36.891 132.689 36.3383C136 35.9528 139.52 37.6732 139.591 39.7125C139.653 41.4911 142.951 43.9627 145.159 43.8856C145.955 43.8578 147.277 44.5256 148.095 45.3682C149.335 46.6464 149.445 47.5397 148.754 50.7269C148.001 54.196 148.111 54.7023 149.939 56.1789C151.047 57.0749 153.644 58.0269 155.711 58.2952C162.9 59.229 164.723 60.8541 164.111 65.7836C163.811 68.2084 164.044 69.2671 164.949 69.5787C165.666 69.8252 166.248 71.264 166.306 72.9365C166.426 76.3492 169.995 83.7159 172.827 86.3932C176.669 90.0261 179.262 93.8564 178.568 94.8733C178.35 95.191 178.431 95.2436 178.746 94.9895C179.739 94.1927 181.741 97.6307 182.48 101.4C183.374 105.965 182.594 111.38 181.033 111.435C180.379 111.457 179.366 112.096 178.78 112.854C177.439 114.589 178.233 114.573 181.39 112.798C184.054 111.3 184.874 109.142 184.714 104.042C184.584 99.8377 177.554 87.0126 174.07 84.6199C172.644 83.6403 171.436 82.0116 171.384 81.0002C171.334 79.9887 170.675 78.4015 169.921 77.4745C169.168 76.5465 168.557 75.1605 168.564 74.3945C168.575 73.3969 168.815 73.5003 169.408 74.7591C169.864 75.726 170.253 76.153 170.272 75.7073C170.291 75.2617 171.052 75.5264 171.963 76.2943C172.874 77.0631 176.427 78.1783 179.859 78.7733C186.548 79.9336 189.637 82.1543 190.965 86.7561C191.34 88.0573 193.135 90.4384 194.954 92.0476C200.36 96.8304 201.527 97.316 205.257 96.3368C207.797 95.6701 208.93 95.7645 209.962 96.7274C210.709 97.4242 211.31 97.6454 211.295 97.217C211.235 95.5125 208.877 94.3787 205.628 94.4922C201.071 94.6513 197.504 92.492 198.12 89.9454C198.44 88.6261 198.341 88.4106 197.802 89.247C197.17 90.2288 196.73 90.1852 195.481 89.0198C193.101 86.8012 190.982 82.563 191.635 81.3286C191.959 80.7169 191.949 80.4795 191.613 80.7995C191.279 81.1203 189.878 80.332 188.501 79.0488C186.643 77.3158 184.746 76.6101 181.142 76.3106C178.47 76.0885 175.941 75.4048 175.522 74.7922C175.102 74.1796 174.764 73.9939 174.769 74.3798C174.776 74.7655 173.93 74.6637 172.891 74.1532C171.77 73.6026 171.19 72.6837 171.462 71.8915C171.714 71.158 171.571 70.7913 171.143 71.077C170.111 71.7653 168.237 66.8145 168.106 63.0556C168.048 61.4108 167.6 60.079 167.109 60.0961C166.618 60.1133 166.196 59.5392 166.171 58.8199C166.111 57.1037 163.628 55.9457 158.791 55.3784C152.359 54.6237 151.952 54.2144 152.213 48.7619C152.429 44.2411 152.269 43.8169 149.517 41.6604C147.907 40.3996 145.823 39.3948 144.885 39.4275C143.857 39.4634 142.204 38.0548 140.725 35.8825L138.268 32.2771L133.027 32.9382C127.732 33.6047 126.188 33.0662 121.577 28.941C119.205 26.8186 115.185 26.8527 111.185 29.0278C109.063 30.1822 106.771 30.9279 106.093 30.6853C105.3 30.4011 105.479 30.1974 106.593 30.1129C108.976 29.9323 113.188 25.4168 113.066 23.1711C112.99 21.762 112.702 22.0035 111.835 24.2042C109.552 29.9962 106.163 29.985 98.9914 24.163C95.5033 21.3317 94.134 16.3552 95.5691 11.7258C96.5351 8.60667 96.1358 8.07376 94.8277 10.7366ZM114.847 9.20294C115.168 9.68318 116.41 10.0419 117.608 10C118.807 9.95819 119.801 10.3256 119.818 10.8164C119.835 11.3073 119.266 11.7292 118.553 11.7541C116.708 11.8186 112.642 10.0278 112.611 9.13716C112.575 8.09746 114.14 8.14289 114.847 9.20294ZM167.843 8.66576C166.821 11.1346 168.182 13.5952 170.525 13.5133C172.103 13.4582 173.793 9.50074 173.019 7.67548C172.105 5.52184 168.89 6.13806 167.843 8.66576ZM68.9683 12.7628C68.9902 13.593 69.4179 14.5064 69.9194 14.7927C71.0735 15.4512 71.0323 14.2696 69.8414 12.5616C69.056 11.4337 68.9354 11.4621 68.9683 12.7628ZM169.966 11.1096C169.263 11.8633 168.996 11.7725 168.96 10.7685C168.899 8.99437 170.057 7.75211 170.547 9.06725C170.755 9.62559 170.493 10.5443 169.966 11.1096ZM120.417 16.2165C120.111 16.7508 120.06 17.3736 120.302 17.5993C120.544 17.8249 120.958 17.3816 121.222 16.6137C121.771 15.0202 121.247 14.7615 120.417 16.2165ZM119.344 19.7683C119.353 20.5051 120.551 23.2779 122.006 25.9291C125.226 31.7953 127.636 32.8468 133.724 31.0419C138.993 29.4801 143.769 24.4204 143.235 20.9667C143.038 19.686 142.267 18.4772 141.523 18.2807C140.431 17.9927 140.394 18.145 141.328 19.0676C144.478 22.1814 140.053 28.5013 133.769 29.8636C127.725 31.1737 125.416 29.9515 122.109 23.6926C120.579 20.7974 119.335 19.0314 119.344 19.7683ZM56.9271 26.554C56.9649 27.6366 53.605 27.6038 52.878 26.5141C52.5424 26.0111 52.4903 24.9532 52.762 24.1628C53.2041 22.8785 53.4502 22.8896 55.0788 24.2633C56.0805 25.1084 56.9126 26.1391 56.9271 26.554ZM22.5536 26.7224C25.1604 26.6313 26.0309 27.8376 25.4185 30.6941C24.4981 34.9911 19.7561 32.1777 19.6482 27.2706C19.6155 25.7974 19.7829 25.0884 20.0194 25.694C20.2559 26.3004 21.397 26.7628 22.5536 26.7224ZM16.1299 32.4258C14.8583 32.7803 12.6143 33.1267 11.1423 33.1951C8.70696 33.3087 8.86127 33.1219 12.8568 31.1176C16.7839 29.1479 17.3109 29.066 17.8444 30.3474C18.2745 31.3805 17.7953 31.9602 16.1299 32.4258ZM154.321 26.5359C154.396 28.6911 154.9 28.8907 155.543 27.0213C155.795 26.2914 155.608 25.4696 155.129 25.196C154.649 24.9223 154.286 25.5256 154.321 26.5359ZM49.221 32.0458C47.6607 33.5746 45.9059 34.8306 45.3217 34.8367C43.9417 34.8509 49.5657 29.3532 50.982 29.3037C51.5746 29.283 50.7822 30.517 49.221 32.0458ZM156.498 30.1635C153.802 32.0278 152.109 35.1722 153.238 36.2247C153.538 36.5046 153.764 36.1652 153.74 35.47C153.715 34.7739 155.156 32.8624 156.942 31.222C160.681 27.7854 160.514 27.3891 156.498 30.1635ZM36.4848 36.6044C36.1989 36.911 35.4298 36.9701 34.7773 36.7346C34.0552 36.4748 34.2594 36.2559 35.2976 36.1768C36.2368 36.1055 36.7708 36.2978 36.4848 36.6044ZM49.3663 40.3247C43.9465 46.6802 43.9449 47.9392 49.3639 42.0743C51.8376 39.3976 53.7193 36.8889 53.5449 36.501C53.3714 36.1121 51.4907 37.8326 49.3663 40.3247ZM80.4997 36.3147C79.3718 37.1002 79.4001 37.2207 80.7009 37.1878C81.5311 37.166 82.4445 36.7382 82.7308 36.2368C83.3893 35.0826 82.2077 35.1239 80.4997 36.3147ZM148.356 34.8422C147.163 35.848 145.679 36.5066 145.057 36.3067C144.436 36.1068 143.941 36.3322 143.957 36.807C144.013 38.4 147.085 37.577 149.712 35.2658C152.78 32.5665 151.526 32.1743 148.356 34.8422ZM78.2642 39.4907C78.0136 40.2205 78.2544 41.9205 78.801 43.2694C79.7505 45.6157 79.7914 45.5571 79.7316 41.9261C79.6682 38.0629 79.0877 37.0994 78.2642 39.4907ZM151.605 38.2993C151.318 38.8008 151.51 39.1962 152.029 39.178C152.549 39.1599 152.96 38.7434 152.943 38.2526C152.926 37.7617 152.735 37.3663 152.518 37.3739C152.302 37.3815 151.891 37.7979 151.605 38.2993ZM130.992 41.6631C130.773 42.6384 129.451 43.9901 128.053 44.6688C125.71 45.805 124.648 47.2905 126.227 47.2211C127.129 47.1824 131.093 44.2803 132.825 42.3925C134.086 41.018 134.085 40.8188 132.808 40.3791C131.878 40.0595 131.254 40.5013 130.992 41.6631ZM65.0676 44.0671C63.5747 44.5579 61.1162 46.4175 59.6058 48.1983C56.4477 51.922 57.1509 52.5882 60.3839 48.9351C61.5633 47.6028 64.1118 45.7392 66.0473 44.7951C69.8418 42.9434 69.4262 42.6344 65.0676 44.0671ZM176.763 42.3075L179.517 44.4085L177.289 44.581C175.267 44.7383 175.228 44.8129 176.871 45.398C177.866 45.7519 179.112 45.863 179.641 45.6444C180.168 45.4258 181.107 45.8157 181.725 46.5098C182.689 47.5922 182.299 47.7237 178.996 47.4307C174.555 47.0372 173.23 46.1077 172.272 42.7154C171.39 39.593 173.012 39.4451 176.763 42.3075ZM41.9797 49.8494C41.1846 51.7732 40.3721 53.7102 40.1749 54.154C39.9778 54.5978 40.2668 54.661 40.8161 54.2943C41.98 53.5173 44.4666 47.3214 43.8468 46.7426C43.6159 46.5273 42.7757 47.9255 41.9797 49.8494ZM140.185 44.8143C140.8 46.5727 140.119 47.6733 135.661 52.1206C132.585 55.1891 130.023 58.665 129.473 60.5169C128.956 62.255 127.4 64.9425 126.015 66.4903C123.882 68.87 119.967 78.5872 120.82 79.3821C120.971 79.5225 121.929 77.3562 122.949 74.5676C123.969 71.779 125.876 68.3474 127.187 66.9417C128.496 65.536 130.01 62.7007 130.55 60.641C131.125 58.4452 132.465 56.236 133.789 55.3017C135.031 54.4246 137.638 51.9246 139.583 49.7471C143.08 45.8337 143.1 45.7705 141.29 44.2664C139.512 42.7881 139.48 42.8035 140.185 44.8143ZM153.249 47.0065C153.317 48.9449 154.84 50.8119 157.891 52.6926C160.405 54.2426 163.338 54.4538 163.29 53.0813C163.273 52.5904 162.344 52.2208 161.227 52.2598C158.203 52.3654 155.141 50.0088 155.054 47.51C155.012 46.3106 154.576 45.3438 154.085 45.361C153.594 45.3781 153.218 46.1186 153.249 47.0065ZM78.3002 50.0911C78.3128 50.4508 78.9758 52.1655 79.7736 53.9015C82.1979 59.178 81.8561 64.5887 78.6308 71.9675C75.2815 79.633 75.992 80.0978 79.494 72.5324C82.3014 66.4665 82.9024 59.8557 81.1092 54.7654C79.9041 51.345 78.2478 48.5892 78.3002 50.0911ZM118.397 51.8192C117.787 52.7412 115.333 55.0821 112.943 57.0205C105.672 62.9198 99.7441 71.8163 101.804 73.7361C102.119 74.0298 102.351 73.5374 102.319 72.6423C102.246 70.5495 108.814 61.3706 111.779 59.4219C114.309 57.7591 121.229 51.2324 121.205 50.5327C121.168 49.4752 119.417 50.2771 118.397 51.8192ZM167.441 50.4049C166.295 51.6923 166.232 52.085 167.179 52.0519C167.863 52.0281 168.653 51.3401 168.934 50.5226C169.644 48.4596 169.202 48.425 167.441 50.4049ZM141.317 57.6291C140.287 59.6755 139.625 61.5197 139.846 61.7255C140.067 61.9322 141.049 60.387 142.027 58.2914C144.341 53.3355 143.753 52.7869 141.317 57.6291ZM144.796 55.9457C144.15 57.5025 144.16 58.8219 144.824 60.1926C145.785 62.1757 145.786 62.1757 145.287 60.0433C145.011 58.8681 145.172 57.1192 145.645 56.1573C146.118 55.1946 146.33 54.2454 146.117 54.0473C145.904 53.8492 145.31 54.7037 144.796 55.9457ZM33.5264 61.605C32.5993 62.3593 32.2652 62.9741 32.786 62.9711C33.306 62.9691 34.4906 62.3496 35.4186 61.5961C36.3456 60.8418 36.6798 60.227 36.1589 60.23C35.639 60.232 34.4543 60.8515 33.5264 61.605ZM167.227 56.5402C168.115 57.0489 168.646 57.8068 168.408 58.2253C168.169 58.6429 168.632 59.212 169.436 59.4886C170.524 59.8625 170.783 60.688 170.45 62.7181C170.204 64.218 170.312 65.2391 170.689 64.9874C171.067 64.7356 171.939 66.2206 172.628 68.2865C173.498 70.8902 174.746 72.514 176.698 73.577C179.673 75.1968 179.411 73.6663 176.364 71.622C175.502 71.0428 174.047 68.2789 173.133 65.4802C170.818 58.3931 169.422 56.049 167.376 55.8158C165.741 55.6298 165.731 55.6829 167.227 56.5402ZM193.92 58.3494C196.097 60.9093 196.642 62.101 195.87 62.6158C195.155 63.0929 195.721 63.6745 197.578 64.3683C200.395 65.4217 201.329 66.8929 199.296 67.0747C198.684 67.1291 199.005 67.5387 200.01 67.9853C201.014 68.4309 202.755 70.0517 203.879 71.5869C206.012 74.4995 210.409 87.177 209.3 87.2157C208.352 87.2488 204.309 84.545 203.009 83.0089C202.385 82.2711 201.161 79.7861 200.29 77.4862C199.34 74.9791 197.486 72.3606 195.658 70.9465C192.997 68.8869 192.457 67.7772 191.401 62.2037C189.683 53.1407 189.599 53.2696 193.92 58.3494ZM147.254 59.896C147.089 61.376 147.299 62.575 147.721 62.5603C148.651 62.5278 150.032 58.7267 149.448 57.8089C148.54 56.385 147.538 57.3386 147.254 59.896ZM46.9789 62.564C46.6732 63.0983 46.6217 63.7211 46.8637 63.9467C47.1056 64.1724 47.5199 63.729 47.7844 62.9612C48.3328 61.3676 47.8091 61.1089 46.9789 62.564ZM37.2532 65.4671C37.5937 65.978 39.3212 66.3456 41.0927 66.2838C45.031 66.1463 44.6752 65.7057 40.0896 65.0402C37.7357 64.6988 36.8309 64.835 37.2532 65.4671ZM137.014 65.7478C136.098 68.7008 135.9 70.7262 136.599 69.9762C137.646 68.854 139.432 62.8497 138.712 62.8748C138.263 62.8905 137.499 64.1833 137.014 65.7478ZM148.259 66.7857C148.727 68.1204 149.148 74.238 149.193 80.3794C149.24 86.5208 149.466 91.3379 149.698 91.0841C149.928 90.8304 150.424 86.1891 150.798 80.7702C151.172 75.3512 151.66 70.107 151.883 69.1164C152.172 67.8303 152.064 67.6634 151.505 68.5318C150.929 69.4258 150.55 69.0253 150.075 67.018C149.72 65.5159 148.974 64.3035 148.418 64.3229C147.724 64.3472 147.673 65.1201 148.259 66.7857ZM136.098 82.7569C136.36 88.964 136.815 93.884 137.11 93.6905C137.917 93.1584 137.432 79.0638 136.466 75.0159C135.876 72.5364 135.764 74.8635 136.098 82.7569ZM185.443 73.3744L183.259 74.7963L185.469 74.1276C186.685 73.759 188.27 73.0961 188.992 72.6536C190.158 71.9391 190.155 71.8553 188.966 71.9013C188.23 71.9297 186.644 72.5926 185.443 73.3744ZM164.151 77.7287C164.168 78.2195 164.799 79.3796 165.552 80.3076C166.307 81.2347 166.909 81.5925 166.892 81.1017C166.875 80.6108 166.244 79.4498 165.49 78.5227C164.737 77.5947 164.133 77.2379 164.151 77.7287ZM191.168 78.3766C191.824 79.0417 192.498 79.4471 192.663 79.2778C193.175 78.756 191.775 77.1054 190.848 77.1377C190.366 77.1546 190.51 77.7124 191.168 78.3766ZM193.635 77.6864C193.653 78.1924 194.288 79.0861 195.045 79.6717C195.803 80.2574 196.437 81.1377 196.454 81.6285C196.471 82.1265 195.876 82.0499 195.107 81.4566C194.156 80.7214 193.741 80.702 193.765 81.3945C193.784 81.9451 194.169 82.383 194.619 82.3672C195.071 82.3514 196.371 83.7348 197.51 85.441C198.648 87.1472 199.784 88.3227 200.035 88.0548C200.285 87.7861 200.06 87.0693 199.534 86.4613C199.008 85.8533 198.263 84.1021 197.88 82.5697C197.218 79.9292 193.567 75.7284 193.635 77.6864ZM65.6725 85.0831C64.2396 85.7595 64.1932 85.9139 65.4257 85.9227C66.2568 85.9276 67.1711 85.5222 67.4574 85.0207C68.056 83.9723 68.0248 83.9734 65.6725 85.0831ZM181.959 80.739C182.612 80.9745 183.381 80.9154 183.667 80.6088C183.953 80.3022 183.419 80.1099 182.479 80.1812C181.441 80.2603 181.237 80.4792 181.959 80.739ZM185.322 82.6919C185.642 83.1721 186.081 83.5589 186.298 83.5513C186.515 83.5437 186.678 83.136 186.66 82.6451C186.643 82.1543 186.204 81.7676 185.684 81.7857C185.165 81.8038 185.001 82.2116 185.322 82.6919ZM106.479 99.1233C105.157 101.699 104.673 103.273 105.405 102.622C106.788 101.39 109.742 95.2413 109.195 94.7314C109.024 94.5712 107.801 96.5475 106.479 99.1233ZM135.024 107.68C135.084 109.398 135.292 110.094 135.486 109.228C135.681 108.361 135.632 106.955 135.377 106.104C135.123 105.253 134.964 105.962 135.024 107.68ZM53.1442 112.687C48.8433 114.775 48.0979 119.478 51.4402 123.434C54.9783 127.623 64.1559 125.452 66.948 119.766C68.0975 117.425 67.0638 114.562 64.5424 113.108C61.7501 111.496 56.0323 111.286 53.1442 112.687ZM63.7344 116.171C65.1651 117.505 63.3477 120.758 60.7549 121.506C57.0192 122.584 54.6359 121.809 53.6702 119.203C52.1648 115.143 52.9848 114.342 58.1582 114.824C60.6825 115.058 63.1922 115.665 63.7344 116.171ZM239.084 110.813C237.197 112.837 237.499 115.47 239.747 116.574C241.857 117.61 241.756 117.661 243.065 114.912C244.384 112.141 244.212 111.218 242.19 110.225C240.866 109.575 240.104 109.719 239.084 110.813ZM241.344 113.349C241.37 114.086 240.789 114.709 240.052 114.735C238.658 114.783 238.245 113.741 239.236 112.679C240.227 111.616 241.296 111.955 241.344 113.349Z" fill="#fff"/>
</svg>
