<svg width="209" height="160" viewBox="0 0 209 160" fill="none" xmlns="http://www.w3.org/2000/svg">
<path fill-rule="evenodd" clip-rule="evenodd" d="M90.6175 3.46183C74.7328 5.07947 51.0948 12.2834 46.0031 17.0586C45.2413 17.7739 42.3024 19.2638 39.4739 20.3702C31.478 23.4988 30.5067 24.2597 20.346 35.3552C9.94324 46.7157 8.89972 48.3175 8.61532 53.3641C8.50895 55.2424 7.29233 58.5218 5.87674 60.7461C4.47639 62.9476 2.56293 67.9833 1.62647 71.9363C0.200688 77.9511 0.0580121 80.4989 0.751815 87.5588C1.75739 97.7805 4.92248 111.901 7.71104 118.606C10.6678 125.712 16.5706 132.989 21.0939 135.101C23.1762 136.074 26.939 138.965 29.4546 141.527C35.5046 147.686 45.3033 153.241 52.6868 154.698C74.0436 158.914 83.0171 159.747 95.5925 158.682C115.571 156.991 130.515 152.983 145.748 145.229C172.326 131.703 185.835 108.69 184.945 78.4537C184.367 58.7906 183.536 53.7901 180.46 51.4358C179.849 50.9671 179.039 48.6833 178.663 46.3603C177.731 40.623 173.588 33.4109 171.27 33.4918C169.963 33.5375 170.506 35.2301 172.903 38.5917C174.18 40.3825 175.534 43.1534 175.912 44.7511L176.599 47.6548L172.123 47.2195C169.196 46.9341 167.446 47.1343 167.069 47.7943C166.694 48.4506 167.435 48.7722 169.184 48.7112C175.575 48.488 182.148 54.6823 180.991 59.8369C180.764 60.8481 180.907 61.8641 181.31 62.0942C182.354 62.6894 184.19 83.858 183.514 87.5052C183.026 90.1408 182.846 90.3145 182.186 88.7962C181.549 87.3332 181.427 87.4934 181.454 89.7573C181.472 91.2508 181.102 92.8853 180.633 93.389C180.163 93.8928 179.727 95.3915 179.664 96.7195C179.601 98.0474 179.278 99.1439 178.948 99.1554C177.769 99.1966 177.466 101.823 178.332 104.489C178.952 106.397 178.919 107.032 178.219 106.632C177.577 106.265 177.414 106.696 177.759 107.849C178.139 109.121 177.877 109.618 176.847 109.58C175.869 109.543 175.411 110.271 175.435 111.822C175.454 113.085 174.569 115.722 173.467 117.682C172.365 119.641 171.561 121.573 171.679 121.972C171.798 122.373 171.494 122.47 171.004 122.191C170.496 121.901 171.153 120.038 172.534 117.851C175.675 112.882 174.883 111.732 171.358 116.143C169.855 118.024 168.127 119.905 167.518 120.324C166.909 120.743 166.654 121.45 166.951 121.896C167.248 122.342 166.581 123.682 165.469 124.874C162.935 127.592 158.163 131.004 159.032 129.476C160.23 127.37 158.026 128.376 155.543 131.068C153.268 133.533 139.346 141.349 134.248 143.022C133.037 143.42 131.262 144.252 130.303 144.871C129.345 145.49 126.185 146.845 123.281 147.881C120.377 148.918 117.416 150.249 116.702 150.838C113.842 153.194 107.037 154.206 93.6447 154.265C86.1849 154.298 78.6188 154.145 76.8319 153.927C69.4623 153.024 60.0938 151.036 59.5275 150.255C59.1934 149.795 55.6381 149.452 51.6265 149.493C44.3525 149.566 44.3238 149.557 40.8408 146.109C38.9194 144.207 37.1272 142.103 36.8571 141.435C36.4796 140.499 36.1186 140.469 35.2915 141.302C34.1235 142.479 33.6813 142.264 28.9951 138.242C27.6192 137.061 24.7823 135.046 22.6892 133.764C18.1543 130.985 13.6866 126.766 11.8752 123.55C6.72886 114.412 3.1232 100.126 2.66112 87.0466C2.32549 77.5375 2.41659 76.9836 5.85717 67.6357C7.82813 62.2817 10.4097 56.9874 11.6771 55.6985C12.9299 54.4252 16.2713 52.5176 19.1014 51.4583C22.0125 50.3695 23.7936 49.2746 23.2027 48.938C22.6281 48.6097 21.5348 48.606 20.7719 48.9302C19.9782 49.2662 18.8113 48.8651 18.043 47.9902C16.7784 46.5518 16.7255 46.5679 17.14 48.2579C17.4819 49.6537 16.8291 50.4044 14.2055 51.6356C11.0602 53.1104 10.8279 53.1167 10.7829 51.7265C10.756 50.906 11.439 48.9817 12.3014 47.4494C14.6076 43.3533 28.3294 28.1455 31.8243 25.813C34.7689 23.848 34.8809 23.8388 36.7501 25.3942C38.6294 26.9572 38.6515 26.952 38.0041 25.1C37.4201 23.4294 37.832 23.0791 41.6176 22.0301C43.9684 21.3786 46.8747 20.9947 48.0776 21.1764C53.0586 21.9308 55.1628 22.6351 54.7253 23.4015C54.47 23.8479 54.8865 24.1915 55.6491 24.1649C56.4429 24.1372 57.0631 24.8773 57.0986 25.8962C57.1328 26.8751 57.5612 27.662 58.0507 27.6449C58.5401 27.6278 58.9971 28.3139 59.0652 29.1687C59.1439 30.146 59.345 30.2931 59.6083 29.5649C59.8391 28.9278 59.5352 27.8541 58.9324 27.1775C58.3306 26.5018 58.0557 25.5679 58.321 25.1024C58.5863 24.637 58.1719 23.7685 57.4 23.1718C56.4404 22.4311 56.1435 21.2796 56.4624 19.54C56.9466 16.8983 55.5633 15.9915 54.7326 18.4056C53.9196 20.7674 47.9755 19.7838 47.8878 17.2734C47.8484 16.145 52.6195 14.2785 52.992 15.2767C53.5012 16.6435 54.9849 16.3939 54.9345 14.9505C54.8894 13.6593 69.3638 8.55018 79.1378 6.40733C88.7216 4.30586 106.9 3.35744 113.378 4.62004C126.781 7.23385 133.138 9.16532 133.203 10.6447C133.245 11.5921 133.483 11.738 133.886 11.0637C134.323 10.3312 135.819 10.6086 138.995 12.0106C141.465 13.1004 143.842 14.3244 144.279 14.7315C145.046 15.4469 134.104 18.4315 131.957 18.0922C131.378 18.001 130.648 18.3776 130.333 18.9294C129.923 19.6467 130.985 19.68 134.056 19.0453C136.418 18.5574 141.155 18.0605 144.581 17.9409C149.702 17.7621 151.348 18.0788 153.828 19.7198C155.487 20.8184 157.07 21.4741 157.345 21.1784C158.121 20.3468 153.823 17.3509 150.348 16.3006C148.634 15.7822 145.66 14.3011 143.74 13.0103C137.799 9.01592 117.028 3.22559 106.177 2.53981C103.967 2.40048 96.9654 2.81517 90.6175 3.46183ZM165.955 2.71628C164.529 6.93314 168.631 9.65882 173.241 7.55729C176.337 6.14658 176.428 4.85328 173.606 2.38139C170.749 -0.119593 166.856 0.0502112 165.955 2.71628ZM172.205 3.67945C173.206 4.80363 173.213 5.17848 172.247 5.82343C170.56 6.94882 168.668 6.04822 168.599 4.08781C168.528 2.04107 170.543 1.81299 172.205 3.67945ZM14.4879 12.7759C9.09598 15.9471 14.155 20.5924 20.8714 18.6374C25.4217 17.3131 26.6196 14.9031 23.7975 12.7475C21.2261 10.7836 17.8578 10.7943 14.4879 12.7759ZM21.0659 12.9302C22.8146 13.7895 23.4928 15.9371 22.2522 16.6914C20.0632 18.0223 16.8401 18.2124 15.2831 17.1023C13.5845 15.892 13.5958 15.806 15.6989 14.0086C18.2061 11.8655 18.6963 11.7674 21.0659 12.9302ZM95.5118 11.7845C95.1966 12.1216 94.9534 12.8117 94.9711 13.3181C94.9905 13.8751 95.4034 13.8081 96.0191 13.1478C96.5782 12.5483 96.8214 11.8582 96.5599 11.6143C96.2983 11.3704 95.8261 11.4466 95.5118 11.7845ZM89.958 13.6116C89.315 15.4802 90.3506 17.6073 91.8777 17.5539C93.6129 17.4933 94.3908 14.8405 93.0981 13.3888C91.7201 11.8421 90.538 11.9261 89.958 13.6116ZM86.9818 14.161C86.9989 14.6505 87.4133 15.0369 87.9028 15.0198C88.3922 15.0027 88.7787 14.5883 88.7616 14.0989C88.7445 13.6094 88.33 13.223 87.8406 13.2401C87.3512 13.2572 86.9647 13.6716 86.9818 14.161ZM68.3978 17.7796C68.4556 19.4339 69.3317 20.0813 70.7162 19.4939C72.1833 18.8716 71.2779 16.4914 69.596 16.5501C68.9143 16.5739 68.375 17.1273 68.3978 17.7796ZM82.1353 17.0807C81.8255 17.6243 81.9321 18.4055 82.3733 18.8169C83.4628 19.8329 85.7256 18.2205 84.9152 17.0059C84.0944 15.7747 82.8615 15.808 82.1353 17.0807ZM102.281 18.5271C102.306 19.2613 102.728 19.848 103.217 19.8309C103.707 19.8138 104.086 19.1991 104.061 18.465C104.035 17.7308 103.613 17.1441 103.124 17.1612C102.635 17.1783 102.255 17.793 102.281 18.5271ZM106.73 18.3717C106.756 19.1059 106.934 19.7011 107.127 19.6943C107.319 19.6876 107.686 19.0734 107.942 18.3294C108.198 17.5854 108.019 16.9903 107.546 17.0068C107.072 17.0234 106.705 17.6376 106.73 18.3717ZM60.8194 21.8166C60.1447 23.7753 62.0912 25.5276 63.3923 24.1324C64.4916 22.9535 63.6931 20.3201 62.2515 20.3704C61.7309 20.3886 61.0872 21.0392 60.8194 21.8166ZM89.9574 20.8133C90.0363 21.8486 90.2546 22.0521 90.5137 21.3329C90.7484 20.6815 90.6896 19.9146 90.3838 19.6295C90.0781 19.3444 89.8864 19.8767 89.9574 20.8133ZM72.3403 22.242C70.8037 24.115 71.0236 24.519 73.5304 24.4314C75.9527 24.3468 76.0088 24.2691 75.1398 22.2209C74.4223 20.529 73.7409 20.535 72.3403 22.242ZM77.8917 22.5417C77.0941 23.9399 78.2826 24.7822 79.3853 23.5997C80.002 22.9385 79.9997 22.4405 79.3788 22.0862C78.8697 21.7957 78.2006 22.0008 77.8917 22.5417ZM127.751 20.7561C127.466 21.2561 127.657 21.6503 128.175 21.6322C128.693 21.6141 129.103 21.1989 129.086 20.7094C129.069 20.22 128.879 19.8257 128.663 19.8333C128.446 19.8408 128.037 20.256 127.751 20.7561ZM40.1287 24.7069C40.1458 25.1963 40.5602 25.5828 41.0497 25.5657C41.5391 25.5486 41.9256 25.1342 41.9085 24.6447C41.8914 24.1553 41.477 23.7688 40.9875 23.7859C40.4981 23.803 40.1116 24.2174 40.1287 24.7069ZM51.2833 25.2083C50.9979 25.7083 51.4123 26.0948 52.2043 26.0671C52.9963 26.0395 53.3827 25.625 53.0631 25.1462C52.7435 24.6673 52.329 24.2808 52.1421 24.2873C51.9553 24.2939 51.5688 24.7083 51.2833 25.2083ZM32.663 26.688C32.0895 27.6926 33.53 28.7061 34.3235 27.8551C35.1394 26.9793 34.9397 25.779 33.9831 25.8124C33.5222 25.8285 32.9283 26.2226 32.663 26.688ZM107.332 24.2195C107.022 24.7632 107.229 25.638 107.793 26.1636C108.545 26.8652 108.799 26.5989 108.749 25.1617C108.674 23.0126 108.201 22.6977 107.332 24.2195ZM60.9239 27.0028C62.6047 28.1879 63.2214 29.7488 61.6568 28.8554C61.1568 28.5699 60.7626 28.761 60.7806 29.2789C60.7987 29.7969 61.4142 30.2003 62.1484 30.1747C62.8825 30.1491 63.465 29.6075 63.4428 28.9713C63.3938 27.567 61.5415 25.7304 60.2587 25.8144C59.7449 25.8475 60.0451 26.3822 60.9239 27.0028ZM71.3816 26.6813C71.4062 27.387 71.8354 28.197 72.3354 28.4825C72.8354 28.768 73.2157 28.1765 73.1805 27.1691C73.1454 26.1618 72.7161 25.3508 72.2267 25.3679C71.7372 25.385 71.3569 25.9756 71.3816 26.6813ZM122.813 26.2636C120.704 28.9086 121.031 30.6479 123.174 28.18C124.15 27.0562 124.803 25.746 124.625 25.2684C124.447 24.7899 123.631 25.2381 122.813 26.2636ZM130.714 24.8107C130.399 25.1478 130.156 25.8379 130.174 26.3443C130.193 26.9013 130.606 26.8343 131.222 26.174C131.781 25.5745 132.024 24.8844 131.763 24.6405C131.501 24.3966 131.029 24.4728 130.714 24.8107ZM145.391 24.5504C145.814 25.6841 147.041 25.8479 147.114 24.7797C147.138 24.4234 146.672 23.9888 146.078 23.8136C145.484 23.6383 145.175 23.9699 145.391 24.5504ZM137.894 25.4198C136.542 26.8703 137.433 28.5525 139.371 28.2086C140.467 28.0136 141.343 27.2586 141.317 26.5316C141.268 25.1175 138.894 24.3469 137.894 25.4198ZM161.298 24.639C161.333 25.6375 167.307 31.8483 168.203 31.817C169.182 31.7828 166.979 28.777 164.103 26.225C162.543 24.8406 161.28 24.1265 161.298 24.639ZM50.1168 30.0754C50.141 30.7686 49.6673 31.5407 49.0631 31.7917C48.3025 32.1078 48.5268 32.6613 49.7942 33.5935C51.3534 34.7419 51.4044 34.9522 50.1407 35.0203C49.3262 35.0648 48.4628 34.6067 48.2225 34.0021C47.9832 33.3984 47.501 33.188 47.1514 33.5352C46.8026 33.8824 47.3661 35.0166 48.4039 36.0557C50.1118 37.7647 50.418 37.8083 51.6281 36.5107C53.1843 34.8419 53.3295 33.1556 51.9119 33.2051C51.3041 33.2263 51.1096 32.3778 51.4061 30.9953C51.6826 29.7009 51.5028 28.7645 50.9796 28.7828C50.4812 28.8002 50.0926 29.3813 50.1168 30.0754ZM79.4874 29.1763C79.514 29.9389 79.9277 30.3023 80.4065 29.9826C80.8854 29.6629 81.2641 29.0252 81.248 28.5642C81.2319 28.1032 80.8183 27.7408 80.3288 27.7579C79.8394 27.775 79.4608 28.4137 79.4874 29.1763ZM45.009 30.5113C43.083 30.9518 42.2023 33.5441 43.999 33.4814C44.4884 33.4643 44.8743 33.0321 44.8564 32.5213C44.8386 32.0105 45.4875 31.6876 46.2979 31.8027C47.1091 31.9187 47.9296 31.507 48.1227 30.8872C48.3149 30.2684 48.1409 29.8272 47.7348 29.9082C47.3296 29.9892 46.1023 30.2602 45.009 30.5113ZM55.4898 30.8527C55.5154 31.5869 55.9369 32.1736 56.4263 32.1565C56.9157 32.1394 57.2952 31.5247 57.2696 30.7906C57.2439 30.0564 56.8225 29.4697 56.3331 29.4868C55.8436 29.5039 55.4641 30.1186 55.4898 30.8527ZM36.4039 32.8557C36.7236 33.3345 37.1611 33.7202 37.3774 33.7126C37.5936 33.7051 37.7558 33.2985 37.7387 32.809C37.7216 32.3196 37.2832 31.934 36.7653 31.9521C36.2473 31.9702 36.0843 32.3768 36.4039 32.8557ZM39.9634 32.7314C40.2831 33.2102 40.7207 33.5959 40.9369 33.5883C41.1532 33.5808 41.3154 33.1742 41.2983 32.6847C41.2812 32.1953 40.8427 31.8097 40.3248 31.8278C39.8069 31.8459 39.6438 32.2525 39.9634 32.7314ZM64.4352 31.8768C63.3201 32.6534 63.3566 32.7805 64.6883 32.7455C65.5446 32.7228 66.2321 32.3041 66.215 31.8146C66.1771 30.729 66.0765 30.7325 64.4352 31.8768ZM146.021 28.7061C145.335 29.442 146.187 30.8039 147.309 30.7647C147.77 30.7486 148.126 30.1348 148.1 29.4006C148.052 28.0249 146.988 27.6691 146.021 28.7061ZM119.462 32.8901C118.048 34.1298 116.878 36.3517 116.497 38.523C116.067 40.9748 115.466 42.0061 114.597 41.7843C113.899 41.6055 111.086 41.2948 108.348 41.0938C105.609 40.8927 102.261 40.0563 100.907 39.2348C99.5539 38.4143 98.07 37.9939 97.6103 38.3004C97.1506 38.6078 96.9653 38.3042 97.1991 37.6261C97.432 36.9479 97.2107 35.4312 96.7072 34.2558C95.8489 32.2552 95.7588 32.3546 95.2952 35.8171C94.8149 39.4102 94.683 39.5377 90.692 40.2678C77.6753 42.6504 77.2188 42.6931 77.6329 41.4892C77.8562 40.8417 77.6502 40.325 77.1768 40.3415C76.7025 40.3581 76.3355 40.9723 76.3611 41.7065C76.3867 42.4406 76.0073 43.0553 75.5178 43.0724C75.0284 43.0895 74.607 42.5028 74.5813 41.7686C74.5557 41.0345 74.1076 40.4487 73.5852 40.467C73.0397 40.486 72.9025 41.2508 73.262 42.2602C74.1481 44.7471 72.5385 44.5031 71.0389 41.9226C69.4198 39.1352 68.0166 40.0814 68.8653 43.3893C69.2748 44.985 69.1603 45.9673 68.5623 45.9882C68.0346 46.0066 67.5881 45.6212 67.571 45.1318C67.5539 44.6424 67.1155 44.2568 66.5975 44.2748C66.0796 44.2929 65.9034 44.6795 66.2071 45.1349C66.5107 45.5894 65.8883 46.4673 64.8247 47.0854C63.7611 47.7034 62.1457 48.9538 61.2348 49.8632C60.3248 50.7726 58.9453 51.2983 58.1697 51.0313C57.1615 50.6843 56.9243 50.934 57.337 51.9086C57.6554 52.6575 57.4819 53.7354 56.952 54.3036C55.6878 55.6593 54.2908 55.6867 55.0582 54.3404C55.426 53.6976 55.2755 53.546 54.6704 53.9503C54.1279 54.3123 52.7568 54.1365 51.6239 53.5595C50.4909 52.9825 49.2774 52.6008 48.9276 52.7128C48.5778 52.8248 48.6455 51.8789 49.077 50.6111C50.16 47.4353 49.9829 46.7786 48.5806 48.769C47.5585 50.2214 46.7547 50.3688 42.6331 49.8597C39.4931 49.4713 37.8532 48.8434 37.8244 48.0185C37.8003 47.3297 37.2747 46.6166 36.6553 46.4342C36.0369 46.2517 35.5469 46.6359 35.567 47.2892C35.5908 48.0474 34.3065 48.5948 32.0072 48.807C30.0284 48.9892 27.7452 49.5581 26.9327 50.0711C25.707 50.8445 25.9116 51.0156 28.1305 51.0762C34.1485 51.2403 35.4655 51.3226 39.9618 51.8186C42.5448 52.1027 44.6685 52.6531 44.682 53.0411C44.6956 53.4282 44.1487 54.9129 43.4661 56.3409C42.7845 57.768 42.291 59.7355 42.3715 60.7128L42.5164 62.4897L43.0807 60.688C44.2156 57.0587 46.3795 52.5871 46.4529 53.7178C46.4939 54.3579 46.8565 54.6624 47.257 54.3945C47.6584 54.1275 49.3148 54.9481 50.938 56.2181L53.8894 58.5286L52.4773 61.6963C51.6998 63.4386 50.6989 65.3695 50.2527 65.9874C49.8066 66.6053 49.3597 69.9068 49.2607 73.3253C49.1018 78.7996 49.445 80.3362 52.1428 86.2293C53.8278 89.908 56.2718 93.8392 57.5736 94.9654C58.8763 96.0906 59.766 97.1759 59.5521 97.3767C58.509 98.3531 54.3055 98.9935 54.2771 98.1802C54.2596 97.6818 53.8574 97.2869 53.3831 97.3035C52.9097 97.32 52.7731 97.9262 53.08 98.6505C53.4518 99.5267 53.0868 99.993 51.9873 100.044C51.0791 100.086 47.9804 101.748 45.1008 103.738C40.2002 107.124 39.6944 107.819 37.1511 114.644C35.6579 118.652 34.6624 122.446 34.94 123.073C35.2603 123.799 35.4498 123.638 35.4592 122.632C35.4815 120.335 40.81 109.124 42.6959 107.408C45.7882 104.592 50.9623 101.845 54.4613 101.159C58.1983 100.427 65.5421 102.609 64.642 104.184C64.3901 104.627 64.5109 104.92 64.9124 104.836C67.9259 104.204 72.4774 104.957 74.4771 106.421C76.6623 108.019 76.7673 108.347 75.6833 110.165C75.0292 111.261 74.1744 115.306 73.7839 119.152C72.7149 129.669 73.1594 131.017 74.7287 122.02C76.7392 110.5 77.3337 109.256 81.2071 108.476C86.0201 107.507 91.3059 107.448 90.7795 108.37C90.5268 108.813 90.9503 109.664 91.7213 110.259C92.7835 111.08 93.3654 111.084 94.1177 110.277C94.8709 109.47 94.8533 109.22 94.0444 109.248C91.9078 109.323 92.984 107.612 95.3527 107.167C96.692 106.917 93.3791 106.805 87.9909 106.92C78.3133 107.126 78.1401 107.092 73.7052 104.167C71.2356 102.538 68.7137 101.223 68.1005 101.244C66.0511 101.316 58.5928 93.8134 56.4305 89.5035C53.5912 83.847 53.2119 73.7504 55.614 67.7808C60.4369 55.7928 87.5192 42.5365 102.487 44.8373C104.986 45.2214 108.722 45.4767 110.789 45.4045C113.172 45.3213 116.464 46.1579 119.79 47.6927C124.158 49.7079 125.226 49.9077 126.178 48.8854C126.808 48.2112 127.821 47.4738 128.429 47.2467C129.247 46.9419 129.135 46.4594 128 45.4005C127.153 44.6112 126.038 43.9811 125.52 43.9992C124.59 44.0316 121.271 38.0907 121.492 36.7893C121.554 36.4192 121.238 36.13 120.789 36.1456C120.341 36.1613 120.132 37.5603 120.326 39.2552C120.52 40.9493 120.328 42.1348 119.898 41.8905C118.444 41.0601 118.935 36.4625 120.742 33.9929C123.062 30.8211 122.438 30.2825 119.462 32.8901ZM128.124 31.4347C127.839 31.9347 128.03 32.3289 128.548 32.3108C129.066 32.2928 129.476 31.8775 129.459 31.388C129.442 30.8986 129.252 30.5043 129.035 30.5119C128.819 30.5194 128.41 30.9347 128.124 31.4347ZM32.0477 35.6807C31.7127 36.268 31.8526 37.1344 32.3591 37.6068C32.9734 38.1796 33.4833 38.1101 33.8896 37.3983C34.2246 36.811 34.0848 35.9445 33.5783 35.4722C32.964 34.8994 32.4541 34.9689 32.0477 35.6807ZM68.3257 34.8513C66.7588 35.5983 65.4996 36.8415 65.5266 37.6139C65.5676 38.7886 66.1442 38.666 69.0572 36.8652C74.249 33.6555 73.7444 32.2671 68.3257 34.8513ZM56.5643 36.1084C56.5909 36.8711 57.0132 37.4818 57.5026 37.4647C57.9921 37.4476 58.3794 37.0572 58.3633 36.5962C58.3472 36.1353 57.9249 35.5255 57.4249 35.24C56.9249 34.9545 56.5377 35.3458 56.5643 36.1084ZM80.7507 34.9377C80.9443 35.4575 81.4826 35.87 81.948 35.8537C82.4134 35.8375 82.9216 35.3885 83.0786 34.8565C83.2355 34.3244 82.6972 33.912 81.8812 33.9405C81.0652 33.969 80.557 34.4179 80.7507 34.9377ZM75.2674 35.9008C75.2835 36.3618 75.7057 36.9716 76.2057 37.257C76.7057 37.5425 77.093 37.1512 77.0664 36.3886C77.0397 35.626 76.6175 35.0152 76.128 35.0323C75.6386 35.0494 75.2513 35.4398 75.2674 35.9008ZM147.352 33.4887C147.37 34.0066 147.776 34.1697 148.255 33.8501C148.734 33.5304 149.12 33.0928 149.112 32.8766C149.105 32.6604 148.698 32.4981 148.209 32.5152C147.719 32.5323 147.334 32.9708 147.352 33.4887ZM41.5003 38.469C41.5259 39.2031 41.9473 39.7898 42.4368 39.7727C42.9262 39.7556 43.3057 39.141 43.28 38.4068C43.2544 37.6727 42.833 37.086 42.3435 37.1031C41.8541 37.1202 41.4746 37.7348 41.5003 38.469ZM53.0532 37.6201C53.0703 38.1095 53.5088 38.4951 54.0267 38.477C54.5446 38.459 54.7077 38.0523 54.388 37.5735C54.0684 37.0946 53.6308 36.7089 53.4146 36.7165C53.1983 36.724 53.0361 37.1306 53.0532 37.6201ZM91.3319 36.6763C91.3566 37.3819 91.7476 38.1701 92.2012 38.4287C92.654 38.6882 92.7878 38.1053 92.4972 37.1345C91.881 35.0756 91.2676 34.8342 91.3319 36.6763ZM106.27 35.4793C106.921 35.714 107.687 35.6552 107.973 35.3494C108.258 35.0437 107.725 34.852 106.789 34.923C105.753 35.0019 105.55 35.2202 106.27 35.4793ZM143.645 34.1741C144.296 34.4089 145.063 34.35 145.348 34.0443C145.633 33.7385 145.1 33.5468 144.164 33.6178C143.129 33.6968 142.925 33.915 143.645 34.1741ZM162.539 34.6601C162.556 35.1335 161.96 35.312 161.216 35.0564C160.472 34.8 159.879 35.0336 159.898 35.5756C159.937 36.6808 160.898 36.7871 162.955 35.9143C164.487 35.2647 164.807 33.7175 163.399 33.7667C162.909 33.7838 162.522 34.1858 162.539 34.6601ZM100.993 37.4455C101.643 37.6803 102.41 37.6214 102.695 37.3156C102.981 37.0099 102.448 36.8182 101.512 36.8892C100.476 36.9681 100.273 37.1864 100.993 37.4455ZM29.1196 41.1288C29.1367 41.6182 29.5751 42.0038 30.0931 41.9857C30.611 41.9676 30.774 41.561 30.4544 41.0821C30.1347 40.6033 29.6972 40.2176 29.4809 40.2252C29.2647 40.2327 29.1025 40.6393 29.1196 41.1288ZM49.4106 40.1378C50.0612 40.3725 50.8281 40.3137 51.1132 40.0079C51.3983 39.7021 50.866 39.5105 49.9294 39.5815C48.8941 39.6604 48.6906 39.8787 49.4106 40.1378ZM149.254 36.9336C149.271 37.423 149.685 37.8095 150.175 37.7924C150.664 37.7753 151.051 37.3609 151.034 36.8714C151.017 36.382 150.602 35.9955 150.113 36.0126C149.623 36.0297 149.237 36.4441 149.254 36.9336ZM151.951 37.6217C151.989 38.7073 152.585 39.4902 153.352 39.4634C154.086 39.4377 154.674 39.0653 154.659 38.6355C154.644 38.2065 154.014 37.3777 153.258 36.7937C152.111 35.9072 151.896 36.043 151.951 37.6217ZM45.1704 41.5118C45.1885 42.0297 45.5951 42.1928 46.074 41.8731C46.5529 41.5535 46.9385 41.1159 46.931 40.8997C46.9234 40.6835 46.5168 40.5212 46.0274 40.5383C45.5379 40.5554 45.1523 40.9939 45.1704 41.5118ZM55.849 41.1389C55.8671 41.6568 56.2737 41.8199 56.7526 41.5002C57.2315 41.1806 57.6171 40.743 57.6096 40.5268C57.602 40.3105 57.1954 40.1483 56.706 40.1654C56.2165 40.1825 55.8309 40.621 55.849 41.1389ZM82.3674 39.8778C83.018 40.1126 83.7849 40.0538 84.07 39.748C84.3551 39.4422 83.8227 39.2506 82.8861 39.3216C81.8509 39.4005 81.6474 39.6188 82.3674 39.8778ZM104.346 39.4017C106.076 40.0665 113.535 40.305 112.746 39.6697C112.536 39.5006 110.153 39.2149 107.452 39.0348C104.395 38.8315 103.222 38.9696 104.346 39.4017ZM132.377 38.4139C132.394 38.9033 133.009 39.2828 133.743 39.2572C134.477 39.2315 135.064 38.8101 135.047 38.3207C135.03 37.8312 134.415 37.4518 133.681 37.4774C132.947 37.503 132.36 37.9245 132.377 38.4139ZM34.521 42.7221C34.5381 43.2115 34.9766 43.5971 35.4945 43.579C36.0124 43.561 36.1755 43.1543 35.8559 42.6755C35.5362 42.1966 35.0986 41.8109 34.8824 41.8185C34.6661 41.826 34.5039 42.2326 34.521 42.7221ZM38.9704 42.5667C38.9875 43.0561 39.402 43.4426 39.8914 43.4255C40.3808 43.4084 40.7673 42.994 40.7502 42.5045C40.7331 42.0151 40.3187 41.6286 39.8293 41.6457C39.3398 41.6628 38.9534 42.0773 38.9704 42.5667ZM22.1429 45.4557C22.1978 47.0272 24.1042 46.6871 24.5965 45.0181C24.7702 44.4293 24.2775 43.9707 23.5024 43.9978C22.7273 44.0249 22.1159 44.6806 22.1429 45.4557ZM28.3695 45.1643C28.3952 45.8985 28.8166 46.4851 29.306 46.4681C29.7955 46.451 30.1749 45.8363 30.1493 45.1022C30.1237 44.368 29.7022 43.7813 29.2128 43.7984C28.7234 43.8155 28.3439 44.4302 28.3695 45.1643ZM31.0236 44.6261C31.0407 45.1156 31.4552 45.502 31.9446 45.4849C32.434 45.4679 32.8205 45.0534 32.8034 44.564C32.7863 44.0746 32.3719 43.6881 31.8824 43.7052C31.393 43.7223 31.0065 44.1367 31.0236 44.6261ZM55.066 44.232C54.4821 44.9875 53.453 45.6248 52.7794 45.6483C52.1048 45.6719 51.5671 46.0916 51.5842 46.5811C51.6013 47.0705 51.8538 47.4626 52.1457 47.4524C53.1859 47.4161 57.7374 44.1869 57.7134 43.5017C57.6734 42.3555 56.2024 42.7615 55.066 44.232ZM163.341 41.342C163.649 42.0663 164.258 42.6464 164.695 42.6311C165.132 42.6159 165.468 42.0027 165.443 41.2686C165.417 40.5344 164.808 39.9543 164.089 39.9794C163.293 40.0072 163.001 40.5395 163.341 41.342ZM40.5678 45.7781C39.6592 46.7516 39.9373 47.6489 41.291 48.1148C42.1684 48.4174 42.3895 48.039 42.0334 46.8477C41.4695 44.9616 41.3854 44.9004 40.5678 45.7781ZM141.995 43.0363C141.454 44.6063 142.094 46.0933 143.293 46.0514C144.644 46.0043 144.942 43.4688 143.708 42.5158C142.797 41.8117 142.372 41.9406 141.995 43.0363ZM166.589 42.7325C167.196 44.3631 169.122 44.5694 169.067 42.9979C169.04 42.2228 168.384 41.6113 167.609 41.6384C166.834 41.6655 166.375 42.1573 166.589 42.7325ZM45.3861 47.6885C45.4032 48.1779 45.8176 48.5644 46.307 48.5473C46.7965 48.5302 47.1829 48.1158 47.1659 47.6263C47.1488 47.1369 46.7343 46.7504 46.2449 46.7675C45.7555 46.7846 45.369 47.199 45.3861 47.6885ZM59.3859 47.2816C58.5368 47.8164 58.0874 48.6215 58.3873 49.0707C59.2165 50.3141 60.613 49.9918 60.5633 48.5689C60.5391 47.8757 61.0132 47.0893 61.616 46.8205C62.2196 46.5527 62.3115 46.3276 61.8212 46.3207C61.331 46.3146 60.2351 46.7467 59.3859 47.2816ZM153.064 43.9808C153.082 44.4987 153.489 44.6619 153.967 44.3422C154.446 44.0226 154.832 43.585 154.824 43.3687C154.817 43.1525 154.41 42.9903 153.921 43.0074C153.431 43.0245 153.046 43.4629 153.064 43.9808ZM53.4939 49.8555C53.5147 50.2227 53.9466 51.1093 54.4537 51.8267C55.2653 52.9726 55.4736 52.968 56.1737 51.7898C56.7056 50.8963 56.6077 50.2359 55.8818 49.8095C54.4828 48.987 53.4473 49.0071 53.4939 49.8555ZM157.222 48.2379C156.909 48.787 158.134 49.097 160.315 49.0209C162.301 48.9515 163.913 48.4943 163.896 48.0049C163.879 47.5154 162.487 47.1631 160.803 47.2219C159.118 47.2807 157.507 47.7379 157.222 48.2379ZM34.2758 55.3717C34.8834 57.0023 36.8088 57.2086 36.754 55.6371C36.7269 54.862 36.0712 54.2505 35.2961 54.2776C34.521 54.3047 34.0615 54.7965 34.2758 55.3717ZM38.5156 55.0561C38.5327 55.5456 38.9712 55.9312 39.4891 55.9131C40.007 55.895 40.1701 55.4884 39.8504 55.0095C39.5308 54.5307 39.0932 54.145 38.877 54.1526C38.6607 54.1601 38.4985 54.5667 38.5156 55.0561ZM30.1289 56.1785C29.8628 56.644 30.0616 57.2616 30.5698 57.5521C31.078 57.8418 31.4716 57.4547 31.445 56.6921C31.3904 55.1285 30.8485 54.9176 30.1289 56.1785ZM128.015 52.6311C126.679 54.0641 131.69 63.385 133.757 63.3128C135.161 63.2638 137.555 58.7066 137.429 56.3241C137.352 54.8532 137.242 54.8704 136.071 56.5364C134.813 58.3284 134.791 58.3265 134.208 56.3787C133.884 55.295 133.265 54.4203 132.832 54.4354C132.401 54.4505 132.129 53.9753 132.232 53.3792C132.412 52.3216 128.887 51.6963 128.015 52.6311ZM15.4408 57.6439C15.4579 58.1333 15.8723 58.5198 16.3617 58.5027C16.8512 58.4856 17.2376 58.0712 17.2206 57.5817C17.2035 57.0923 16.789 56.7058 16.2996 56.7229C15.8102 56.74 15.4237 57.1544 15.4408 57.6439ZM161.514 52.4983C161.936 53.632 163.164 53.7959 163.237 52.7277C163.261 52.3714 162.795 51.9368 162.201 51.7616C161.607 51.5863 161.297 51.9179 161.514 52.4983ZM25.2587 58.1394C25.2748 58.6004 25.6971 59.2102 26.1971 59.4957C26.6971 59.7811 27.0844 59.3898 27.0577 58.6272C27.0311 57.8646 26.6088 57.2539 26.1194 57.271C25.63 57.2881 25.2427 57.6785 25.2587 58.1394ZM49.644 58.5308C49.7691 59.8432 50.2728 60.4903 50.9462 60.204C52.3817 59.5952 52.3007 58.6037 50.7175 57.3796C49.6791 56.5774 49.4773 56.7947 49.644 58.5308ZM168.07 53.2334C167.744 53.8043 167.911 54.6761 168.441 55.1699C169.678 56.3242 172.43 55.1838 171.892 53.7388C171.346 52.269 168.812 51.9334 168.07 53.2334ZM28.9707 60.3637C29.0496 61.399 29.2679 61.6025 29.527 60.8833C29.7617 60.2319 29.7029 59.465 29.3971 59.1799C29.0914 58.8948 28.8997 59.4271 28.9707 60.3637ZM31.9969 59.7386C32.3165 60.2175 32.7541 60.6032 32.9703 60.5956C33.1866 60.588 33.3488 60.1814 33.3317 59.692C33.3146 59.2026 32.8761 58.817 32.3582 58.835C31.8403 58.8531 31.6772 59.2598 31.9969 59.7386ZM174.996 54.8118C175.19 55.3316 175.728 55.744 176.194 55.7278C176.659 55.7115 177.167 55.2625 177.324 54.7305C177.481 54.1985 176.943 53.786 176.127 53.8145C175.311 53.843 174.803 54.292 174.996 54.8118ZM17.0015 61.9222C16.2022 63.3231 18.2716 67.3457 19.7648 67.2935C21.2073 67.2432 21.5159 66.1784 20.3914 65.1298C20.0175 64.782 19.685 63.8589 19.6515 63.0796C19.5807 61.4338 17.7395 60.6294 17.0015 61.9222ZM149.135 59.0507C149.173 60.1256 150.905 61.3206 151.501 60.6823C151.716 60.4502 151.265 59.7755 150.498 59.1822C149.628 58.5096 149.115 58.4598 149.135 59.0507ZM42.5264 64.3853C42.4961 65.4288 41.8883 66.8016 41.1754 67.4368C40.4029 68.1249 39.9791 69.8931 40.1255 71.8143C40.3554 74.8258 40.3904 74.8619 40.6637 72.355C40.8251 70.8793 41.5332 68.9835 42.2371 68.141C42.9409 67.2994 43.3068 65.6829 43.0498 64.5488C42.6193 62.6554 42.5769 62.6417 42.5264 64.3853ZM25.1004 65.2638C24.8342 65.7293 25.0331 66.3469 25.5413 66.6374C26.0494 66.927 26.4431 66.54 26.4164 65.7774C26.3618 64.2138 25.8199 64.0029 25.1004 65.2638ZM36.6327 64.9225C36.9524 65.4014 37.39 65.7871 37.6062 65.7795C37.8225 65.772 37.9847 65.3654 37.9676 64.8759C37.9505 64.3865 37.512 64.0009 36.9941 64.019C36.4762 64.037 36.3131 64.4437 36.6327 64.9225ZM169.27 60.215C169 60.6887 169.166 61.2967 169.64 61.5671C170.113 61.8374 170.721 61.6709 170.992 61.1973C171.262 60.7237 171.096 60.1156 170.622 59.8453C170.148 59.5749 169.54 59.7414 169.27 60.215ZM144.958 62.0975C145.152 62.6173 145.69 63.0298 146.155 63.0135C146.621 62.9973 147.129 62.5483 147.286 62.0163C147.443 61.4842 146.904 61.0718 146.088 61.1003C145.272 61.1288 144.764 61.5777 144.958 62.0975ZM9.22265 67.389C8.25563 68.426 8.68476 69.4624 10.0605 69.4143C10.7947 69.3887 11.3822 68.9913 11.3661 68.5303C11.3269 67.4082 9.90884 66.6532 9.22265 67.389ZM27.4804 67.8215C25.9749 69.0546 25.7218 69.6898 26.5482 70.1617C27.1973 70.5319 28.0088 70.2728 28.4461 69.5546C29.0739 68.5241 29.3839 68.5729 30.1823 69.8254C31.1551 71.3524 32.8842 71.8792 32.8029 70.6248C32.7794 70.2577 32.0368 69.0969 31.1536 68.0434C29.5853 66.1745 29.4986 66.1695 27.4804 67.8215ZM33.2857 66.5639C33.0329 67.0057 33.1686 67.8813 33.587 68.5081C34.1651 69.3736 34.4962 69.387 34.9672 68.5624C35.3081 67.9651 35.1724 67.0905 34.6659 66.6181C34.1502 66.1372 33.5426 66.1139 33.2857 66.5639ZM44.8863 67.7171C44.5845 68.5927 44.9339 69.3628 45.7609 69.6476C47.8134 70.3546 48.4509 69.117 46.8181 67.5953C45.5242 66.3886 45.3392 66.4004 44.8863 67.7171ZM153.761 63.9507C153.787 64.6849 154.166 65.2731 154.603 65.2578C155.039 65.2425 155.607 64.6213 155.863 63.8773C156.146 63.0531 155.817 62.5425 155.022 62.5702C154.303 62.5954 153.736 63.2166 153.761 63.9507ZM37.6469 68.451C37.9666 68.9299 38.4042 69.3155 38.6204 69.308C38.8366 69.3004 38.9988 68.8938 38.9817 68.4044C38.9647 67.915 38.5262 67.5293 38.0083 67.5474C37.4904 67.5655 37.3273 67.9721 37.6469 68.451ZM14.1271 71.0543C14.1442 71.5437 14.5587 71.9302 15.0481 71.9131C15.5375 71.896 15.924 71.4816 15.9069 70.9921C15.8898 70.5027 15.4754 70.1162 14.986 70.1333C14.4965 70.1504 14.1101 70.5648 14.1271 71.0543ZM166.297 65.7404C166.314 66.2298 166.729 66.6163 167.218 66.5992C167.708 66.5821 168.094 66.1677 168.077 65.6782C168.06 65.1888 167.646 64.8023 167.156 64.8194C166.667 64.8365 166.28 65.2509 166.297 65.7404ZM42.6618 71.7311C42.6981 72.7695 43.1041 73.6062 43.5651 73.5901C45.1064 73.5363 45.3374 71.9602 43.9593 70.8955C42.8247 70.0183 42.6069 70.1586 42.6618 71.7311ZM133.934 67.9842C133.784 68.6025 132.89 73.3442 131.946 78.5225C131.001 83.7009 129.829 88.8096 129.34 89.8763C128.344 92.0467 122.734 97.2704 118.023 100.414C116.316 101.554 115.125 102.677 115.376 102.911C115.627 103.145 117.697 101.98 119.977 100.323C122.415 98.5502 124.272 97.712 124.486 98.2864C125.144 100.053 126.483 99.2484 126.409 97.1296C126.313 94.3976 127.157 93.6011 128.801 94.8712C129.877 95.7032 130.429 95.5111 131.663 93.8731C133.426 91.5334 134.396 91.1983 133.721 93.1616C133.464 93.9056 133.668 94.4998 134.175 94.4822C134.68 94.4645 135.203 93.8386 135.335 93.0909C135.776 90.6022 141.65 94.3566 144.083 98.681L146.244 102.525L145.595 98.9837C145.116 96.3729 144.057 94.7215 141.565 92.6987C139.707 91.1893 137.485 89.9634 136.628 89.9755C135.771 89.9867 135.048 89.3954 135.023 88.6612C134.997 87.9271 134.533 87.3419 133.991 87.3608C133.449 87.3797 133.249 87.9677 133.546 88.6674C133.91 89.526 133.653 89.7907 132.752 89.4809C132.019 89.2286 131.588 88.3615 131.797 87.555C132.005 86.7477 132.388 84.8775 132.648 83.3983C132.908 81.9192 133.587 78.8885 134.156 76.6634C135.751 70.4253 136.1 66.7949 135.102 66.8298C134.609 66.847 134.083 67.3669 133.934 67.9842ZM35.5465 72.0882C35.5636 72.5777 36.1783 72.9571 36.9124 72.9315C37.6466 72.9059 38.2333 72.4844 38.2162 71.995C38.1991 71.5056 37.5844 71.1261 36.8503 71.1517C36.1161 71.1774 35.5294 71.5988 35.5465 72.0882ZM22.2474 73.9631C22.3023 75.5346 24.2087 75.1945 24.701 73.5254C24.8747 72.9367 24.382 72.4781 23.6069 72.5052C22.8319 72.5322 22.2204 73.188 22.2474 73.9631ZM30.2397 73.2064C30.2814 74.3997 31.8052 74.9417 33.3161 74.3009C35.3882 73.4222 34.9727 72.5716 32.4421 72.5138C31.2169 72.4853 30.2255 72.797 30.2397 73.2064ZM147.258 69.0781C147.578 69.557 148.215 69.9357 148.676 69.9196C149.137 69.9035 149.5 69.4899 149.483 69.0005C149.466 68.511 148.827 68.1324 148.064 68.159C147.302 68.1857 146.938 68.5993 147.258 69.0781ZM153.042 68.8761C153.059 69.3656 153.474 69.752 153.963 69.735C154.453 69.7179 154.839 69.3034 154.822 68.814C154.805 68.3246 154.391 67.9381 153.901 67.9552C153.412 67.9723 153.025 68.3867 153.042 68.8761ZM166.571 71.8544C165.336 74.37 165.417 74.4901 167.963 73.9103C169.389 73.5861 170.1 72.8984 169.902 72.0357C169.419 69.9401 167.561 69.8392 166.571 71.8544ZM22.3536 77.0038C22.3707 77.4932 22.7852 77.8797 23.2746 77.8626C23.764 77.8455 24.1505 77.4311 24.1334 76.9416C24.1163 76.4522 23.7019 76.0657 23.2124 76.0828C22.723 76.0999 22.3365 76.5143 22.3536 77.0038ZM36.4155 76.2303C37.0661 76.4651 37.833 76.4062 38.1181 76.1004C38.4032 75.7947 37.8708 75.603 36.9342 75.674C35.899 75.753 35.6955 75.9712 36.4155 76.2303ZM143.378 72.7775C143.395 73.267 143.833 73.6526 144.351 73.6345C144.869 73.6164 145.032 73.2098 144.713 72.7309C144.393 72.252 143.955 71.8664 143.739 71.8739C143.523 71.8815 143.361 72.2881 143.378 72.7775ZM34.0309 79.7144C34.0565 80.4485 34.478 81.0352 34.9674 81.0181C35.4568 81.0011 35.8363 80.3864 35.8107 79.6522C35.785 78.9181 35.3636 78.3314 34.8742 78.3485C34.3847 78.3656 34.0053 78.9802 34.0309 79.7144ZM23.8128 80.5167C24.1324 80.9956 24.7702 81.3742 25.2312 81.3581C25.6921 81.342 26.0546 80.9284 26.0375 80.439C26.0204 79.9496 25.3817 79.5709 24.619 79.5976C23.8564 79.6242 23.4931 80.0378 23.8128 80.5167ZM28.5309 80.0695C29.1814 80.3043 29.9483 80.2454 30.2334 79.9397C30.5186 79.6339 29.9862 79.4422 29.0496 79.5133C28.0144 79.5922 27.8108 79.8104 28.5309 80.0695ZM148.616 75.7816C148.346 76.2543 148.717 77.3943 149.442 78.3143C150.854 80.111 151.029 79.369 149.84 76.62C149.436 75.687 148.885 75.3098 148.616 75.7816ZM158.216 76.7142C157.931 77.2142 158.122 77.6085 158.64 77.5904C159.158 77.5723 159.568 77.157 159.551 76.6676C159.534 76.1781 159.344 75.7838 159.128 75.7914C158.911 75.7989 158.502 76.2142 158.216 76.7142ZM11.0027 83.6369C11.0198 84.1264 11.4342 84.5128 11.9236 84.4958C12.4131 84.4787 12.7995 84.0642 12.7824 83.5748C12.7653 83.0854 12.3509 82.6989 11.8615 82.716C11.372 82.7331 10.9856 83.1475 11.0027 83.6369ZM152.813 79.1837C152.198 80.9684 152.863 81.5386 154.667 80.7735C156.478 80.0046 156.482 78.9069 154.673 78.2848C153.875 78.0098 153.086 78.3911 152.813 79.1837ZM25.2719 84.0296C25.289 84.5191 25.7034 84.9055 26.1928 84.8884C26.6823 84.8713 27.0687 84.4569 27.0517 83.9675C27.0346 83.478 26.6201 83.0916 26.1307 83.1087C25.6413 83.1258 25.2548 83.5402 25.2719 84.0296ZM19.9792 85.5509C20.0048 86.2851 20.4263 86.8717 20.9157 86.8546C21.4051 86.8376 21.7846 86.2229 21.759 85.4887C21.7333 84.7546 21.3119 84.1679 20.8225 84.185C20.333 84.2021 19.9536 84.8167 19.9792 85.5509ZM40.5194 84.9076C40.5983 85.9428 40.8166 86.1463 41.0757 85.4272C41.3104 84.7757 41.2516 84.0088 40.9458 83.7237C40.6401 83.4386 40.4484 83.971 40.5194 84.9076ZM36.9044 85.4579C36.9225 85.9758 37.3291 86.1389 37.808 85.8193C38.2868 85.4996 38.6725 85.0621 38.6649 84.8458C38.6574 84.6296 38.2508 84.4674 37.7613 84.4845C37.2719 84.5015 36.8863 84.94 36.9044 85.4579ZM31.6383 87.7427C31.6654 88.5178 32.3211 89.1293 33.0962 89.1022C34.6678 89.0473 34.3276 87.1409 32.6586 86.6486C32.0698 86.4749 31.6113 86.9676 31.6383 87.7427ZM158.306 83.453C157.631 85.4118 159.577 87.1641 160.878 85.7688C161.978 84.59 161.179 81.9565 159.738 82.0069C159.217 82.0251 158.573 82.6757 158.306 83.453ZM147.372 85.1116C147.39 85.601 147.828 85.9866 148.346 85.9686C148.864 85.9505 149.027 85.5438 148.707 85.065C148.388 84.5861 147.95 84.2004 147.734 84.208C147.518 84.2155 147.355 84.6222 147.372 85.1116ZM164.725 84.5056C165.045 84.9845 165.482 85.3701 165.699 85.3626C165.915 85.355 166.077 84.9484 166.06 84.459C166.043 83.9696 165.604 83.5839 165.087 83.602C164.569 83.6201 164.406 84.0267 164.725 84.5056ZM169.633 84.7271C169.658 85.4328 170.087 86.2429 170.587 86.5283C171.087 86.8138 171.467 86.2223 171.432 85.2149C171.397 84.2076 170.968 83.3966 170.478 83.4137C169.989 83.4308 169.609 84.0215 169.633 84.7271ZM138.919 86.3503C138.587 86.933 138.879 87.739 139.568 88.1426C141.491 89.2684 142.322 89.0024 141.948 87.3796C141.526 85.5456 139.727 84.934 138.919 86.3503ZM18.8464 91.3818C19.166 91.8606 19.6036 92.2463 19.8198 92.2387C20.0361 92.2312 20.1983 91.8246 20.1812 91.3351C20.1641 90.8457 19.7256 90.4601 19.2077 90.4782C18.6898 90.4963 18.5267 90.9029 18.8464 91.3818ZM43.7005 90.8096C44.0165 91.6958 44.2811 92.5891 44.2883 92.7938C44.2954 92.9985 45.2588 93.1323 46.4299 93.0914C47.9578 93.0381 48.737 93.639 49.1941 95.2223C49.5439 96.4352 50.2329 97.4135 50.7259 97.3963C51.2189 97.379 50.959 96.1871 50.1477 94.7435C49.3373 93.3017 48.0273 92.1447 47.238 92.1722C46.4478 92.1998 45.1997 91.5413 44.4641 90.7099C43.1979 89.2787 43.1572 89.2837 43.7005 90.8096ZM22.0094 92.6603C22.036 93.4229 22.4497 93.7863 22.9285 93.4666C23.4074 93.147 23.7861 92.5092 23.77 92.0482C23.7539 91.5873 23.3403 91.2248 22.8508 91.2419C22.3614 91.259 21.9828 91.8977 22.0094 92.6603ZM31.8255 93.1034C31.8522 93.866 32.2744 94.4767 32.7639 94.4596C33.2533 94.4425 33.6406 94.0521 33.6245 93.5912C33.6084 93.1302 33.1862 92.5204 32.6862 92.2349C32.1862 91.9494 31.7989 92.3407 31.8255 93.1034ZM36.2613 92.5556C36.2783 93.045 36.6687 93.4323 37.1297 93.4162C37.5906 93.4001 38.2005 92.9779 38.486 92.4779C38.7714 91.9779 38.3802 91.5906 37.6175 91.6172C36.8549 91.6439 36.2442 92.0661 36.2613 92.5556ZM11.0877 95.6157C10.3447 96.8409 10.061 98.0287 10.4574 98.2554C10.8537 98.4812 11.5812 97.4749 12.0738 96.0179C13.1657 92.7901 12.8738 92.6711 11.0877 95.6157ZM157.793 90.0935C157.107 91.2935 158.23 92.9222 159.265 92.2312C160.323 91.5261 160.232 89.1174 159.149 89.1552C158.688 89.1713 158.078 89.5935 157.793 90.0935ZM161.811 90.3461C161.837 91.1088 162.26 91.7195 162.749 91.7024C163.239 91.6853 163.626 91.2949 163.61 90.8339C163.594 90.373 163.171 89.7631 162.671 89.4777C162.171 89.1922 161.784 89.5835 161.811 90.3461ZM146.832 91.3227C147.255 92.4564 148.482 92.6202 148.555 91.5521C148.579 91.1958 148.113 90.7612 147.519 90.5859C146.925 90.4107 146.616 90.7422 146.832 91.3227ZM34.1919 97.0827C34.5116 97.5615 35.1734 97.9394 35.6628 97.9223C36.1522 97.9052 36.2913 97.4994 35.9717 97.0205C35.652 96.5417 34.9902 96.1638 34.5008 96.1809C34.0114 96.198 33.8723 96.6038 34.1919 97.0827ZM177.107 92.6114C177.186 93.6466 177.404 93.8502 177.663 93.131C177.898 92.4795 177.839 91.7127 177.533 91.4276C177.227 91.1424 177.036 91.6748 177.107 92.6114ZM5.88496 98.6654C4.89644 99.7246 5.30874 100.764 6.69874 100.716C7.43289 100.69 8.01259 100.068 7.98695 99.3342C7.93841 97.9442 6.87256 97.6055 5.88496 98.6654ZM26.214 98.2522C25.9286 98.7522 26.1196 99.1465 26.6375 99.1284C27.1554 99.1103 27.566 98.6951 27.5489 98.2056C27.5318 97.7162 27.3416 97.3219 27.1254 97.3294C26.9091 97.337 26.4995 97.7522 26.214 98.2522ZM18.8543 99.467C19.048 99.9868 19.5863 100.399 20.0517 100.383C20.5171 100.367 21.0253 99.9178 21.1822 99.3858C21.3392 98.8537 20.8009 98.4413 19.9848 98.4698C19.1688 98.4983 18.6606 98.9472 18.8543 99.467ZM43.6289 99.426C43.646 99.9155 44.0605 100.302 44.5499 100.285C45.0393 100.268 45.4258 99.8533 45.4087 99.3639C45.3916 98.8744 44.9772 98.488 44.4877 98.5051C43.9983 98.5222 43.6118 98.9366 43.6289 99.426ZM150.139 96.3009C149.318 97.1804 149.48 98.4025 150.413 98.37C150.85 98.3547 151.417 97.7335 151.674 96.9895C152.147 95.6151 151.182 95.1819 150.139 96.3009ZM175.998 98.4192C175.745 100.45 174.803 103.687 173.903 105.615C171.697 110.34 171.879 111.059 174.363 107.434C175.51 105.758 176.611 102.485 176.866 99.989C177.417 94.5973 176.646 93.2049 175.998 98.4192ZM31.2327 101.641C31.2498 102.13 31.6642 102.517 32.1537 102.5C32.6431 102.483 33.0296 102.068 33.0125 101.579C32.9954 101.089 32.5809 100.703 32.0915 100.72C31.6021 100.737 31.2156 101.151 31.2327 101.641ZM38.3655 101.785C38.3901 102.49 38.8193 103.3 39.3193 103.586C39.8193 103.871 40.1996 103.28 40.1644 102.272C40.1293 101.265 39.7 100.454 39.2106 100.471C38.7211 100.488 38.3408 101.079 38.3655 101.785ZM130.57 98.6851C129.886 100.672 130.741 101.47 132.051 100.065C132.77 99.2934 132.78 98.7086 132.084 98.0594C131.387 97.4093 130.946 97.5921 130.57 98.6851ZM134.904 98.0206C135.224 98.4994 135.661 98.8851 135.878 98.8775C136.094 98.87 136.256 98.4634 136.239 97.974C136.222 97.4845 135.783 97.0989 135.266 97.117C134.748 97.1351 134.585 97.5417 134.904 98.0206ZM162.967 97.9316C162.984 98.421 163.422 98.8066 163.94 98.7885C164.458 98.7705 164.621 98.3638 164.301 97.885C163.982 97.4061 163.544 97.0204 163.328 97.028C163.112 97.0355 162.95 97.4421 162.967 97.9316ZM16.1668 103.949C16.1839 104.438 16.6224 104.824 17.1403 104.806C17.6582 104.788 17.8213 104.381 17.5017 103.902C17.182 103.423 16.7444 103.038 16.5282 103.045C16.3119 103.053 16.1497 103.459 16.1668 103.949ZM68.3352 103.705C68.0476 104.014 67.0956 103.567 66.2193 102.712C64.6973 101.226 64.7204 101.201 66.7431 102.151C67.9062 102.697 68.6229 103.397 68.3352 103.705ZM120.913 101.331C120.049 102.341 119.583 103.39 119.875 103.663C120.495 104.241 123.877 101.16 123.838 100.051C123.796 98.8353 122.597 99.36 120.913 101.331ZM141.672 100.457C141.689 100.947 142.103 101.333 142.592 101.316C143.082 101.299 143.468 100.884 143.451 100.395C143.434 99.9056 143.02 99.5191 142.53 99.5362C142.041 99.5533 141.654 99.9677 141.672 100.457ZM169.444 102.909C168.419 105.314 166.418 108.613 164.999 110.242C163.58 111.872 162.615 113.387 162.855 113.611C163.65 114.351 168.866 107.238 170.482 103.209C172.668 97.7594 171.753 97.4947 169.444 102.909ZM149.713 101.12C149.731 101.638 150.138 101.801 150.617 101.481C151.096 101.162 151.482 100.724 151.474 100.508C151.466 100.292 151.06 100.129 150.57 100.146C150.081 100.163 149.695 100.602 149.713 101.12ZM48.3269 106.39C48.344 106.879 48.7585 107.266 49.2479 107.249C49.7373 107.231 50.1238 106.817 50.1067 106.328C50.0896 105.838 49.6752 105.452 49.1858 105.469C48.6963 105.486 48.3099 105.9 48.3269 106.39ZM60.8009 106.4C60.8293 107.216 61.2783 107.724 61.7981 107.53C62.3179 107.337 62.7303 106.797 62.7141 106.333C62.6979 105.868 62.2489 105.359 61.7168 105.202C61.1848 105.045 60.7724 105.584 60.8009 106.4ZM128.898 103.515C128.324 104.519 129.765 105.533 130.558 104.682C131.374 103.806 131.174 102.606 130.218 102.639C129.757 102.655 129.163 103.049 128.898 103.515ZM134.677 104.265C134.694 104.755 135.108 105.141 135.598 105.124C136.087 105.107 136.474 104.693 136.457 104.203C136.439 103.714 136.025 103.327 135.536 103.344C135.046 103.361 134.66 103.776 134.677 104.265ZM151.984 103.738C151.674 104.282 151.881 105.157 152.445 105.682C153.197 106.384 153.457 106.177 153.423 104.903C153.384 103.456 153.527 103.384 154.285 104.472C155.062 105.587 155.189 105.55 155.154 104.218C155.109 102.506 152.88 102.168 151.984 103.738ZM64.0738 108.146C63.3821 110.155 63.4484 110.317 64.9452 110.264C65.6793 110.239 66.2599 109.641 66.2352 108.935C66.1695 107.052 64.6416 106.494 64.0738 108.146ZM104.276 105.935C104.926 106.17 105.693 106.111 105.978 105.806C106.263 105.5 105.731 105.308 104.794 105.379C103.759 105.458 103.555 105.676 104.276 105.935ZM22.6099 109.856C22.627 110.345 23.05 110.979 23.55 111.264C24.05 111.55 24.4451 111.383 24.4281 110.893C24.411 110.404 23.9879 109.77 23.4879 109.485C22.9879 109.199 22.5928 109.366 22.6099 109.856ZM98.8369 107.002C97.9179 107.987 98.2635 110.152 99.2352 109.503C99.7219 109.178 99.832 108.481 99.4804 107.954C99.0715 107.341 99.3714 107.179 100.313 107.502C101.123 107.781 102.008 107.617 102.281 107.139C102.837 106.166 99.7317 106.042 98.8369 107.002ZM45.3461 110.072C45.6713 110.559 46.3013 110.714 46.7471 110.416C47.9547 109.61 47.7065 109.084 46.1429 109.139C45.3803 109.166 45.0217 109.585 45.3461 110.072ZM50.231 109.887C50.2481 110.377 50.6866 110.762 51.2045 110.744C51.7224 110.726 51.8855 110.319 51.5658 109.84C51.2462 109.362 50.8086 108.976 50.5924 108.984C50.3761 108.991 50.2139 109.398 50.231 109.887ZM103.624 108.023C103.641 108.512 104.056 108.898 104.545 108.881C105.034 108.864 105.421 108.45 105.404 107.96C105.387 107.471 104.972 107.085 104.483 107.102C103.993 107.119 103.607 107.533 103.624 108.023ZM110.466 108.147C110.01 109.469 110.622 110.451 111.875 110.407C112.868 110.373 112.739 107.939 111.713 107.353C111.265 107.096 110.703 107.455 110.466 108.147ZM121.138 107.089C120.452 107.825 121.304 109.187 122.426 109.148C122.887 109.132 123.243 108.518 123.217 107.784C123.169 106.408 122.105 106.052 121.138 107.089ZM140.125 107.193C140.15 107.928 140.772 108.507 141.506 108.482C142.24 108.456 142.82 107.834 142.794 107.1C142.769 106.366 142.147 105.786 141.413 105.812C140.679 105.838 140.099 106.459 140.125 107.193ZM146.865 106.374C146.574 106.883 146.78 107.552 147.32 107.861C148.719 108.658 149.561 107.47 148.378 106.367C147.717 105.75 147.219 105.753 146.865 106.374ZM56.4913 110.559C56.5084 111.049 56.9228 111.435 57.4122 111.418C57.9017 111.401 58.2881 110.987 58.271 110.497C58.2539 110.008 57.8395 109.621 57.3501 109.639C56.8607 109.656 56.4742 110.07 56.4913 110.559ZM79.7477 111.158C79.8266 112.193 80.0449 112.396 80.304 111.677C80.5388 111.026 80.4799 110.259 80.1742 109.974C79.8684 109.689 79.6767 110.221 79.7477 111.158ZM86.7784 110.393C86.7955 110.882 87.234 111.268 87.7519 111.25C88.2698 111.232 88.4329 110.825 88.1132 110.346C87.7936 109.867 87.356 109.482 87.1397 109.489C86.9235 109.497 86.7613 109.903 86.7784 110.393ZM31.1464 113.304C30.8366 113.848 31.0611 114.739 31.6459 115.284C32.449 116.033 32.902 115.944 33.5015 114.919C33.9378 114.172 34.29 113.262 34.2852 112.894C34.2698 111.866 31.782 112.19 31.1464 113.304ZM42.3153 112.836C42.3324 113.326 42.7468 113.712 43.2362 113.695C43.7257 113.678 44.1121 113.264 44.0951 112.774C44.078 112.285 43.6635 111.898 43.1741 111.915C42.6847 111.933 42.2982 112.347 42.3153 112.836ZM126.906 109.587C126.892 110.16 126.659 111.27 126.389 112.055C126.067 112.991 126.389 113.464 127.328 113.432C128.911 113.376 128.979 112.883 127.76 110.298C127.305 109.334 126.921 109.014 126.906 109.587ZM40.2358 113.527C39.2095 114.628 39.7646 116.489 41.1048 116.443C41.8389 116.417 42.4195 115.819 42.3948 115.114C42.3429 113.627 41.038 112.668 40.2358 113.527ZM46.8139 114.09C46.8688 115.661 48.7752 115.321 49.2675 113.652C49.4412 113.063 48.9485 112.605 48.1734 112.632C47.3983 112.659 46.7868 113.315 46.8139 114.09ZM83.2966 112.742C83.3222 113.476 83.7436 114.063 84.2331 114.046C84.7225 114.028 85.102 113.414 85.0763 112.68C85.0507 111.945 84.6293 111.359 84.1398 111.376C83.6504 111.393 83.2709 112.008 83.2966 112.742ZM199.831 109.229C197.857 113.249 203.172 117.45 207.242 115.086C209.449 113.803 209.373 112.291 206.961 109.435C204.6 106.64 201.152 106.54 199.831 109.229ZM62.3998 113.917C61.7382 115.077 62.7237 116.583 64.1024 116.517C64.7392 116.486 64.6167 116.14 63.7968 115.65C62.8868 115.106 62.8028 114.817 63.5437 114.781C64.1557 114.753 64.6416 114.329 64.6245 113.839C64.6074 113.35 64.2171 112.963 63.7561 112.979C63.2951 112.995 62.6853 113.417 62.3998 113.917ZM66.8492 113.762C66.5638 114.262 66.7548 114.656 67.2727 114.638C67.7906 114.62 68.2012 114.204 68.1841 113.715C68.167 113.226 67.9768 112.831 67.7606 112.839C67.5443 112.846 67.1347 113.262 66.8492 113.762ZM114.505 113.434C114.53 114.168 114.952 114.755 115.441 114.738C115.931 114.721 116.31 114.106 116.284 113.372C116.259 112.638 115.837 112.051 115.348 112.068C114.858 112.085 114.479 112.7 114.505 113.434ZM121.071 113.162C120.513 114.782 121.569 116.517 122.667 115.783C123.77 115.047 123.582 111.78 122.439 111.82C121.934 111.838 121.318 112.441 121.071 113.162ZM205.382 113.232C202.605 113.747 201.171 112.211 202.646 110.303C203.711 108.923 203.96 108.968 205.586 110.83C207.35 112.85 207.349 112.866 205.382 113.232ZM79.9031 115.607C79.982 116.642 80.2003 116.846 80.4594 116.127C80.6941 115.475 80.6353 114.708 80.3295 114.423C80.0238 114.138 79.8321 114.671 79.9031 115.607ZM86.9338 114.842C86.9509 115.332 87.3413 115.719 87.8022 115.703C88.2632 115.687 88.873 115.265 89.1585 114.765C89.444 114.265 89.0527 113.877 88.2901 113.904C87.5274 113.931 86.9167 114.353 86.9338 114.842ZM131.917 113.196C131.647 113.669 131.814 114.277 132.287 114.548C132.761 114.818 133.369 114.652 133.639 114.178C133.91 113.704 133.743 113.096 133.27 112.826C132.796 112.556 132.188 112.722 131.917 113.196ZM54.5202 116.804C53.9468 117.808 55.3872 118.822 56.1808 117.971C56.9966 117.095 56.797 115.895 55.8404 115.928C55.3794 115.944 54.7855 116.338 54.5202 116.804ZM95.8948 116.311C95.929 117.29 96.3574 118.077 96.8468 118.06C97.3362 118.043 97.7087 117.228 97.6745 116.249C97.6404 115.27 97.2119 114.483 96.7225 114.5C96.2331 114.517 95.8606 115.332 95.8948 116.311ZM100.33 115.763C100.357 116.526 100.771 116.889 101.25 116.57C101.728 116.25 102.107 115.612 102.091 115.151C102.075 114.69 101.661 114.328 101.172 114.345C100.682 114.362 100.304 115.001 100.33 115.763ZM106.544 115.101C106.562 115.619 106.969 115.782 107.448 115.462C107.927 115.143 108.312 114.705 108.305 114.489C108.297 114.273 107.891 114.11 107.401 114.127C106.912 114.145 106.526 114.583 106.544 115.101ZM151.037 113.495C151.054 113.984 151.468 114.371 151.957 114.353C152.447 114.336 152.833 113.922 152.816 113.433C152.799 112.943 152.385 112.557 151.895 112.574C151.406 112.591 151.019 113.005 151.037 113.495ZM16.9407 121.006C17.6985 122.065 18.8218 123.081 19.4357 123.261C21.04 123.735 18.5081 120.093 16.8316 119.517C15.7729 119.152 15.7913 119.399 16.9407 121.006ZM47.4272 118.895C47.0922 119.482 47.232 120.348 47.7386 120.821C48.3528 121.394 48.8627 121.324 49.2691 120.612C49.6041 120.025 49.4643 119.159 48.9577 118.686C48.3434 118.113 47.8336 118.183 47.4272 118.895ZM109.321 118.07C109.346 118.804 109.768 119.391 110.257 119.374C110.747 119.356 111.126 118.742 111.1 118.008C111.075 117.273 110.653 116.687 110.164 116.704C109.675 116.721 109.295 117.336 109.321 118.07ZM76.4572 120.999C76.4857 121.815 76.9346 122.324 77.4544 122.13C77.9742 121.936 78.3867 121.397 78.3704 120.933C78.3542 120.468 77.9052 119.959 77.3731 119.802C76.8411 119.645 76.4287 120.183 76.4572 120.999ZM80.5844 120.113C79.7633 120.993 79.9254 122.215 80.858 122.182C81.2949 122.167 81.8621 121.546 82.1186 120.802C82.5918 119.427 81.6269 118.994 80.5844 120.113ZM101.744 121.937C101.481 122.702 101.506 123.552 101.8 123.827C102.729 124.694 105.046 123.233 104.997 121.812C104.935 120.036 102.365 120.135 101.744 121.937ZM121.513 120.643C121.151 121.277 121.104 122.027 121.408 122.31C122.232 123.079 123.06 121.877 122.584 120.602C122.252 119.708 122.042 119.716 121.513 120.643ZM40.0652 124.943C40.0908 125.677 40.5122 126.264 41.0017 126.247C41.4911 126.23 41.8706 125.615 41.8449 124.881C41.8193 124.147 41.3979 123.56 40.9084 123.577C40.419 123.594 40.0395 124.209 40.0652 124.943ZM52.5572 125.472C52.6545 128.26 54.7333 127.882 55.0539 125.018C55.1977 123.728 54.8013 123.092 53.874 123.124C52.9655 123.156 52.505 123.977 52.5572 125.472ZM68.9802 123.502C69.3055 123.989 69.9355 124.144 70.3812 123.846C71.5889 123.04 71.3407 122.514 69.7771 122.569C69.0145 122.596 68.6559 123.015 68.9802 123.502ZM91.6784 123.141C91.7041 123.875 92.1255 124.462 92.6149 124.444C93.1044 124.427 93.4838 123.813 93.4582 123.079C93.4325 122.344 93.0111 121.758 92.5217 121.775C92.0323 121.792 91.6528 122.407 91.6784 123.141ZM115.394 122.284C115.143 123.012 115.329 123.831 115.807 124.104C116.286 124.377 116.67 124.409 116.662 124.176C116.654 123.942 116.868 123.109 117.138 122.325C117.408 121.54 117.228 120.912 116.739 120.929C116.25 120.946 115.644 121.556 115.394 122.284ZM22.7298 125.997C23.0485 126.474 23.7023 126.851 24.1837 126.834C25.1155 126.802 26.6996 127.9 29.6138 130.6C30.6027 131.515 31.3969 131.858 31.3796 131.361C31.332 130 27.5408 126.958 24.6816 125.988C23.0839 125.445 22.3641 125.449 22.7298 125.997ZM59.8701 124.396C58.3427 125.076 58.5492 126.525 60.1652 126.469C60.8994 126.443 61.4791 125.821 61.4534 125.087C61.4278 124.353 61.3083 123.788 61.1868 123.83C61.0653 123.873 60.4737 124.128 59.8701 124.396ZM96.2229 125.707C96.2495 126.47 96.6632 126.833 97.142 126.514C97.6209 126.194 97.9996 125.556 97.9835 125.095C97.9674 124.634 97.5538 124.272 97.0643 124.289C96.5749 124.306 96.1963 124.945 96.2229 125.707ZM44.1524 127.963C43.3548 129.361 44.5433 130.204 45.6461 129.021C46.2627 128.36 46.2604 127.862 45.6395 127.508C45.1304 127.217 44.4613 127.422 44.1524 127.963ZM68.6657 127.508C68.6914 128.242 69.1128 128.829 69.6022 128.812C70.0917 128.795 70.4711 128.18 70.4455 127.446C70.4199 126.712 69.9984 126.125 69.509 126.142C69.0196 126.159 68.6401 126.774 68.6657 127.508ZM131.863 125.747C131.88 126.236 132.295 126.623 132.784 126.606C133.273 126.589 133.66 126.174 133.643 125.685C133.626 125.195 133.211 124.809 132.722 124.826C132.232 124.843 131.846 125.257 131.863 125.747ZM170.109 123.857C170.115 124.041 169.572 124.681 168.901 125.278C167.968 126.11 167.518 126.119 166.983 125.317C166.556 124.677 166.668 124.489 167.27 124.833C167.813 125.143 168.494 124.98 168.785 124.472C169.304 123.563 170.086 123.199 170.109 123.857ZM101.117 128.068C100.821 128.928 101.034 130.057 101.591 130.576C102.328 131.263 102.751 131.094 103.143 129.957C103.439 129.097 103.226 127.968 102.668 127.449C101.932 126.762 101.508 126.931 101.117 128.068ZM113.318 130.469C113.347 131.298 113.968 131.731 114.84 131.529C117.057 131.019 117.291 128.929 115.122 129.004C114.03 129.042 113.289 129.644 113.318 130.469ZM88.9263 132.531C88.3528 133.535 89.7933 134.549 90.5868 133.698C91.4026 132.822 91.203 131.622 90.2464 131.655C89.7854 131.671 89.1916 132.065 88.9263 132.531ZM118.266 131.582C118.591 132.068 119.221 132.224 119.667 131.926C120.874 131.12 120.626 130.594 119.063 130.649C118.3 130.675 117.941 131.095 118.266 131.582ZM135.192 131.874C134.904 132.377 135.321 133.014 136.118 133.288C137.844 133.882 138.768 133.129 137.903 131.832C137.123 130.662 135.872 130.682 135.192 131.874ZM36.5258 138.404C38.0362 139.555 39.8286 140.493 40.51 140.487C41.1905 140.481 40.2367 139.527 38.3911 138.366C34.0895 135.662 32.9614 135.684 36.5258 138.404ZM40.5002 137.401C41.1354 138.114 42.0552 138.684 42.5446 138.667C43.0412 138.649 42.9236 138.063 42.28 137.339C41.6448 136.626 40.725 136.057 40.2356 136.074C39.739 136.092 39.8566 136.678 40.5002 137.401ZM106.949 135.977C106.694 136.719 106.849 137.312 107.294 137.296C108.501 137.254 109.195 135.647 108.241 135.103C107.786 134.842 107.204 135.236 106.949 135.977ZM160.631 133.098C160.637 133.282 159.96 134.008 159.128 134.709C157.755 135.865 157.723 135.835 158.78 134.385C159.891 132.862 160.605 132.365 160.631 133.098ZM124.32 139.375C122.64 140.372 121.786 141.187 122.423 141.185C123.71 141.182 128.745 138.525 128.722 137.861C128.696 137.097 127.417 137.536 124.32 139.375ZM155.435 137.397C155.452 137.887 155.042 138.302 154.524 138.32C154.006 138.338 153.815 137.944 154.1 137.444C154.386 136.944 154.795 136.529 155.012 136.521C155.228 136.513 155.418 136.908 155.435 137.397ZM36.4211 144.894C37.5765 146.267 37.5464 146.299 36.0964 145.243C35.2169 144.601 34.4912 143.924 34.4848 143.74C34.4592 143.007 35.2062 143.452 36.4211 144.894ZM57.1364 147.684C58.0101 147.88 59.2109 147.823 59.8049 147.558C60.3988 147.293 59.6841 147.134 58.2164 147.203C56.7487 147.272 56.2626 147.488 57.1364 147.684ZM78.2819 147.739C78.309 148.514 78.8008 148.973 79.376 148.759C81.0066 148.151 81.2129 146.226 79.6414 146.281C78.8663 146.308 78.2548 146.964 78.2819 147.739ZM133.307 148.509C133.022 148.814 132.255 148.873 131.605 148.639C130.885 148.38 131.088 148.161 132.124 148.082C133.06 148.011 133.593 148.203 133.307 148.509ZM55.7582 153.352C56.9496 153.815 57.1105 154.087 56.2315 154.149C55.4983 154.203 54.2842 153.878 53.5335 153.429C51.8701 152.435 53.2752 152.386 55.7582 153.352ZM129.154 150.239C129.161 150.427 128.372 150.818 127.402 151.108C126.431 151.399 125.848 151.265 126.108 150.812C126.559 150.02 129.13 149.537 129.154 150.239ZM73.8406 155.04C73.5554 155.346 72.7886 155.405 72.138 155.17C71.418 154.911 71.6215 154.693 72.6567 154.614C73.5933 154.543 74.1257 154.734 73.8406 155.04ZM113.509 154.592C112.915 154.857 111.714 154.914 110.84 154.718C109.966 154.523 110.452 154.306 111.92 154.237C113.388 154.168 114.103 154.327 113.509 154.592ZM105.283 155.527C105.29 155.715 104.5 156.106 103.53 156.397C102.56 156.687 101.977 156.553 102.236 156.101C102.688 155.309 105.258 154.825 105.283 155.527ZM91.307 157.155C90.7043 157.424 89.7032 157.459 89.0823 157.233C88.4624 157.007 88.9554 156.788 90.179 156.745C91.4026 156.702 91.9107 156.887 91.307 157.155Z" fill="#fff"/>
</svg>
